G04 EAGLE Gerber RS-274X export*
G75*
%MOMM*%
%FSLAX34Y34*%
%LPD*%
%INTop Copper*%
%IPPOS*%
%AMOC8*
5,1,8,0,0,1.08239X$1,22.5*%
G01*
%ADD10R,1.270000X4.000000*%
%ADD11R,0.250000X2.500000*%
%ADD12C,0.806400*%
%ADD13C,0.254000*%
%ADD14C,5.016000*%

G36*
X-735026Y35846D02*
X-735026Y35846D01*
X-735085Y35855D01*
X-735145Y35854D01*
X-735224Y35875D01*
X-735305Y35886D01*
X-735360Y35911D01*
X-735418Y35927D01*
X-735488Y35969D01*
X-735562Y36003D01*
X-735608Y36042D01*
X-735659Y36073D01*
X-735714Y36133D01*
X-735776Y36187D01*
X-735809Y36237D01*
X-735849Y36281D01*
X-735886Y36354D01*
X-735930Y36423D01*
X-735948Y36480D01*
X-735974Y36534D01*
X-735986Y36606D01*
X-736012Y36693D01*
X-736013Y36772D01*
X-736024Y36838D01*
X-737499Y229768D01*
X-737499Y229772D01*
X-737499Y229775D01*
X-737499Y393840D01*
X-737490Y393904D01*
X-737491Y393968D01*
X-737470Y394043D01*
X-737459Y394119D01*
X-737433Y394178D01*
X-737416Y394240D01*
X-737375Y394306D01*
X-737343Y394376D01*
X-737301Y394425D01*
X-737268Y394480D01*
X-737210Y394532D01*
X-737160Y394590D01*
X-737106Y394626D01*
X-737058Y394669D01*
X-736989Y394702D01*
X-736924Y394745D01*
X-736862Y394764D01*
X-736805Y394792D01*
X-736735Y394803D01*
X-736654Y394827D01*
X-736569Y394828D01*
X-736500Y394839D01*
X-5100Y394839D01*
X-5036Y394830D01*
X-4972Y394831D01*
X-4897Y394810D01*
X-4821Y394799D01*
X-4762Y394773D01*
X-4700Y394756D01*
X-4634Y394715D01*
X-4564Y394683D01*
X-4515Y394641D01*
X-4460Y394608D01*
X-4408Y394550D01*
X-4350Y394500D01*
X-4314Y394446D01*
X-4271Y394398D01*
X-4238Y394329D01*
X-4195Y394264D01*
X-4176Y394202D01*
X-4148Y394145D01*
X-4137Y394075D01*
X-4113Y393994D01*
X-4112Y393909D01*
X-4101Y393840D01*
X-4101Y35890D01*
X-4110Y35826D01*
X-4109Y35761D01*
X-4130Y35687D01*
X-4141Y35611D01*
X-4167Y35552D01*
X-4185Y35489D01*
X-4225Y35424D01*
X-4257Y35354D01*
X-4299Y35305D01*
X-4333Y35249D01*
X-4390Y35198D01*
X-4440Y35140D01*
X-4495Y35104D01*
X-4543Y35061D01*
X-4612Y35027D01*
X-4676Y34985D01*
X-4738Y34966D01*
X-4797Y34938D01*
X-4866Y34927D01*
X-4946Y34903D01*
X-5031Y34902D01*
X-5101Y34891D01*
X-735026Y35846D01*
G37*
%LPC*%
G36*
X-349278Y39529D02*
X-349278Y39529D01*
X-329007Y59800D01*
X-329007Y96767D01*
X-330134Y97893D01*
X-330153Y97919D01*
X-330178Y97940D01*
X-330238Y98032D01*
X-330303Y98119D01*
X-330315Y98149D01*
X-330332Y98176D01*
X-330364Y98281D01*
X-330403Y98383D01*
X-330405Y98415D01*
X-330415Y98446D01*
X-330416Y98555D01*
X-330425Y98664D01*
X-330418Y98696D01*
X-330419Y98728D01*
X-330389Y98833D01*
X-330367Y98940D01*
X-330352Y98969D01*
X-330343Y99000D01*
X-330286Y99093D01*
X-330235Y99189D01*
X-330212Y99212D01*
X-330195Y99240D01*
X-330114Y99313D01*
X-330038Y99391D01*
X-330010Y99407D01*
X-329986Y99429D01*
X-329888Y99476D01*
X-329793Y99530D01*
X-329761Y99538D01*
X-329732Y99552D01*
X-329643Y99566D01*
X-329518Y99595D01*
X-329470Y99593D01*
X-329428Y99599D01*
X-313387Y99599D01*
X-313282Y99584D01*
X-313175Y99576D01*
X-313145Y99565D01*
X-313108Y99559D01*
X-312973Y99498D01*
X-312888Y99465D01*
X-312831Y99432D01*
X-312185Y99259D01*
X-311599Y99259D01*
X-311599Y114300D01*
X-311599Y129467D01*
X-311666Y129497D01*
X-311715Y129539D01*
X-311770Y129572D01*
X-311822Y129630D01*
X-311880Y129680D01*
X-311916Y129734D01*
X-311959Y129782D01*
X-311992Y129851D01*
X-312035Y129916D01*
X-312054Y129978D01*
X-312082Y130035D01*
X-312093Y130105D01*
X-312117Y130186D01*
X-312118Y130271D01*
X-312129Y130340D01*
X-312129Y151104D01*
X-312116Y151199D01*
X-312111Y151295D01*
X-312096Y151338D01*
X-312089Y151383D01*
X-312050Y151471D01*
X-312018Y151562D01*
X-311993Y151596D01*
X-311973Y151640D01*
X-311890Y151738D01*
X-311837Y151811D01*
X-310777Y152871D01*
X-310751Y152890D01*
X-310730Y152915D01*
X-310638Y152975D01*
X-310551Y153040D01*
X-310521Y153052D01*
X-310494Y153069D01*
X-310389Y153101D01*
X-310287Y153140D01*
X-310255Y153142D01*
X-310224Y153152D01*
X-310115Y153153D01*
X-310006Y153162D01*
X-309974Y153155D01*
X-309942Y153155D01*
X-309837Y153126D01*
X-309730Y153104D01*
X-309701Y153089D01*
X-309670Y153080D01*
X-309577Y153023D01*
X-309481Y152971D01*
X-309458Y152949D01*
X-309430Y152932D01*
X-309357Y152851D01*
X-309279Y152775D01*
X-309263Y152747D01*
X-309241Y152723D01*
X-309194Y152625D01*
X-309140Y152529D01*
X-309132Y152498D01*
X-309118Y152469D01*
X-309104Y152379D01*
X-309075Y152255D01*
X-309077Y152206D01*
X-309071Y152164D01*
X-309071Y130340D01*
X-309080Y130276D01*
X-309079Y130212D01*
X-309100Y130137D01*
X-309111Y130061D01*
X-309137Y130002D01*
X-309154Y129940D01*
X-309195Y129874D01*
X-309227Y129804D01*
X-309269Y129755D01*
X-309302Y129700D01*
X-309360Y129648D01*
X-309410Y129590D01*
X-309464Y129554D01*
X-309512Y129511D01*
X-309581Y129478D01*
X-309601Y129465D01*
X-309601Y114300D01*
X-309601Y99259D01*
X-309015Y99259D01*
X-308369Y99432D01*
X-308312Y99465D01*
X-308213Y99505D01*
X-308117Y99552D01*
X-308085Y99557D01*
X-308051Y99571D01*
X-307903Y99585D01*
X-307813Y99599D01*
X-305070Y99599D01*
X-305006Y99590D01*
X-304942Y99591D01*
X-304867Y99570D01*
X-304791Y99559D01*
X-304732Y99533D01*
X-304670Y99516D01*
X-304604Y99475D01*
X-304534Y99443D01*
X-304485Y99401D01*
X-304430Y99368D01*
X-304378Y99310D01*
X-304320Y99260D01*
X-304284Y99206D01*
X-304241Y99158D01*
X-304208Y99089D01*
X-304165Y99024D01*
X-304146Y98962D01*
X-304118Y98905D01*
X-304107Y98835D01*
X-304083Y98754D01*
X-304082Y98669D01*
X-304071Y98600D01*
X-304071Y86825D01*
X-304076Y86791D01*
X-304073Y86757D01*
X-304079Y86731D01*
X-304079Y86724D01*
X-304088Y86691D01*
X-304093Y86670D01*
X-304111Y86546D01*
X-304131Y86500D01*
X-304141Y86456D01*
X-304495Y85566D01*
X-304519Y85524D01*
X-304535Y85478D01*
X-304583Y85412D01*
X-304635Y85322D01*
X-304683Y85275D01*
X-304717Y85229D01*
X-305962Y83984D01*
X-307033Y81399D01*
X-307033Y78601D01*
X-305962Y76016D01*
X-303984Y74038D01*
X-301399Y72967D01*
X-298601Y72967D01*
X-296016Y74038D01*
X-294038Y76016D01*
X-292967Y78601D01*
X-292967Y81436D01*
X-292978Y81464D01*
X-292982Y81519D01*
X-292996Y81572D01*
X-292993Y81659D01*
X-293000Y81745D01*
X-292989Y81799D01*
X-292987Y81854D01*
X-292960Y81936D01*
X-292942Y82021D01*
X-292916Y82070D01*
X-292899Y82122D01*
X-292850Y82194D01*
X-292810Y82270D01*
X-292771Y82309D01*
X-292741Y82355D01*
X-292673Y82410D01*
X-292613Y82472D01*
X-292565Y82499D01*
X-292523Y82534D01*
X-292443Y82568D01*
X-292368Y82611D01*
X-292314Y82624D01*
X-292264Y82646D01*
X-292178Y82656D01*
X-292093Y82676D01*
X-292038Y82673D01*
X-291984Y82680D01*
X-291898Y82666D01*
X-291811Y82662D01*
X-291760Y82644D01*
X-291706Y82635D01*
X-291627Y82598D01*
X-291545Y82569D01*
X-291504Y82539D01*
X-291451Y82514D01*
X-291366Y82438D01*
X-291296Y82388D01*
X-265489Y56580D01*
X-229511Y56580D01*
X-189529Y96562D01*
X-189529Y139438D01*
X-191855Y141763D01*
X-200532Y150441D01*
X-200583Y150508D01*
X-200641Y150569D01*
X-200665Y150617D01*
X-200702Y150666D01*
X-200741Y150770D01*
X-200778Y150845D01*
X-200921Y151294D01*
X-200967Y151572D01*
X-200966Y151585D01*
X-200967Y151596D01*
X-200967Y154399D01*
X-202038Y156984D01*
X-204016Y158962D01*
X-206601Y160033D01*
X-209399Y160033D01*
X-211984Y158962D01*
X-213962Y156984D01*
X-215033Y154399D01*
X-215033Y151601D01*
X-213962Y149016D01*
X-211984Y147038D01*
X-209399Y145967D01*
X-206596Y145967D01*
X-206317Y145927D01*
X-206305Y145922D01*
X-206294Y145921D01*
X-205845Y145778D01*
X-205769Y145742D01*
X-205690Y145714D01*
X-205647Y145683D01*
X-205591Y145656D01*
X-205509Y145582D01*
X-205441Y145532D01*
X-196763Y136855D01*
X-196706Y136778D01*
X-196641Y136707D01*
X-196621Y136666D01*
X-196594Y136629D01*
X-196560Y136539D01*
X-196518Y136453D01*
X-196512Y136411D01*
X-196495Y136366D01*
X-196485Y136238D01*
X-196471Y136148D01*
X-196471Y99852D01*
X-196484Y99757D01*
X-196489Y99660D01*
X-196504Y99617D01*
X-196511Y99572D01*
X-196550Y99485D01*
X-196559Y99460D01*
X-196564Y99442D01*
X-196566Y99438D01*
X-196582Y99394D01*
X-196607Y99360D01*
X-196627Y99315D01*
X-196682Y99251D01*
X-196712Y99202D01*
X-196740Y99177D01*
X-196763Y99145D01*
X-232094Y63815D01*
X-232171Y63757D01*
X-232242Y63692D01*
X-232283Y63673D01*
X-232319Y63645D01*
X-232409Y63611D01*
X-232496Y63569D01*
X-232538Y63563D01*
X-232583Y63546D01*
X-232711Y63536D01*
X-232800Y63522D01*
X-262200Y63522D01*
X-262295Y63535D01*
X-262391Y63540D01*
X-262434Y63555D01*
X-262479Y63562D01*
X-262566Y63601D01*
X-262657Y63633D01*
X-262692Y63658D01*
X-262736Y63678D01*
X-262833Y63761D01*
X-262906Y63815D01*
X-286837Y87745D01*
X-286894Y87822D01*
X-286959Y87893D01*
X-286979Y87934D01*
X-287006Y87971D01*
X-287040Y88061D01*
X-287082Y88147D01*
X-287088Y88189D01*
X-287105Y88234D01*
X-287115Y88362D01*
X-287129Y88452D01*
X-287129Y98260D01*
X-287120Y98324D01*
X-287121Y98388D01*
X-287100Y98463D01*
X-287089Y98539D01*
X-287063Y98598D01*
X-287046Y98660D01*
X-287005Y98726D01*
X-286973Y98796D01*
X-286931Y98845D01*
X-286898Y98900D01*
X-286840Y98952D01*
X-286790Y99010D01*
X-286736Y99046D01*
X-286688Y99089D01*
X-286619Y99122D01*
X-286599Y99135D01*
X-286599Y114300D01*
X-286599Y129341D01*
X-287185Y129341D01*
X-287831Y129168D01*
X-287888Y129135D01*
X-287987Y129095D01*
X-288083Y129048D01*
X-288115Y129043D01*
X-288149Y129029D01*
X-288297Y129015D01*
X-288387Y129001D01*
X-291130Y129001D01*
X-291194Y129010D01*
X-291258Y129009D01*
X-291333Y129030D01*
X-291409Y129041D01*
X-291468Y129067D01*
X-291530Y129084D01*
X-291596Y129125D01*
X-291666Y129157D01*
X-291715Y129199D01*
X-291770Y129232D01*
X-291822Y129290D01*
X-291880Y129340D01*
X-291916Y129394D01*
X-291959Y129442D01*
X-291992Y129511D01*
X-292035Y129576D01*
X-292054Y129638D01*
X-292082Y129695D01*
X-292093Y129765D01*
X-292117Y129846D01*
X-292118Y129931D01*
X-292129Y130000D01*
X-292129Y145620D01*
X-292108Y145769D01*
X-292100Y145860D01*
X-291807Y147045D01*
X-291769Y147136D01*
X-291750Y147207D01*
X-291737Y147228D01*
X-291725Y147262D01*
X-291711Y147281D01*
X-291701Y147306D01*
X-291644Y147378D01*
X-291602Y147446D01*
X-291568Y147477D01*
X-291543Y147511D01*
X-291038Y148016D01*
X-289967Y150601D01*
X-289967Y153399D01*
X-291038Y155984D01*
X-293016Y157962D01*
X-295601Y159033D01*
X-295968Y159033D01*
X-296032Y159042D01*
X-296096Y159041D01*
X-296171Y159062D01*
X-296247Y159073D01*
X-296306Y159099D01*
X-296368Y159116D01*
X-296434Y159157D01*
X-296504Y159189D01*
X-296553Y159231D01*
X-296608Y159264D01*
X-296660Y159322D01*
X-296718Y159372D01*
X-296754Y159426D01*
X-296797Y159474D01*
X-296830Y159543D01*
X-296873Y159608D01*
X-296892Y159670D01*
X-296920Y159727D01*
X-296931Y159797D01*
X-296955Y159878D01*
X-296956Y159963D01*
X-296967Y160032D01*
X-296967Y162399D01*
X-297879Y164600D01*
X-297881Y164609D01*
X-297886Y164617D01*
X-297916Y164746D01*
X-297949Y164873D01*
X-297949Y164882D01*
X-297951Y164891D01*
X-297944Y165024D01*
X-297940Y165155D01*
X-297937Y165164D01*
X-297936Y165173D01*
X-297893Y165298D01*
X-297852Y165423D01*
X-297847Y165431D01*
X-297844Y165440D01*
X-297799Y165502D01*
X-297694Y165656D01*
X-297675Y165671D01*
X-297662Y165689D01*
X-288227Y175124D01*
X-288227Y206450D01*
X-288214Y206545D01*
X-288209Y206642D01*
X-288194Y206685D01*
X-288187Y206730D01*
X-288148Y206817D01*
X-288116Y206908D01*
X-288091Y206942D01*
X-288071Y206987D01*
X-287988Y207084D01*
X-287935Y207157D01*
X-283455Y211637D01*
X-283378Y211694D01*
X-283307Y211759D01*
X-283266Y211779D01*
X-283229Y211806D01*
X-283139Y211840D01*
X-283053Y211882D01*
X-283011Y211888D01*
X-282966Y211905D01*
X-282838Y211915D01*
X-282748Y211929D01*
X-245590Y211929D01*
X-245507Y211917D01*
X-245422Y211915D01*
X-245372Y211898D01*
X-245311Y211889D01*
X-245210Y211844D01*
X-245130Y211817D01*
X-244712Y211601D01*
X-244483Y211437D01*
X-244475Y211427D01*
X-244466Y211420D01*
X-242484Y209438D01*
X-240347Y208553D01*
X-240245Y208492D01*
X-240140Y208437D01*
X-240124Y208421D01*
X-240104Y208409D01*
X-240023Y208323D01*
X-239938Y208240D01*
X-239927Y208220D01*
X-239911Y208203D01*
X-239858Y208098D01*
X-239799Y207995D01*
X-239794Y207972D01*
X-239783Y207952D01*
X-239761Y207836D01*
X-239734Y207720D01*
X-239735Y207697D01*
X-239731Y207675D01*
X-239742Y207557D01*
X-239749Y207438D01*
X-239756Y207417D01*
X-239758Y207394D01*
X-239802Y207284D01*
X-239841Y207172D01*
X-239854Y207155D01*
X-239863Y207132D01*
X-239977Y206986D01*
X-240023Y206923D01*
X-241962Y204984D01*
X-243033Y202399D01*
X-243033Y199596D01*
X-243073Y199317D01*
X-243078Y199305D01*
X-243079Y199294D01*
X-243222Y198845D01*
X-243258Y198769D01*
X-243286Y198690D01*
X-243317Y198647D01*
X-243344Y198591D01*
X-243418Y198509D01*
X-243468Y198441D01*
X-256781Y185127D01*
X-256807Y185108D01*
X-256828Y185083D01*
X-256920Y185023D01*
X-257007Y184958D01*
X-257037Y184946D01*
X-257064Y184929D01*
X-257169Y184897D01*
X-257271Y184858D01*
X-257303Y184856D01*
X-257334Y184846D01*
X-257443Y184845D01*
X-257552Y184836D01*
X-257584Y184843D01*
X-257616Y184842D01*
X-257721Y184872D01*
X-257828Y184894D01*
X-257857Y184909D01*
X-257888Y184918D01*
X-257981Y184975D01*
X-258077Y185026D01*
X-258100Y185049D01*
X-258128Y185066D01*
X-258201Y185147D01*
X-258279Y185223D01*
X-258295Y185251D01*
X-258317Y185275D01*
X-258364Y185373D01*
X-258418Y185469D01*
X-258426Y185500D01*
X-258440Y185529D01*
X-258454Y185618D01*
X-258483Y185743D01*
X-258481Y185791D01*
X-258487Y185833D01*
X-258487Y189490D01*
X-260813Y191815D01*
X-263852Y194854D01*
X-263857Y194862D01*
X-263865Y194867D01*
X-263942Y194974D01*
X-264021Y195080D01*
X-264024Y195088D01*
X-264030Y195096D01*
X-264074Y195220D01*
X-264120Y195343D01*
X-264121Y195353D01*
X-264124Y195362D01*
X-264132Y195493D01*
X-264142Y195625D01*
X-264140Y195634D01*
X-264141Y195643D01*
X-264123Y195719D01*
X-264085Y195901D01*
X-264073Y195922D01*
X-264068Y195943D01*
X-262967Y198601D01*
X-262967Y201399D01*
X-264038Y203984D01*
X-266016Y205962D01*
X-268601Y207033D01*
X-271399Y207033D01*
X-273984Y205962D01*
X-275962Y203984D01*
X-277033Y201399D01*
X-277033Y199709D01*
X-277041Y199650D01*
X-277041Y199639D01*
X-277042Y199637D01*
X-277041Y199581D01*
X-277062Y199506D01*
X-277073Y199429D01*
X-277099Y199371D01*
X-277116Y199309D01*
X-277157Y199243D01*
X-277189Y199172D01*
X-277231Y199124D01*
X-277264Y199069D01*
X-277322Y199017D01*
X-277372Y198958D01*
X-277426Y198923D01*
X-277474Y198880D01*
X-277543Y198846D01*
X-277608Y198804D01*
X-277670Y198785D01*
X-277727Y198757D01*
X-277797Y198746D01*
X-277878Y198721D01*
X-277963Y198720D01*
X-278032Y198709D01*
X-278722Y198709D01*
X-281307Y197639D01*
X-283285Y195660D01*
X-284356Y193075D01*
X-284356Y190278D01*
X-283285Y187693D01*
X-281307Y185715D01*
X-278722Y184644D01*
X-275925Y184644D01*
X-274157Y185376D01*
X-274148Y185378D01*
X-274139Y185383D01*
X-274010Y185414D01*
X-273884Y185446D01*
X-273874Y185446D01*
X-273865Y185448D01*
X-273732Y185441D01*
X-273602Y185437D01*
X-273593Y185434D01*
X-273583Y185434D01*
X-273459Y185391D01*
X-273334Y185350D01*
X-273326Y185344D01*
X-273317Y185341D01*
X-273255Y185296D01*
X-273101Y185191D01*
X-273085Y185172D01*
X-273068Y185159D01*
X-270461Y182553D01*
X-270404Y182476D01*
X-270339Y182405D01*
X-270319Y182364D01*
X-270292Y182327D01*
X-270258Y182237D01*
X-270216Y182151D01*
X-270210Y182109D01*
X-270193Y182064D01*
X-270183Y181943D01*
X-270181Y181935D01*
X-270181Y181922D01*
X-270169Y181846D01*
X-270169Y168106D01*
X-270186Y167989D01*
X-270197Y167871D01*
X-270205Y167850D01*
X-270209Y167827D01*
X-270257Y167719D01*
X-270301Y167609D01*
X-270315Y167591D01*
X-270325Y167570D01*
X-270402Y167480D01*
X-270475Y167387D01*
X-270493Y167373D01*
X-270508Y167356D01*
X-270608Y167291D01*
X-270704Y167222D01*
X-270725Y167214D01*
X-270744Y167202D01*
X-270858Y167167D01*
X-270969Y167127D01*
X-270992Y167126D01*
X-271014Y167119D01*
X-271132Y167118D01*
X-271251Y167111D01*
X-271272Y167116D01*
X-271296Y167115D01*
X-271475Y167165D01*
X-271550Y167183D01*
X-273601Y168033D01*
X-276399Y168033D01*
X-278984Y166962D01*
X-280962Y164984D01*
X-282033Y162399D01*
X-282033Y159596D01*
X-282073Y159317D01*
X-282078Y159305D01*
X-282079Y159294D01*
X-282222Y158845D01*
X-282258Y158769D01*
X-282286Y158690D01*
X-282317Y158647D01*
X-282344Y158591D01*
X-282418Y158509D01*
X-282468Y158441D01*
X-284071Y156838D01*
X-284071Y130340D01*
X-284080Y130276D01*
X-284079Y130212D01*
X-284100Y130137D01*
X-284111Y130061D01*
X-284137Y130002D01*
X-284154Y129940D01*
X-284195Y129874D01*
X-284227Y129804D01*
X-284269Y129755D01*
X-284302Y129700D01*
X-284360Y129648D01*
X-284410Y129590D01*
X-284464Y129554D01*
X-284512Y129511D01*
X-284581Y129478D01*
X-284601Y129465D01*
X-284601Y114300D01*
X-284601Y99259D01*
X-284015Y99259D01*
X-283369Y99432D01*
X-283312Y99465D01*
X-283213Y99505D01*
X-283117Y99552D01*
X-283085Y99557D01*
X-283051Y99571D01*
X-282903Y99585D01*
X-282813Y99599D01*
X-263387Y99599D01*
X-263282Y99584D01*
X-263175Y99577D01*
X-263145Y99565D01*
X-263108Y99559D01*
X-262973Y99498D01*
X-262888Y99465D01*
X-262831Y99432D01*
X-262185Y99259D01*
X-261599Y99259D01*
X-261599Y114300D01*
X-261599Y129467D01*
X-261666Y129497D01*
X-261715Y129539D01*
X-261770Y129572D01*
X-261822Y129630D01*
X-261880Y129680D01*
X-261916Y129734D01*
X-261959Y129782D01*
X-261992Y129851D01*
X-262035Y129916D01*
X-262054Y129978D01*
X-262082Y130035D01*
X-262093Y130105D01*
X-262117Y130186D01*
X-262118Y130271D01*
X-262129Y130340D01*
X-262129Y142142D01*
X-262116Y142237D01*
X-262111Y142333D01*
X-262096Y142376D01*
X-262089Y142421D01*
X-262050Y142508D01*
X-262018Y142599D01*
X-261993Y142634D01*
X-261973Y142678D01*
X-261890Y142775D01*
X-261837Y142848D01*
X-260777Y143908D01*
X-260751Y143928D01*
X-260730Y143952D01*
X-260638Y144012D01*
X-260551Y144078D01*
X-260521Y144089D01*
X-260494Y144107D01*
X-260389Y144139D01*
X-260287Y144177D01*
X-260255Y144180D01*
X-260224Y144189D01*
X-260115Y144190D01*
X-260006Y144199D01*
X-259974Y144192D01*
X-259942Y144193D01*
X-259837Y144164D01*
X-259730Y144141D01*
X-259701Y144126D01*
X-259670Y144118D01*
X-259577Y144060D01*
X-259481Y144009D01*
X-259458Y143986D01*
X-259430Y143969D01*
X-259357Y143889D01*
X-259279Y143812D01*
X-259263Y143784D01*
X-259241Y143760D01*
X-259194Y143662D01*
X-259140Y143567D01*
X-259132Y143535D01*
X-259118Y143506D01*
X-259104Y143417D01*
X-259075Y143292D01*
X-259077Y143244D01*
X-259071Y143202D01*
X-259071Y130340D01*
X-259080Y130276D01*
X-259079Y130212D01*
X-259100Y130137D01*
X-259111Y130061D01*
X-259137Y130002D01*
X-259154Y129940D01*
X-259195Y129874D01*
X-259227Y129804D01*
X-259269Y129755D01*
X-259302Y129700D01*
X-259360Y129648D01*
X-259410Y129590D01*
X-259464Y129554D01*
X-259512Y129511D01*
X-259581Y129478D01*
X-259601Y129465D01*
X-259601Y114300D01*
X-259601Y99259D01*
X-259015Y99259D01*
X-258369Y99432D01*
X-258312Y99465D01*
X-258213Y99505D01*
X-258117Y99552D01*
X-258085Y99557D01*
X-258051Y99571D01*
X-257903Y99585D01*
X-257813Y99599D01*
X-255070Y99599D01*
X-255006Y99590D01*
X-254942Y99591D01*
X-254867Y99570D01*
X-254791Y99559D01*
X-254732Y99533D01*
X-254670Y99516D01*
X-254604Y99475D01*
X-254534Y99443D01*
X-254485Y99401D01*
X-254430Y99368D01*
X-254378Y99310D01*
X-254320Y99260D01*
X-254284Y99206D01*
X-254241Y99158D01*
X-254208Y99089D01*
X-254165Y99024D01*
X-254146Y98962D01*
X-254118Y98905D01*
X-254107Y98835D01*
X-254083Y98754D01*
X-254082Y98669D01*
X-254071Y98600D01*
X-254071Y93501D01*
X-254079Y93441D01*
X-254078Y93381D01*
X-254099Y93302D01*
X-254111Y93222D01*
X-254135Y93167D01*
X-254151Y93109D01*
X-254190Y93046D01*
X-254227Y92965D01*
X-254279Y92904D01*
X-254315Y92847D01*
X-254422Y92724D01*
X-254480Y92673D01*
X-254531Y92615D01*
X-254582Y92584D01*
X-254634Y92539D01*
X-254726Y92496D01*
X-254795Y92455D01*
X-255984Y91962D01*
X-257962Y89984D01*
X-259033Y87399D01*
X-259033Y84601D01*
X-257962Y82016D01*
X-255913Y79967D01*
X-255905Y79962D01*
X-255854Y79908D01*
X-255843Y79897D01*
X-255841Y79894D01*
X-255824Y79876D01*
X-255738Y79793D01*
X-255727Y79773D01*
X-255712Y79756D01*
X-255658Y79651D01*
X-255599Y79547D01*
X-255594Y79525D01*
X-255584Y79505D01*
X-255562Y79389D01*
X-255534Y79273D01*
X-255536Y79250D01*
X-255531Y79228D01*
X-255543Y79110D01*
X-255549Y78991D01*
X-255556Y78970D01*
X-255558Y78947D01*
X-255602Y78837D01*
X-255641Y78725D01*
X-255654Y78707D01*
X-255663Y78685D01*
X-255778Y78538D01*
X-255823Y78476D01*
X-255962Y78337D01*
X-257033Y75752D01*
X-257033Y72954D01*
X-255962Y70369D01*
X-253984Y68391D01*
X-251399Y67320D01*
X-248601Y67320D01*
X-246016Y68391D01*
X-244038Y70369D01*
X-242967Y72954D01*
X-242967Y75757D01*
X-242927Y76037D01*
X-242922Y76048D01*
X-242921Y76059D01*
X-242778Y76508D01*
X-242742Y76584D01*
X-242714Y76663D01*
X-242683Y76706D01*
X-242656Y76762D01*
X-242582Y76844D01*
X-242532Y76912D01*
X-241994Y77451D01*
X-237129Y82315D01*
X-237129Y98260D01*
X-237120Y98324D01*
X-237121Y98388D01*
X-237100Y98463D01*
X-237089Y98539D01*
X-237063Y98598D01*
X-237046Y98660D01*
X-237005Y98726D01*
X-236973Y98796D01*
X-236931Y98845D01*
X-236898Y98900D01*
X-236840Y98952D01*
X-236790Y99010D01*
X-236736Y99046D01*
X-236688Y99089D01*
X-236619Y99122D01*
X-236599Y99135D01*
X-236599Y114300D01*
X-236599Y129467D01*
X-236666Y129497D01*
X-236715Y129539D01*
X-236770Y129572D01*
X-236822Y129630D01*
X-236880Y129680D01*
X-236916Y129734D01*
X-236959Y129782D01*
X-236992Y129851D01*
X-237035Y129916D01*
X-237054Y129978D01*
X-237082Y130035D01*
X-237093Y130105D01*
X-237117Y130186D01*
X-237118Y130271D01*
X-237129Y130340D01*
X-237129Y133318D01*
X-239162Y135351D01*
X-240329Y135351D01*
X-240361Y135355D01*
X-240393Y135353D01*
X-240500Y135375D01*
X-240608Y135391D01*
X-240637Y135404D01*
X-240669Y135410D01*
X-240766Y135462D01*
X-240865Y135507D01*
X-240889Y135528D01*
X-240918Y135543D01*
X-240996Y135619D01*
X-241079Y135690D01*
X-241097Y135717D01*
X-241120Y135740D01*
X-241174Y135834D01*
X-241234Y135926D01*
X-241243Y135957D01*
X-241259Y135985D01*
X-241284Y136091D01*
X-241316Y136196D01*
X-241317Y136228D01*
X-241324Y136259D01*
X-241318Y136369D01*
X-241320Y136478D01*
X-241311Y136509D01*
X-241310Y136541D01*
X-241274Y136644D01*
X-241245Y136750D01*
X-241228Y136777D01*
X-241217Y136808D01*
X-241164Y136881D01*
X-241097Y136990D01*
X-241061Y137022D01*
X-241035Y137057D01*
X-239559Y138532D01*
X-239492Y138583D01*
X-239431Y138641D01*
X-239383Y138665D01*
X-239334Y138702D01*
X-239231Y138741D01*
X-239155Y138778D01*
X-238706Y138921D01*
X-238428Y138967D01*
X-238416Y138966D01*
X-238404Y138967D01*
X-235601Y138967D01*
X-233016Y140038D01*
X-231038Y142016D01*
X-229967Y144601D01*
X-229967Y147399D01*
X-231038Y149984D01*
X-233016Y151962D01*
X-235601Y153033D01*
X-236968Y153033D01*
X-237032Y153042D01*
X-237096Y153041D01*
X-237171Y153062D01*
X-237247Y153073D01*
X-237306Y153099D01*
X-237368Y153116D01*
X-237434Y153157D01*
X-237504Y153189D01*
X-237553Y153231D01*
X-237608Y153264D01*
X-237660Y153322D01*
X-237718Y153372D01*
X-237754Y153426D01*
X-237797Y153474D01*
X-237830Y153543D01*
X-237873Y153608D01*
X-237892Y153670D01*
X-237920Y153727D01*
X-237931Y153797D01*
X-237955Y153878D01*
X-237956Y153963D01*
X-237967Y154032D01*
X-237967Y156399D01*
X-239038Y158984D01*
X-241016Y160962D01*
X-243601Y162033D01*
X-246399Y162033D01*
X-248984Y160962D01*
X-250962Y158984D01*
X-251825Y156901D01*
X-251869Y156826D01*
X-251905Y156747D01*
X-251940Y156705D01*
X-251968Y156658D01*
X-252032Y156599D01*
X-252088Y156533D01*
X-252134Y156503D01*
X-252174Y156465D01*
X-252251Y156426D01*
X-252324Y156378D01*
X-252377Y156362D01*
X-252426Y156337D01*
X-252511Y156321D01*
X-252594Y156296D01*
X-252649Y156295D01*
X-252703Y156285D01*
X-252789Y156293D01*
X-252876Y156292D01*
X-252929Y156307D01*
X-252983Y156312D01*
X-253064Y156344D01*
X-253148Y156367D01*
X-253195Y156396D01*
X-253245Y156417D01*
X-253314Y156470D01*
X-253388Y156516D01*
X-253424Y156556D01*
X-253468Y156590D01*
X-253519Y156660D01*
X-253577Y156725D01*
X-253601Y156774D01*
X-253633Y156819D01*
X-253662Y156901D01*
X-253700Y156979D01*
X-253708Y157029D01*
X-253727Y157084D01*
X-253734Y157198D01*
X-253747Y157283D01*
X-253747Y177930D01*
X-253734Y178025D01*
X-253729Y178122D01*
X-253714Y178165D01*
X-253707Y178210D01*
X-253668Y178297D01*
X-253636Y178388D01*
X-253611Y178422D01*
X-253591Y178467D01*
X-253508Y178564D01*
X-253455Y178637D01*
X-238559Y193532D01*
X-238492Y193583D01*
X-238431Y193641D01*
X-238383Y193665D01*
X-238334Y193702D01*
X-238230Y193741D01*
X-238155Y193778D01*
X-237706Y193921D01*
X-237428Y193967D01*
X-237415Y193966D01*
X-237404Y193967D01*
X-234601Y193967D01*
X-232016Y195038D01*
X-230038Y197016D01*
X-228967Y199601D01*
X-228967Y202399D01*
X-230038Y204984D01*
X-232016Y206962D01*
X-234153Y207847D01*
X-234234Y207895D01*
X-234283Y207917D01*
X-234298Y207931D01*
X-234360Y207963D01*
X-234376Y207979D01*
X-234396Y207991D01*
X-234477Y208077D01*
X-234562Y208160D01*
X-234573Y208180D01*
X-234589Y208197D01*
X-234642Y208302D01*
X-234701Y208405D01*
X-234706Y208428D01*
X-234717Y208448D01*
X-234739Y208564D01*
X-234766Y208680D01*
X-234765Y208703D01*
X-234769Y208725D01*
X-234758Y208843D01*
X-234751Y208962D01*
X-234744Y208983D01*
X-234742Y209006D01*
X-234698Y209116D01*
X-234659Y209228D01*
X-234646Y209245D01*
X-234637Y209268D01*
X-234523Y209414D01*
X-234477Y209477D01*
X-232538Y211416D01*
X-231467Y214001D01*
X-231467Y215790D01*
X-231459Y215851D01*
X-231459Y215883D01*
X-231459Y215885D01*
X-231459Y215918D01*
X-231438Y215993D01*
X-231427Y216069D01*
X-231401Y216128D01*
X-231384Y216190D01*
X-231343Y216256D01*
X-231311Y216326D01*
X-231269Y216375D01*
X-231236Y216430D01*
X-231178Y216482D01*
X-231128Y216540D01*
X-231074Y216576D01*
X-231026Y216619D01*
X-230957Y216652D01*
X-230892Y216695D01*
X-230830Y216714D01*
X-230773Y216742D01*
X-230703Y216753D01*
X-230622Y216777D01*
X-230537Y216778D01*
X-230468Y216789D01*
X-181599Y216789D01*
X-60029Y338359D01*
X-60029Y345100D01*
X-60020Y345164D01*
X-60021Y345228D01*
X-60000Y345303D01*
X-59989Y345379D01*
X-59963Y345438D01*
X-59946Y345500D01*
X-59905Y345566D01*
X-59873Y345636D01*
X-59831Y345685D01*
X-59798Y345740D01*
X-59740Y345792D01*
X-59690Y345850D01*
X-59636Y345886D01*
X-59588Y345929D01*
X-59519Y345962D01*
X-59454Y346005D01*
X-59392Y346024D01*
X-59335Y346052D01*
X-59265Y346063D01*
X-59184Y346087D01*
X-59099Y346088D01*
X-59030Y346099D01*
X-56238Y346099D01*
X-54949Y347388D01*
X-54949Y389212D01*
X-56238Y390501D01*
X-70762Y390501D01*
X-72051Y389212D01*
X-72051Y347388D01*
X-70762Y346099D01*
X-67970Y346099D01*
X-67906Y346090D01*
X-67842Y346091D01*
X-67767Y346070D01*
X-67691Y346059D01*
X-67632Y346033D01*
X-67570Y346016D01*
X-67504Y345975D01*
X-67434Y345943D01*
X-67385Y345901D01*
X-67330Y345868D01*
X-67278Y345810D01*
X-67220Y345760D01*
X-67184Y345706D01*
X-67141Y345658D01*
X-67108Y345589D01*
X-67065Y345524D01*
X-67046Y345462D01*
X-67018Y345405D01*
X-67007Y345335D01*
X-66983Y345254D01*
X-66982Y345169D01*
X-66971Y345100D01*
X-66971Y341648D01*
X-66980Y341586D01*
X-66979Y341533D01*
X-66987Y341505D01*
X-66989Y341457D01*
X-67004Y341414D01*
X-67011Y341369D01*
X-67046Y341291D01*
X-67054Y341261D01*
X-67061Y341249D01*
X-67082Y341191D01*
X-67107Y341156D01*
X-67127Y341112D01*
X-67196Y341031D01*
X-67202Y341021D01*
X-67212Y341012D01*
X-67263Y340942D01*
X-83723Y324482D01*
X-83749Y324462D01*
X-83770Y324438D01*
X-83862Y324378D01*
X-83949Y324312D01*
X-83979Y324301D01*
X-84006Y324283D01*
X-84111Y324251D01*
X-84213Y324213D01*
X-84245Y324210D01*
X-84276Y324201D01*
X-84385Y324199D01*
X-84494Y324191D01*
X-84526Y324198D01*
X-84558Y324197D01*
X-84663Y324226D01*
X-84770Y324249D01*
X-84799Y324264D01*
X-84830Y324272D01*
X-84923Y324330D01*
X-85019Y324381D01*
X-85042Y324403D01*
X-85070Y324420D01*
X-85143Y324502D01*
X-85221Y324578D01*
X-85237Y324606D01*
X-85259Y324630D01*
X-85306Y324728D01*
X-85360Y324823D01*
X-85368Y324855D01*
X-85382Y324884D01*
X-85396Y324973D01*
X-85425Y325098D01*
X-85423Y325146D01*
X-85429Y325188D01*
X-85429Y345100D01*
X-85420Y345164D01*
X-85421Y345228D01*
X-85400Y345303D01*
X-85389Y345379D01*
X-85363Y345438D01*
X-85346Y345500D01*
X-85305Y345566D01*
X-85273Y345636D01*
X-85231Y345685D01*
X-85198Y345740D01*
X-85140Y345792D01*
X-85090Y345850D01*
X-85036Y345886D01*
X-84988Y345929D01*
X-84919Y345962D01*
X-84854Y346005D01*
X-84792Y346024D01*
X-84735Y346052D01*
X-84665Y346063D01*
X-84584Y346087D01*
X-84499Y346088D01*
X-84430Y346099D01*
X-81638Y346099D01*
X-80349Y347388D01*
X-80349Y389212D01*
X-81638Y390501D01*
X-96162Y390501D01*
X-97451Y389212D01*
X-97451Y347388D01*
X-96162Y346099D01*
X-93370Y346099D01*
X-93306Y346090D01*
X-93242Y346091D01*
X-93167Y346070D01*
X-93091Y346059D01*
X-93032Y346033D01*
X-92970Y346016D01*
X-92904Y345975D01*
X-92834Y345943D01*
X-92785Y345901D01*
X-92730Y345868D01*
X-92678Y345810D01*
X-92620Y345760D01*
X-92584Y345706D01*
X-92541Y345658D01*
X-92508Y345589D01*
X-92465Y345524D01*
X-92446Y345462D01*
X-92418Y345405D01*
X-92407Y345335D01*
X-92383Y345254D01*
X-92382Y345169D01*
X-92371Y345100D01*
X-92371Y322952D01*
X-92384Y322857D01*
X-92389Y322760D01*
X-92404Y322717D01*
X-92411Y322672D01*
X-92450Y322585D01*
X-92482Y322494D01*
X-92507Y322460D01*
X-92527Y322415D01*
X-92610Y322318D01*
X-92663Y322245D01*
X-109123Y305785D01*
X-109149Y305766D01*
X-109170Y305741D01*
X-109262Y305681D01*
X-109349Y305616D01*
X-109379Y305604D01*
X-109406Y305587D01*
X-109511Y305555D01*
X-109613Y305516D01*
X-109645Y305514D01*
X-109676Y305504D01*
X-109785Y305503D01*
X-109894Y305494D01*
X-109926Y305501D01*
X-109958Y305500D01*
X-110063Y305530D01*
X-110170Y305552D01*
X-110199Y305567D01*
X-110230Y305576D01*
X-110323Y305633D01*
X-110419Y305684D01*
X-110442Y305707D01*
X-110470Y305724D01*
X-110543Y305805D01*
X-110621Y305881D01*
X-110637Y305909D01*
X-110659Y305933D01*
X-110706Y306031D01*
X-110760Y306127D01*
X-110768Y306158D01*
X-110782Y306187D01*
X-110796Y306276D01*
X-110825Y306401D01*
X-110823Y306449D01*
X-110829Y306491D01*
X-110829Y345100D01*
X-110820Y345164D01*
X-110821Y345228D01*
X-110800Y345303D01*
X-110789Y345379D01*
X-110763Y345438D01*
X-110746Y345500D01*
X-110705Y345566D01*
X-110673Y345636D01*
X-110631Y345685D01*
X-110598Y345740D01*
X-110540Y345792D01*
X-110490Y345850D01*
X-110436Y345886D01*
X-110388Y345929D01*
X-110319Y345962D01*
X-110254Y346005D01*
X-110192Y346024D01*
X-110135Y346052D01*
X-110065Y346063D01*
X-109984Y346087D01*
X-109899Y346088D01*
X-109830Y346099D01*
X-107038Y346099D01*
X-105749Y347388D01*
X-105749Y389212D01*
X-107038Y390501D01*
X-121562Y390501D01*
X-122851Y389212D01*
X-122851Y347388D01*
X-121562Y346099D01*
X-118770Y346099D01*
X-118706Y346090D01*
X-118642Y346091D01*
X-118567Y346070D01*
X-118491Y346059D01*
X-118432Y346033D01*
X-118370Y346016D01*
X-118304Y345975D01*
X-118234Y345943D01*
X-118185Y345901D01*
X-118130Y345868D01*
X-118078Y345810D01*
X-118020Y345760D01*
X-117984Y345706D01*
X-117941Y345658D01*
X-117908Y345589D01*
X-117865Y345524D01*
X-117846Y345462D01*
X-117818Y345405D01*
X-117807Y345335D01*
X-117783Y345254D01*
X-117782Y345169D01*
X-117771Y345100D01*
X-117771Y305107D01*
X-117784Y305012D01*
X-117789Y304916D01*
X-117804Y304873D01*
X-117811Y304828D01*
X-117850Y304741D01*
X-117882Y304650D01*
X-117907Y304615D01*
X-117927Y304571D01*
X-118010Y304474D01*
X-118063Y304401D01*
X-135301Y287163D01*
X-135378Y287106D01*
X-135449Y287041D01*
X-135490Y287021D01*
X-135526Y286994D01*
X-135616Y286960D01*
X-135703Y286918D01*
X-135745Y286912D01*
X-135790Y286895D01*
X-135918Y286885D01*
X-136007Y286871D01*
X-144068Y286871D01*
X-144100Y286875D01*
X-144132Y286873D01*
X-144239Y286895D01*
X-144347Y286911D01*
X-144376Y286924D01*
X-144408Y286930D01*
X-144504Y286982D01*
X-144604Y287027D01*
X-144628Y287048D01*
X-144657Y287063D01*
X-144735Y287139D01*
X-144818Y287210D01*
X-144836Y287237D01*
X-144859Y287260D01*
X-144913Y287355D01*
X-144973Y287446D01*
X-144982Y287477D01*
X-144998Y287505D01*
X-145023Y287612D01*
X-145055Y287716D01*
X-145055Y287748D01*
X-145063Y287779D01*
X-145057Y287889D01*
X-145059Y287998D01*
X-145050Y288029D01*
X-145049Y288061D01*
X-145013Y288164D01*
X-144984Y288270D01*
X-144967Y288297D01*
X-144956Y288328D01*
X-144903Y288401D01*
X-144835Y288510D01*
X-144799Y288542D01*
X-144774Y288577D01*
X-138555Y294796D01*
X-136229Y297122D01*
X-136229Y345100D01*
X-136220Y345164D01*
X-136221Y345228D01*
X-136200Y345303D01*
X-136189Y345379D01*
X-136163Y345438D01*
X-136146Y345500D01*
X-136105Y345566D01*
X-136073Y345636D01*
X-136031Y345685D01*
X-135998Y345740D01*
X-135940Y345792D01*
X-135890Y345850D01*
X-135836Y345886D01*
X-135788Y345929D01*
X-135719Y345962D01*
X-135654Y346005D01*
X-135592Y346024D01*
X-135535Y346052D01*
X-135465Y346063D01*
X-135384Y346087D01*
X-135299Y346088D01*
X-135230Y346099D01*
X-132438Y346099D01*
X-131149Y347388D01*
X-131149Y389212D01*
X-132438Y390501D01*
X-146962Y390501D01*
X-148251Y389212D01*
X-148251Y347388D01*
X-146962Y346099D01*
X-144170Y346099D01*
X-144106Y346090D01*
X-144042Y346091D01*
X-143967Y346070D01*
X-143891Y346059D01*
X-143832Y346033D01*
X-143770Y346016D01*
X-143704Y345975D01*
X-143634Y345943D01*
X-143585Y345901D01*
X-143530Y345868D01*
X-143478Y345810D01*
X-143420Y345760D01*
X-143384Y345706D01*
X-143341Y345658D01*
X-143308Y345589D01*
X-143265Y345524D01*
X-143246Y345462D01*
X-143218Y345405D01*
X-143207Y345335D01*
X-143183Y345254D01*
X-143182Y345169D01*
X-143171Y345100D01*
X-143171Y334529D01*
X-143175Y334497D01*
X-143173Y334465D01*
X-143195Y334358D01*
X-143211Y334250D01*
X-143224Y334220D01*
X-143230Y334189D01*
X-143282Y334092D01*
X-143327Y333993D01*
X-143348Y333968D01*
X-143363Y333940D01*
X-143439Y333861D01*
X-143510Y333778D01*
X-143537Y333761D01*
X-143560Y333738D01*
X-143655Y333684D01*
X-143746Y333624D01*
X-143777Y333615D01*
X-143805Y333599D01*
X-143911Y333574D01*
X-144016Y333542D01*
X-144048Y333541D01*
X-144080Y333534D01*
X-144189Y333539D01*
X-144298Y333538D01*
X-144329Y333546D01*
X-144361Y333548D01*
X-144464Y333584D01*
X-144570Y333613D01*
X-144597Y333630D01*
X-144628Y333641D01*
X-144701Y333694D01*
X-144810Y333761D01*
X-144842Y333797D01*
X-144877Y333822D01*
X-145016Y333962D01*
X-147601Y335033D01*
X-150399Y335033D01*
X-152984Y333962D01*
X-154962Y331984D01*
X-156033Y329399D01*
X-156033Y328391D01*
X-156037Y328359D01*
X-156035Y328327D01*
X-156057Y328220D01*
X-156073Y328112D01*
X-156086Y328082D01*
X-156092Y328051D01*
X-156144Y327954D01*
X-156189Y327855D01*
X-156210Y327830D01*
X-156225Y327802D01*
X-156301Y327724D01*
X-156372Y327640D01*
X-156399Y327623D01*
X-156422Y327600D01*
X-156517Y327546D01*
X-156608Y327486D01*
X-156639Y327477D01*
X-156667Y327461D01*
X-156773Y327436D01*
X-156878Y327404D01*
X-156910Y327403D01*
X-156941Y327396D01*
X-157051Y327401D01*
X-157160Y327400D01*
X-157191Y327408D01*
X-157223Y327410D01*
X-157326Y327446D01*
X-157432Y327475D01*
X-157459Y327492D01*
X-157490Y327503D01*
X-157563Y327556D01*
X-157672Y327623D01*
X-157704Y327659D01*
X-157739Y327684D01*
X-159016Y328962D01*
X-161601Y330033D01*
X-162468Y330033D01*
X-162532Y330042D01*
X-162596Y330041D01*
X-162671Y330062D01*
X-162747Y330073D01*
X-162806Y330099D01*
X-162868Y330116D01*
X-162934Y330157D01*
X-163004Y330189D01*
X-163053Y330231D01*
X-163108Y330264D01*
X-163160Y330322D01*
X-163218Y330372D01*
X-163254Y330426D01*
X-163297Y330474D01*
X-163330Y330543D01*
X-163373Y330608D01*
X-163392Y330670D01*
X-163420Y330727D01*
X-163431Y330797D01*
X-163455Y330878D01*
X-163456Y330963D01*
X-163467Y331032D01*
X-163467Y332899D01*
X-164538Y335484D01*
X-166516Y337462D01*
X-169101Y338533D01*
X-171899Y338533D01*
X-174484Y337462D01*
X-175293Y336652D01*
X-175345Y336614D01*
X-175390Y336568D01*
X-175457Y336530D01*
X-175519Y336483D01*
X-175579Y336460D01*
X-175635Y336429D01*
X-175710Y336411D01*
X-175783Y336384D01*
X-175847Y336379D01*
X-175910Y336364D01*
X-175987Y336368D01*
X-176064Y336362D01*
X-176127Y336375D01*
X-176191Y336378D01*
X-176264Y336404D01*
X-176340Y336419D01*
X-176397Y336450D01*
X-176458Y336471D01*
X-176514Y336512D01*
X-176589Y336552D01*
X-176650Y336611D01*
X-176707Y336652D01*
X-178016Y337962D01*
X-180601Y339033D01*
X-183399Y339033D01*
X-185648Y338101D01*
X-185762Y338072D01*
X-185876Y338037D01*
X-185899Y338037D01*
X-185921Y338031D01*
X-186039Y338035D01*
X-186158Y338033D01*
X-186180Y338040D01*
X-186203Y338040D01*
X-186315Y338077D01*
X-186430Y338109D01*
X-186449Y338121D01*
X-186471Y338128D01*
X-186569Y338194D01*
X-186670Y338257D01*
X-186685Y338274D01*
X-186704Y338287D01*
X-186779Y338378D01*
X-186859Y338466D01*
X-186869Y338487D01*
X-186883Y338504D01*
X-186930Y338613D01*
X-186982Y338720D01*
X-186985Y338741D01*
X-186995Y338763D01*
X-187017Y338948D01*
X-187029Y339024D01*
X-187029Y345100D01*
X-187020Y345164D01*
X-187021Y345228D01*
X-187000Y345303D01*
X-186989Y345379D01*
X-186963Y345438D01*
X-186946Y345500D01*
X-186905Y345566D01*
X-186873Y345636D01*
X-186831Y345685D01*
X-186798Y345740D01*
X-186740Y345792D01*
X-186690Y345850D01*
X-186636Y345886D01*
X-186588Y345929D01*
X-186519Y345962D01*
X-186454Y346005D01*
X-186392Y346024D01*
X-186335Y346052D01*
X-186265Y346063D01*
X-186184Y346087D01*
X-186099Y346088D01*
X-186030Y346099D01*
X-183238Y346099D01*
X-181949Y347388D01*
X-181949Y389212D01*
X-183238Y390501D01*
X-197762Y390501D01*
X-199051Y389212D01*
X-199051Y347388D01*
X-197762Y346099D01*
X-194970Y346099D01*
X-194906Y346090D01*
X-194842Y346091D01*
X-194767Y346070D01*
X-194691Y346059D01*
X-194632Y346033D01*
X-194570Y346016D01*
X-194504Y345975D01*
X-194434Y345943D01*
X-194385Y345901D01*
X-194330Y345868D01*
X-194278Y345810D01*
X-194220Y345760D01*
X-194184Y345706D01*
X-194141Y345658D01*
X-194108Y345589D01*
X-194065Y345524D01*
X-194046Y345462D01*
X-194018Y345405D01*
X-194007Y345335D01*
X-193983Y345254D01*
X-193982Y345169D01*
X-193971Y345100D01*
X-193971Y340611D01*
X-193979Y340551D01*
X-193979Y340533D01*
X-193984Y340514D01*
X-193989Y340420D01*
X-194004Y340376D01*
X-194011Y340332D01*
X-194050Y340244D01*
X-194082Y340153D01*
X-194107Y340119D01*
X-194127Y340075D01*
X-194210Y339977D01*
X-194263Y339904D01*
X-213823Y320344D01*
X-213849Y320325D01*
X-213870Y320300D01*
X-213962Y320240D01*
X-214049Y320175D01*
X-214079Y320163D01*
X-214106Y320146D01*
X-214211Y320114D01*
X-214313Y320075D01*
X-214345Y320073D01*
X-214376Y320063D01*
X-214485Y320062D01*
X-214594Y320053D01*
X-214626Y320060D01*
X-214658Y320060D01*
X-214763Y320089D01*
X-214870Y320111D01*
X-214899Y320126D01*
X-214930Y320135D01*
X-215023Y320192D01*
X-215119Y320244D01*
X-215142Y320266D01*
X-215170Y320283D01*
X-215243Y320364D01*
X-215321Y320440D01*
X-215337Y320468D01*
X-215359Y320492D01*
X-215406Y320591D01*
X-215460Y320686D01*
X-215468Y320717D01*
X-215482Y320746D01*
X-215496Y320835D01*
X-215525Y320960D01*
X-215523Y321009D01*
X-215529Y321051D01*
X-215529Y323910D01*
X-215517Y323993D01*
X-215515Y324078D01*
X-215498Y324128D01*
X-215489Y324189D01*
X-215444Y324289D01*
X-215417Y324370D01*
X-215201Y324788D01*
X-215037Y325017D01*
X-215027Y325025D01*
X-215020Y325034D01*
X-213038Y327016D01*
X-211967Y329601D01*
X-211967Y332399D01*
X-213038Y334984D01*
X-215016Y336962D01*
X-217601Y338033D01*
X-220399Y338033D01*
X-222984Y336962D01*
X-224962Y334984D01*
X-226033Y332399D01*
X-226033Y329601D01*
X-224962Y327016D01*
X-222982Y325036D01*
X-222980Y325034D01*
X-222811Y324809D01*
X-222806Y324797D01*
X-222799Y324788D01*
X-222583Y324370D01*
X-222555Y324290D01*
X-222518Y324215D01*
X-222510Y324162D01*
X-222490Y324104D01*
X-222484Y323994D01*
X-222478Y323953D01*
X-222475Y323942D01*
X-222475Y323938D01*
X-222471Y323910D01*
X-222471Y323852D01*
X-222475Y323824D01*
X-222475Y323822D01*
X-222475Y323819D01*
X-222484Y323757D01*
X-222489Y323660D01*
X-222504Y323617D01*
X-222511Y323572D01*
X-222550Y323485D01*
X-222582Y323394D01*
X-222607Y323360D01*
X-222627Y323315D01*
X-222710Y323218D01*
X-222763Y323145D01*
X-227441Y318468D01*
X-227508Y318417D01*
X-227569Y318359D01*
X-227617Y318335D01*
X-227666Y318298D01*
X-227769Y318259D01*
X-227845Y318222D01*
X-228294Y318079D01*
X-228572Y318033D01*
X-228585Y318034D01*
X-228596Y318033D01*
X-231399Y318033D01*
X-233984Y316962D01*
X-235962Y314984D01*
X-237033Y312399D01*
X-237033Y309601D01*
X-235962Y307016D01*
X-234122Y305177D01*
X-234103Y305151D01*
X-234078Y305130D01*
X-234018Y305038D01*
X-233953Y304951D01*
X-233942Y304921D01*
X-233924Y304894D01*
X-233892Y304789D01*
X-233854Y304687D01*
X-233851Y304655D01*
X-233842Y304624D01*
X-233840Y304515D01*
X-233832Y304406D01*
X-233838Y304374D01*
X-233838Y304342D01*
X-233867Y304237D01*
X-233889Y304130D01*
X-233904Y304101D01*
X-233913Y304070D01*
X-233971Y303977D01*
X-234022Y303881D01*
X-234044Y303858D01*
X-234061Y303830D01*
X-234142Y303757D01*
X-234219Y303679D01*
X-234247Y303663D01*
X-234271Y303641D01*
X-234369Y303594D01*
X-234464Y303540D01*
X-234495Y303532D01*
X-234524Y303518D01*
X-234614Y303504D01*
X-234738Y303475D01*
X-234787Y303477D01*
X-234829Y303471D01*
X-252968Y303471D01*
X-253032Y303480D01*
X-253096Y303479D01*
X-253171Y303500D01*
X-253247Y303511D01*
X-253306Y303537D01*
X-253368Y303554D01*
X-253434Y303595D01*
X-253504Y303627D01*
X-253553Y303669D01*
X-253608Y303702D01*
X-253660Y303760D01*
X-253718Y303810D01*
X-253754Y303864D01*
X-253797Y303912D01*
X-253830Y303981D01*
X-253873Y304046D01*
X-253892Y304108D01*
X-253920Y304165D01*
X-253931Y304235D01*
X-253955Y304316D01*
X-253956Y304372D01*
X-255038Y306984D01*
X-255316Y307261D01*
X-255335Y307287D01*
X-255360Y307308D01*
X-255419Y307400D01*
X-255485Y307487D01*
X-255496Y307517D01*
X-255514Y307544D01*
X-255546Y307649D01*
X-255584Y307751D01*
X-255587Y307783D01*
X-255596Y307814D01*
X-255598Y307923D01*
X-255606Y308032D01*
X-255600Y308064D01*
X-255600Y308096D01*
X-255571Y308201D01*
X-255549Y308308D01*
X-255534Y308337D01*
X-255525Y308368D01*
X-255467Y308461D01*
X-255416Y308557D01*
X-255394Y308580D01*
X-255377Y308608D01*
X-255296Y308681D01*
X-255219Y308759D01*
X-255191Y308775D01*
X-255167Y308797D01*
X-255069Y308844D01*
X-254974Y308898D01*
X-254943Y308906D01*
X-254914Y308920D01*
X-254824Y308934D01*
X-254700Y308963D01*
X-254651Y308961D01*
X-254609Y308967D01*
X-253601Y308967D01*
X-251016Y310038D01*
X-249038Y312016D01*
X-247967Y314601D01*
X-247967Y316206D01*
X-247959Y316263D01*
X-247961Y316321D01*
X-247941Y316394D01*
X-247927Y316485D01*
X-247896Y316555D01*
X-247878Y316618D01*
X-247461Y317540D01*
X-247447Y317561D01*
X-247439Y317585D01*
X-247385Y317660D01*
X-247309Y317778D01*
X-247279Y317805D01*
X-247257Y317834D01*
X-219285Y345807D01*
X-219208Y345864D01*
X-219137Y345929D01*
X-219096Y345949D01*
X-219059Y345976D01*
X-218969Y346010D01*
X-218883Y346052D01*
X-218841Y346058D01*
X-218796Y346075D01*
X-218668Y346085D01*
X-218578Y346099D01*
X-208638Y346099D01*
X-207349Y347388D01*
X-207349Y389212D01*
X-208638Y390501D01*
X-223162Y390501D01*
X-224451Y389212D01*
X-224451Y350872D01*
X-224464Y350777D01*
X-224469Y350680D01*
X-224484Y350637D01*
X-224491Y350592D01*
X-224530Y350505D01*
X-224562Y350414D01*
X-224587Y350380D01*
X-224607Y350335D01*
X-224690Y350238D01*
X-224743Y350165D01*
X-251769Y323139D01*
X-251771Y323138D01*
X-251772Y323136D01*
X-251885Y323052D01*
X-251995Y322970D01*
X-251997Y322969D01*
X-251998Y322968D01*
X-252025Y322958D01*
X-252259Y322870D01*
X-252275Y322869D01*
X-252288Y322864D01*
X-252614Y322802D01*
X-252748Y322795D01*
X-252884Y322787D01*
X-252890Y322789D01*
X-252896Y322788D01*
X-253170Y322854D01*
X-253177Y322858D01*
X-253184Y322860D01*
X-253250Y322887D01*
X-253352Y322948D01*
X-253457Y323003D01*
X-253473Y323019D01*
X-253493Y323031D01*
X-253574Y323117D01*
X-253659Y323200D01*
X-253670Y323220D01*
X-253686Y323237D01*
X-253740Y323342D01*
X-253798Y323446D01*
X-253803Y323468D01*
X-253814Y323488D01*
X-253836Y323604D01*
X-253863Y323720D01*
X-253862Y323743D01*
X-253866Y323765D01*
X-253855Y323883D01*
X-253849Y324002D01*
X-253841Y324023D01*
X-253839Y324046D01*
X-253795Y324156D01*
X-253756Y324268D01*
X-253743Y324286D01*
X-253735Y324308D01*
X-253620Y324455D01*
X-253574Y324517D01*
X-237829Y340262D01*
X-237829Y345100D01*
X-237820Y345164D01*
X-237821Y345228D01*
X-237800Y345303D01*
X-237789Y345379D01*
X-237763Y345438D01*
X-237746Y345500D01*
X-237705Y345566D01*
X-237673Y345636D01*
X-237631Y345685D01*
X-237598Y345740D01*
X-237540Y345792D01*
X-237490Y345850D01*
X-237436Y345886D01*
X-237388Y345929D01*
X-237319Y345962D01*
X-237254Y346005D01*
X-237192Y346024D01*
X-237135Y346052D01*
X-237065Y346063D01*
X-236984Y346087D01*
X-236899Y346088D01*
X-236830Y346099D01*
X-234038Y346099D01*
X-232749Y347388D01*
X-232749Y389212D01*
X-234038Y390501D01*
X-248562Y390501D01*
X-249851Y389212D01*
X-249851Y347388D01*
X-248562Y346099D01*
X-245770Y346099D01*
X-245706Y346090D01*
X-245642Y346091D01*
X-245567Y346070D01*
X-245491Y346059D01*
X-245432Y346033D01*
X-245370Y346016D01*
X-245304Y345975D01*
X-245234Y345943D01*
X-245185Y345901D01*
X-245130Y345868D01*
X-245078Y345810D01*
X-245020Y345760D01*
X-244984Y345706D01*
X-244941Y345658D01*
X-244908Y345589D01*
X-244865Y345524D01*
X-244846Y345462D01*
X-244818Y345405D01*
X-244807Y345335D01*
X-244783Y345254D01*
X-244782Y345169D01*
X-244771Y345100D01*
X-244771Y343552D01*
X-244784Y343457D01*
X-244789Y343360D01*
X-244804Y343317D01*
X-244811Y343272D01*
X-244850Y343185D01*
X-244882Y343094D01*
X-244907Y343060D01*
X-244927Y343015D01*
X-245010Y342918D01*
X-245063Y342845D01*
X-261523Y326385D01*
X-261549Y326366D01*
X-261570Y326341D01*
X-261662Y326281D01*
X-261749Y326216D01*
X-261779Y326204D01*
X-261806Y326187D01*
X-261911Y326155D01*
X-262013Y326116D01*
X-262045Y326114D01*
X-262076Y326104D01*
X-262185Y326103D01*
X-262294Y326094D01*
X-262326Y326101D01*
X-262358Y326100D01*
X-262463Y326130D01*
X-262570Y326152D01*
X-262599Y326167D01*
X-262630Y326176D01*
X-262723Y326233D01*
X-262819Y326284D01*
X-262842Y326307D01*
X-262870Y326324D01*
X-262943Y326405D01*
X-263021Y326481D01*
X-263037Y326509D01*
X-263059Y326533D01*
X-263106Y326631D01*
X-263160Y326727D01*
X-263168Y326758D01*
X-263182Y326787D01*
X-263196Y326876D01*
X-263225Y327001D01*
X-263223Y327049D01*
X-263229Y327091D01*
X-263229Y345100D01*
X-263220Y345164D01*
X-263221Y345228D01*
X-263200Y345303D01*
X-263189Y345379D01*
X-263163Y345438D01*
X-263146Y345500D01*
X-263105Y345566D01*
X-263073Y345636D01*
X-263031Y345685D01*
X-262998Y345740D01*
X-262940Y345792D01*
X-262890Y345850D01*
X-262836Y345886D01*
X-262788Y345929D01*
X-262719Y345962D01*
X-262654Y346005D01*
X-262592Y346024D01*
X-262535Y346052D01*
X-262465Y346063D01*
X-262384Y346087D01*
X-262299Y346088D01*
X-262230Y346099D01*
X-259438Y346099D01*
X-258149Y347388D01*
X-258149Y389212D01*
X-259438Y390501D01*
X-273962Y390501D01*
X-275251Y389212D01*
X-275251Y347388D01*
X-273962Y346099D01*
X-271170Y346099D01*
X-271106Y346090D01*
X-271042Y346091D01*
X-270967Y346070D01*
X-270891Y346059D01*
X-270832Y346033D01*
X-270770Y346016D01*
X-270704Y345975D01*
X-270634Y345943D01*
X-270585Y345901D01*
X-270530Y345868D01*
X-270478Y345810D01*
X-270420Y345760D01*
X-270384Y345706D01*
X-270341Y345658D01*
X-270308Y345589D01*
X-270265Y345524D01*
X-270246Y345462D01*
X-270218Y345405D01*
X-270207Y345335D01*
X-270183Y345254D01*
X-270182Y345169D01*
X-270171Y345100D01*
X-270171Y326152D01*
X-270184Y326057D01*
X-270189Y325960D01*
X-270204Y325917D01*
X-270211Y325872D01*
X-270250Y325785D01*
X-270282Y325694D01*
X-270307Y325659D01*
X-270327Y325615D01*
X-270410Y325518D01*
X-270463Y325445D01*
X-275447Y320461D01*
X-275524Y320404D01*
X-275595Y320339D01*
X-275636Y320319D01*
X-275673Y320292D01*
X-275763Y320258D01*
X-275849Y320216D01*
X-275891Y320210D01*
X-275936Y320193D01*
X-276064Y320183D01*
X-276154Y320169D01*
X-297473Y320169D01*
X-297505Y320173D01*
X-297537Y320171D01*
X-297644Y320193D01*
X-297752Y320209D01*
X-297782Y320222D01*
X-297813Y320228D01*
X-297910Y320280D01*
X-298009Y320325D01*
X-298034Y320346D01*
X-298062Y320361D01*
X-298141Y320437D01*
X-298224Y320508D01*
X-298241Y320535D01*
X-298264Y320558D01*
X-298318Y320653D01*
X-298378Y320744D01*
X-298387Y320775D01*
X-298403Y320803D01*
X-298428Y320909D01*
X-298460Y321014D01*
X-298461Y321046D01*
X-298468Y321078D01*
X-298463Y321187D01*
X-298464Y321296D01*
X-298456Y321327D01*
X-298454Y321359D01*
X-298418Y321462D01*
X-298389Y321568D01*
X-298372Y321595D01*
X-298361Y321626D01*
X-298308Y321699D01*
X-298241Y321808D01*
X-298205Y321840D01*
X-298180Y321875D01*
X-298038Y322016D01*
X-296967Y324601D01*
X-296967Y327399D01*
X-298038Y329984D01*
X-300016Y331962D01*
X-302601Y333033D01*
X-305399Y333033D01*
X-307416Y332197D01*
X-307426Y332195D01*
X-307434Y332190D01*
X-307563Y332160D01*
X-307690Y332127D01*
X-307699Y332127D01*
X-307708Y332125D01*
X-307841Y332132D01*
X-307971Y332136D01*
X-307980Y332139D01*
X-307990Y332139D01*
X-308114Y332183D01*
X-308240Y332223D01*
X-308247Y332229D01*
X-308256Y332232D01*
X-308318Y332277D01*
X-308473Y332382D01*
X-308488Y332401D01*
X-308505Y332414D01*
X-313737Y337645D01*
X-313794Y337722D01*
X-313859Y337793D01*
X-313879Y337834D01*
X-313906Y337871D01*
X-313940Y337961D01*
X-313982Y338047D01*
X-313988Y338089D01*
X-314005Y338134D01*
X-314015Y338262D01*
X-314029Y338352D01*
X-314029Y345100D01*
X-314020Y345164D01*
X-314021Y345228D01*
X-314000Y345303D01*
X-313989Y345379D01*
X-313963Y345438D01*
X-313946Y345500D01*
X-313905Y345566D01*
X-313873Y345636D01*
X-313831Y345685D01*
X-313798Y345740D01*
X-313740Y345792D01*
X-313690Y345850D01*
X-313636Y345886D01*
X-313588Y345929D01*
X-313519Y345962D01*
X-313454Y346005D01*
X-313392Y346024D01*
X-313335Y346052D01*
X-313265Y346063D01*
X-313184Y346087D01*
X-313099Y346088D01*
X-313030Y346099D01*
X-310238Y346099D01*
X-308949Y347388D01*
X-308949Y389212D01*
X-310238Y390501D01*
X-324762Y390501D01*
X-326051Y389212D01*
X-326051Y347388D01*
X-324762Y346099D01*
X-321970Y346099D01*
X-321906Y346090D01*
X-321842Y346091D01*
X-321767Y346070D01*
X-321691Y346059D01*
X-321632Y346033D01*
X-321570Y346016D01*
X-321504Y345975D01*
X-321434Y345943D01*
X-321385Y345901D01*
X-321330Y345868D01*
X-321278Y345810D01*
X-321220Y345760D01*
X-321184Y345706D01*
X-321141Y345658D01*
X-321108Y345589D01*
X-321065Y345524D01*
X-321046Y345462D01*
X-321018Y345405D01*
X-321007Y345335D01*
X-320983Y345254D01*
X-320982Y345169D01*
X-320971Y345100D01*
X-320971Y335062D01*
X-319647Y333739D01*
X-319628Y333713D01*
X-319603Y333692D01*
X-319543Y333600D01*
X-319478Y333513D01*
X-319466Y333483D01*
X-319449Y333456D01*
X-319417Y333351D01*
X-319378Y333249D01*
X-319376Y333217D01*
X-319366Y333186D01*
X-319365Y333077D01*
X-319356Y332968D01*
X-319363Y332936D01*
X-319362Y332904D01*
X-319392Y332799D01*
X-319414Y332692D01*
X-319429Y332663D01*
X-319438Y332632D01*
X-319495Y332539D01*
X-319546Y332443D01*
X-319569Y332420D01*
X-319586Y332392D01*
X-319667Y332319D01*
X-319743Y332241D01*
X-319771Y332225D01*
X-319795Y332203D01*
X-319893Y332156D01*
X-319989Y332102D01*
X-320020Y332094D01*
X-320049Y332080D01*
X-320138Y332066D01*
X-320263Y332037D01*
X-320311Y332039D01*
X-320353Y332033D01*
X-321206Y332033D01*
X-321263Y332041D01*
X-321321Y332039D01*
X-321394Y332059D01*
X-321485Y332073D01*
X-321555Y332104D01*
X-321618Y332122D01*
X-322540Y332539D01*
X-322561Y332553D01*
X-322585Y332561D01*
X-322660Y332615D01*
X-322778Y332691D01*
X-322805Y332721D01*
X-322834Y332743D01*
X-323568Y333477D01*
X-335208Y345116D01*
X-335247Y345168D01*
X-335293Y345213D01*
X-335331Y345280D01*
X-335377Y345342D01*
X-335400Y345402D01*
X-335432Y345458D01*
X-335450Y345533D01*
X-335477Y345606D01*
X-335482Y345670D01*
X-335497Y345732D01*
X-335493Y345810D01*
X-335499Y345887D01*
X-335486Y345950D01*
X-335482Y346014D01*
X-335457Y346087D01*
X-335441Y346163D01*
X-335411Y346220D01*
X-335390Y346281D01*
X-335348Y346337D01*
X-335309Y346412D01*
X-335249Y346473D01*
X-335208Y346530D01*
X-334349Y347388D01*
X-334349Y389212D01*
X-335638Y390501D01*
X-350162Y390501D01*
X-351451Y389212D01*
X-351451Y347388D01*
X-350162Y346099D01*
X-346422Y346099D01*
X-346327Y346086D01*
X-346230Y346081D01*
X-346187Y346066D01*
X-346142Y346059D01*
X-346055Y346020D01*
X-345964Y345988D01*
X-345930Y345963D01*
X-345885Y345943D01*
X-345788Y345860D01*
X-345715Y345807D01*
X-328477Y328568D01*
X-328139Y328231D01*
X-328138Y328229D01*
X-328136Y328228D01*
X-328050Y328112D01*
X-327970Y328005D01*
X-327969Y328003D01*
X-327968Y328002D01*
X-327958Y327973D01*
X-327870Y327741D01*
X-327869Y327725D01*
X-327864Y327712D01*
X-327802Y327386D01*
X-327795Y327251D01*
X-327787Y327115D01*
X-327789Y327110D01*
X-327788Y327104D01*
X-327854Y326830D01*
X-327858Y326823D01*
X-327860Y326816D01*
X-328033Y326399D01*
X-328033Y323601D01*
X-326962Y321016D01*
X-325134Y319188D01*
X-325095Y319137D01*
X-325049Y319092D01*
X-325011Y319024D01*
X-324964Y318962D01*
X-324942Y318902D01*
X-324910Y318846D01*
X-324892Y318771D01*
X-324865Y318698D01*
X-324860Y318634D01*
X-324845Y318572D01*
X-324849Y318494D01*
X-324843Y318417D01*
X-324856Y318354D01*
X-324859Y318290D01*
X-324885Y318217D01*
X-324901Y318141D01*
X-324931Y318084D01*
X-324952Y318024D01*
X-324993Y317967D01*
X-325033Y317892D01*
X-325092Y317831D01*
X-325134Y317775D01*
X-343823Y299085D01*
X-343849Y299066D01*
X-343870Y299041D01*
X-343962Y298981D01*
X-344049Y298916D01*
X-344079Y298904D01*
X-344106Y298887D01*
X-344211Y298855D01*
X-344313Y298816D01*
X-344345Y298814D01*
X-344376Y298804D01*
X-344485Y298803D01*
X-344594Y298794D01*
X-344626Y298801D01*
X-344658Y298800D01*
X-344763Y298830D01*
X-344870Y298852D01*
X-344899Y298867D01*
X-344930Y298876D01*
X-345023Y298933D01*
X-345119Y298984D01*
X-345142Y299007D01*
X-345170Y299024D01*
X-345243Y299105D01*
X-345321Y299181D01*
X-345337Y299209D01*
X-345359Y299233D01*
X-345406Y299331D01*
X-345460Y299427D01*
X-345468Y299458D01*
X-345482Y299487D01*
X-345496Y299576D01*
X-345525Y299701D01*
X-345523Y299749D01*
X-345529Y299791D01*
X-345529Y317438D01*
X-364537Y336445D01*
X-364594Y336522D01*
X-364659Y336593D01*
X-364679Y336634D01*
X-364706Y336671D01*
X-364740Y336761D01*
X-364782Y336847D01*
X-364788Y336889D01*
X-364805Y336934D01*
X-364815Y337062D01*
X-364829Y337152D01*
X-364829Y345100D01*
X-364820Y345164D01*
X-364821Y345228D01*
X-364800Y345303D01*
X-364789Y345379D01*
X-364763Y345438D01*
X-364746Y345500D01*
X-364705Y345566D01*
X-364673Y345636D01*
X-364631Y345685D01*
X-364598Y345740D01*
X-364540Y345792D01*
X-364490Y345850D01*
X-364436Y345886D01*
X-364388Y345929D01*
X-364319Y345962D01*
X-364254Y346005D01*
X-364192Y346024D01*
X-364135Y346052D01*
X-364065Y346063D01*
X-363984Y346087D01*
X-363899Y346088D01*
X-363830Y346099D01*
X-361038Y346099D01*
X-359749Y347388D01*
X-359749Y389212D01*
X-361038Y390501D01*
X-375562Y390501D01*
X-376851Y389212D01*
X-376851Y347388D01*
X-375562Y346099D01*
X-372770Y346099D01*
X-372706Y346090D01*
X-372642Y346091D01*
X-372567Y346070D01*
X-372491Y346059D01*
X-372432Y346033D01*
X-372370Y346016D01*
X-372304Y345975D01*
X-372234Y345943D01*
X-372185Y345901D01*
X-372130Y345868D01*
X-372078Y345810D01*
X-372020Y345760D01*
X-371984Y345706D01*
X-371941Y345658D01*
X-371908Y345589D01*
X-371865Y345524D01*
X-371846Y345462D01*
X-371818Y345405D01*
X-371807Y345335D01*
X-371783Y345254D01*
X-371782Y345169D01*
X-371771Y345100D01*
X-371771Y337091D01*
X-371775Y337060D01*
X-371773Y337027D01*
X-371795Y336920D01*
X-371811Y336812D01*
X-371824Y336783D01*
X-371830Y336751D01*
X-371882Y336655D01*
X-371927Y336555D01*
X-371948Y336531D01*
X-371963Y336502D01*
X-372039Y336424D01*
X-372110Y336341D01*
X-372137Y336323D01*
X-372160Y336300D01*
X-372255Y336247D01*
X-372346Y336187D01*
X-372377Y336177D01*
X-372405Y336161D01*
X-372512Y336136D01*
X-372616Y336104D01*
X-372648Y336104D01*
X-372679Y336096D01*
X-372789Y336102D01*
X-372898Y336100D01*
X-372929Y336109D01*
X-372961Y336111D01*
X-373064Y336147D01*
X-373170Y336176D01*
X-373197Y336193D01*
X-373228Y336203D01*
X-373301Y336256D01*
X-373410Y336324D01*
X-373442Y336360D01*
X-373477Y336385D01*
X-384857Y347765D01*
X-384914Y347842D01*
X-384979Y347913D01*
X-384999Y347954D01*
X-385026Y347991D01*
X-385060Y348081D01*
X-385102Y348167D01*
X-385108Y348209D01*
X-385125Y348254D01*
X-385135Y348382D01*
X-385149Y348472D01*
X-385149Y389212D01*
X-386438Y390501D01*
X-400962Y390501D01*
X-402251Y389212D01*
X-402251Y347388D01*
X-400962Y346099D01*
X-393422Y346099D01*
X-393327Y346086D01*
X-393230Y346081D01*
X-393187Y346066D01*
X-393142Y346059D01*
X-393055Y346020D01*
X-392964Y345988D01*
X-392930Y345963D01*
X-392885Y345943D01*
X-392788Y345860D01*
X-392715Y345807D01*
X-389905Y342997D01*
X-389853Y342928D01*
X-389794Y342864D01*
X-389769Y342815D01*
X-389736Y342771D01*
X-389705Y342690D01*
X-389666Y342613D01*
X-389656Y342559D01*
X-389636Y342507D01*
X-389630Y342421D01*
X-389614Y342336D01*
X-389619Y342281D01*
X-389615Y342226D01*
X-389632Y342141D01*
X-389641Y342055D01*
X-389661Y342004D01*
X-389672Y341950D01*
X-389713Y341874D01*
X-389745Y341793D01*
X-389779Y341750D01*
X-389805Y341701D01*
X-389865Y341639D01*
X-389919Y341571D01*
X-389963Y341538D01*
X-390002Y341499D01*
X-390077Y341456D01*
X-390147Y341406D01*
X-390199Y341387D01*
X-390247Y341360D01*
X-390332Y341340D01*
X-390413Y341311D01*
X-390468Y341308D01*
X-390521Y341295D01*
X-390608Y341300D01*
X-390695Y341295D01*
X-390744Y341307D01*
X-390803Y341310D01*
X-390911Y341347D01*
X-390994Y341367D01*
X-392601Y342033D01*
X-395399Y342033D01*
X-397984Y340962D01*
X-399962Y338984D01*
X-401033Y336399D01*
X-401033Y333601D01*
X-399962Y331016D01*
X-399108Y330162D01*
X-399058Y330096D01*
X-399002Y330037D01*
X-398977Y329988D01*
X-398939Y329937D01*
X-398901Y329836D01*
X-398863Y329761D01*
X-398519Y328689D01*
X-398519Y328688D01*
X-398518Y328688D01*
X-398517Y328677D01*
X-398471Y328411D01*
X-398473Y328396D01*
X-398471Y328383D01*
X-398471Y313090D01*
X-398483Y313007D01*
X-398485Y312922D01*
X-398502Y312872D01*
X-398511Y312811D01*
X-398556Y312710D01*
X-398583Y312630D01*
X-398800Y312212D01*
X-398870Y312114D01*
X-398914Y312043D01*
X-398933Y312025D01*
X-398963Y311983D01*
X-398973Y311975D01*
X-398980Y311966D01*
X-400962Y309984D01*
X-402033Y307399D01*
X-402033Y304601D01*
X-400962Y302016D01*
X-398984Y300038D01*
X-396399Y298967D01*
X-393601Y298967D01*
X-391016Y300038D01*
X-389038Y302016D01*
X-387967Y304601D01*
X-387967Y307399D01*
X-389038Y309984D01*
X-391020Y311966D01*
X-391051Y312007D01*
X-391069Y312023D01*
X-391113Y312090D01*
X-391189Y312191D01*
X-391194Y312203D01*
X-391201Y312212D01*
X-391417Y312630D01*
X-391445Y312710D01*
X-391482Y312785D01*
X-391490Y312838D01*
X-391510Y312896D01*
X-391516Y313006D01*
X-391529Y313090D01*
X-391529Y327588D01*
X-391526Y327615D01*
X-391528Y327641D01*
X-391506Y327753D01*
X-391489Y327867D01*
X-391479Y327892D01*
X-391473Y327918D01*
X-391430Y327999D01*
X-391373Y328124D01*
X-391346Y328156D01*
X-391328Y328190D01*
X-391158Y328415D01*
X-391079Y328494D01*
X-391005Y328577D01*
X-390981Y328592D01*
X-390958Y328615D01*
X-390818Y328691D01*
X-390742Y328737D01*
X-390016Y329038D01*
X-388038Y331016D01*
X-386967Y333601D01*
X-386967Y336399D01*
X-387633Y338006D01*
X-387654Y338090D01*
X-387685Y338171D01*
X-387689Y338226D01*
X-387703Y338279D01*
X-387700Y338366D01*
X-387707Y338452D01*
X-387696Y338506D01*
X-387694Y338561D01*
X-387667Y338643D01*
X-387649Y338728D01*
X-387623Y338777D01*
X-387606Y338829D01*
X-387558Y338901D01*
X-387517Y338977D01*
X-387479Y339017D01*
X-387448Y339062D01*
X-387381Y339117D01*
X-387320Y339179D01*
X-387272Y339206D01*
X-387230Y339241D01*
X-387150Y339276D01*
X-387075Y339318D01*
X-387021Y339331D01*
X-386971Y339353D01*
X-386885Y339363D01*
X-386800Y339383D01*
X-386745Y339380D01*
X-386691Y339387D01*
X-386605Y339373D01*
X-386519Y339369D01*
X-386467Y339351D01*
X-386412Y339342D01*
X-386334Y339305D01*
X-386252Y339276D01*
X-386211Y339246D01*
X-386158Y339221D01*
X-386073Y339145D01*
X-386003Y339095D01*
X-358763Y311855D01*
X-358706Y311778D01*
X-358641Y311707D01*
X-358621Y311666D01*
X-358594Y311629D01*
X-358560Y311539D01*
X-358518Y311453D01*
X-358512Y311411D01*
X-358495Y311366D01*
X-358485Y311238D01*
X-358471Y311148D01*
X-358471Y298852D01*
X-358484Y298757D01*
X-358489Y298660D01*
X-358504Y298617D01*
X-358511Y298572D01*
X-358550Y298485D01*
X-358582Y298394D01*
X-358607Y298360D01*
X-358627Y298315D01*
X-358710Y298218D01*
X-358763Y298145D01*
X-389483Y267426D01*
X-389578Y267354D01*
X-389669Y267279D01*
X-389690Y267270D01*
X-389708Y267256D01*
X-389819Y267214D01*
X-389928Y267168D01*
X-389951Y267165D01*
X-389972Y267157D01*
X-390091Y267148D01*
X-390208Y267133D01*
X-390231Y267137D01*
X-390253Y267135D01*
X-390369Y267159D01*
X-390487Y267178D01*
X-390507Y267188D01*
X-390530Y267193D01*
X-390634Y267248D01*
X-390741Y267299D01*
X-390758Y267314D01*
X-390779Y267325D01*
X-390864Y267408D01*
X-390952Y267487D01*
X-390963Y267505D01*
X-390981Y267522D01*
X-391073Y267684D01*
X-391113Y267750D01*
X-392038Y269984D01*
X-394020Y271966D01*
X-394189Y272191D01*
X-394194Y272203D01*
X-394201Y272212D01*
X-394417Y272630D01*
X-394445Y272710D01*
X-394482Y272785D01*
X-394490Y272838D01*
X-394510Y272896D01*
X-394516Y273006D01*
X-394529Y273090D01*
X-394529Y289438D01*
X-396855Y291763D01*
X-414095Y309003D01*
X-414106Y309019D01*
X-414114Y309025D01*
X-414131Y309051D01*
X-414147Y309073D01*
X-414206Y309136D01*
X-414231Y309185D01*
X-414264Y309229D01*
X-414295Y309310D01*
X-414334Y309387D01*
X-414344Y309441D01*
X-414364Y309493D01*
X-414370Y309579D01*
X-414386Y309664D01*
X-414381Y309719D01*
X-414385Y309774D01*
X-414368Y309859D01*
X-414359Y309945D01*
X-414339Y309996D01*
X-414328Y310050D01*
X-414287Y310127D01*
X-414255Y310207D01*
X-414221Y310250D01*
X-414195Y310299D01*
X-414135Y310361D01*
X-414081Y310429D01*
X-414037Y310462D01*
X-413999Y310501D01*
X-413923Y310544D01*
X-413853Y310594D01*
X-413801Y310613D01*
X-413753Y310640D01*
X-413669Y310660D01*
X-413587Y310689D01*
X-413532Y310692D01*
X-413479Y310705D01*
X-413392Y310700D01*
X-413305Y310705D01*
X-413256Y310693D01*
X-413197Y310690D01*
X-413089Y310653D01*
X-413057Y310645D01*
X-413048Y310644D01*
X-413044Y310642D01*
X-413006Y310633D01*
X-411399Y309967D01*
X-408601Y309967D01*
X-406016Y311038D01*
X-404038Y313016D01*
X-402967Y315601D01*
X-402967Y318399D01*
X-404038Y320984D01*
X-406016Y322962D01*
X-408601Y324033D01*
X-411404Y324033D01*
X-411683Y324073D01*
X-411695Y324078D01*
X-411706Y324079D01*
X-412155Y324222D01*
X-412231Y324258D01*
X-412310Y324286D01*
X-412353Y324317D01*
X-412409Y324344D01*
X-412491Y324418D01*
X-412559Y324468D01*
X-414237Y326145D01*
X-414294Y326222D01*
X-414359Y326293D01*
X-414379Y326334D01*
X-414406Y326371D01*
X-414440Y326461D01*
X-414482Y326547D01*
X-414488Y326589D01*
X-414505Y326634D01*
X-414515Y326762D01*
X-414529Y326852D01*
X-414529Y328588D01*
X-414526Y328615D01*
X-414528Y328641D01*
X-414506Y328753D01*
X-414489Y328867D01*
X-414478Y328892D01*
X-414473Y328918D01*
X-414430Y328999D01*
X-414373Y329124D01*
X-414346Y329156D01*
X-414328Y329190D01*
X-414158Y329415D01*
X-414079Y329494D01*
X-414005Y329577D01*
X-413981Y329592D01*
X-413958Y329615D01*
X-413818Y329691D01*
X-413742Y329737D01*
X-413016Y330038D01*
X-411038Y332016D01*
X-409967Y334601D01*
X-409967Y337399D01*
X-411038Y339984D01*
X-413016Y341962D01*
X-415601Y343033D01*
X-418399Y343033D01*
X-420984Y341962D01*
X-422962Y339984D01*
X-424033Y337399D01*
X-424033Y334601D01*
X-422962Y332016D01*
X-422108Y331162D01*
X-422058Y331096D01*
X-422002Y331037D01*
X-421977Y330988D01*
X-421939Y330937D01*
X-421901Y330836D01*
X-421863Y330761D01*
X-421519Y329689D01*
X-421519Y329688D01*
X-421518Y329688D01*
X-421517Y329677D01*
X-421471Y329411D01*
X-421473Y329396D01*
X-421471Y329383D01*
X-421471Y323562D01*
X-419145Y321237D01*
X-417468Y319559D01*
X-417417Y319492D01*
X-417359Y319431D01*
X-417335Y319383D01*
X-417298Y319334D01*
X-417259Y319231D01*
X-417222Y319155D01*
X-417079Y318706D01*
X-417033Y318428D01*
X-417034Y318416D01*
X-417033Y318404D01*
X-417033Y315601D01*
X-416367Y313994D01*
X-416346Y313910D01*
X-416315Y313829D01*
X-416311Y313774D01*
X-416297Y313721D01*
X-416300Y313634D01*
X-416293Y313548D01*
X-416304Y313494D01*
X-416306Y313439D01*
X-416333Y313357D01*
X-416351Y313272D01*
X-416377Y313223D01*
X-416394Y313171D01*
X-416442Y313099D01*
X-416483Y313023D01*
X-416522Y312983D01*
X-416552Y312938D01*
X-416619Y312883D01*
X-416680Y312821D01*
X-416728Y312794D01*
X-416770Y312759D01*
X-416850Y312724D01*
X-416925Y312682D01*
X-416979Y312669D01*
X-417029Y312647D01*
X-417115Y312637D01*
X-417200Y312617D01*
X-417255Y312619D01*
X-417309Y312613D01*
X-417395Y312627D01*
X-417481Y312631D01*
X-417533Y312649D01*
X-417588Y312658D01*
X-417666Y312695D01*
X-417748Y312724D01*
X-417789Y312754D01*
X-417842Y312779D01*
X-417927Y312855D01*
X-417997Y312905D01*
X-440737Y335645D01*
X-440794Y335722D01*
X-440859Y335793D01*
X-440879Y335834D01*
X-440906Y335871D01*
X-440940Y335961D01*
X-440982Y336047D01*
X-440988Y336089D01*
X-441005Y336134D01*
X-441015Y336262D01*
X-441029Y336352D01*
X-441029Y345100D01*
X-441020Y345164D01*
X-441021Y345228D01*
X-441000Y345303D01*
X-440989Y345379D01*
X-440963Y345438D01*
X-440946Y345500D01*
X-440905Y345566D01*
X-440873Y345636D01*
X-440831Y345685D01*
X-440798Y345740D01*
X-440740Y345792D01*
X-440690Y345850D01*
X-440636Y345886D01*
X-440588Y345929D01*
X-440519Y345962D01*
X-440454Y346005D01*
X-440392Y346024D01*
X-440335Y346052D01*
X-440265Y346063D01*
X-440184Y346087D01*
X-440099Y346088D01*
X-440030Y346099D01*
X-437238Y346099D01*
X-435949Y347388D01*
X-435949Y389212D01*
X-437238Y390501D01*
X-451762Y390501D01*
X-453051Y389212D01*
X-453051Y347388D01*
X-451762Y346099D01*
X-448970Y346099D01*
X-448906Y346090D01*
X-448842Y346091D01*
X-448767Y346070D01*
X-448691Y346059D01*
X-448632Y346033D01*
X-448570Y346016D01*
X-448504Y345975D01*
X-448434Y345943D01*
X-448385Y345901D01*
X-448330Y345868D01*
X-448278Y345810D01*
X-448220Y345760D01*
X-448184Y345706D01*
X-448141Y345658D01*
X-448108Y345589D01*
X-448065Y345524D01*
X-448046Y345462D01*
X-448018Y345405D01*
X-448007Y345335D01*
X-447983Y345254D01*
X-447982Y345169D01*
X-447971Y345100D01*
X-447971Y338291D01*
X-447975Y338260D01*
X-447973Y338227D01*
X-447995Y338120D01*
X-448011Y338012D01*
X-448024Y337983D01*
X-448030Y337951D01*
X-448082Y337855D01*
X-448127Y337755D01*
X-448148Y337731D01*
X-448163Y337702D01*
X-448239Y337624D01*
X-448310Y337541D01*
X-448337Y337523D01*
X-448360Y337500D01*
X-448455Y337446D01*
X-448546Y337387D01*
X-448577Y337377D01*
X-448605Y337361D01*
X-448712Y337336D01*
X-448816Y337304D01*
X-448848Y337304D01*
X-448880Y337296D01*
X-448989Y337302D01*
X-449098Y337300D01*
X-449129Y337309D01*
X-449161Y337311D01*
X-449264Y337346D01*
X-449370Y337376D01*
X-449397Y337393D01*
X-449428Y337403D01*
X-449501Y337456D01*
X-449524Y337471D01*
X-463148Y337471D01*
X-463243Y337484D01*
X-463340Y337489D01*
X-463383Y337504D01*
X-463428Y337511D01*
X-463515Y337550D01*
X-463606Y337582D01*
X-463640Y337607D01*
X-463685Y337627D01*
X-463782Y337710D01*
X-463855Y337763D01*
X-466137Y340045D01*
X-466194Y340122D01*
X-466259Y340193D01*
X-466279Y340234D01*
X-466306Y340271D01*
X-466340Y340361D01*
X-466382Y340447D01*
X-466388Y340489D01*
X-466405Y340534D01*
X-466415Y340662D01*
X-466429Y340752D01*
X-466429Y345100D01*
X-466420Y345164D01*
X-466421Y345228D01*
X-466400Y345303D01*
X-466389Y345379D01*
X-466363Y345438D01*
X-466346Y345500D01*
X-466305Y345566D01*
X-466273Y345636D01*
X-466231Y345685D01*
X-466198Y345740D01*
X-466140Y345792D01*
X-466090Y345850D01*
X-466036Y345886D01*
X-465988Y345929D01*
X-465919Y345962D01*
X-465854Y346005D01*
X-465792Y346024D01*
X-465735Y346052D01*
X-465665Y346063D01*
X-465584Y346087D01*
X-465499Y346088D01*
X-465430Y346099D01*
X-462638Y346099D01*
X-461349Y347388D01*
X-461349Y389212D01*
X-462638Y390501D01*
X-477162Y390501D01*
X-478451Y389212D01*
X-478451Y347388D01*
X-477162Y346099D01*
X-474370Y346099D01*
X-474306Y346090D01*
X-474242Y346091D01*
X-474167Y346070D01*
X-474091Y346059D01*
X-474032Y346033D01*
X-473970Y346016D01*
X-473904Y345975D01*
X-473834Y345943D01*
X-473785Y345901D01*
X-473730Y345868D01*
X-473678Y345810D01*
X-473620Y345760D01*
X-473584Y345706D01*
X-473541Y345658D01*
X-473508Y345589D01*
X-473465Y345524D01*
X-473446Y345462D01*
X-473418Y345405D01*
X-473407Y345335D01*
X-473383Y345254D01*
X-473382Y345169D01*
X-473371Y345100D01*
X-473371Y337462D01*
X-471045Y335137D01*
X-468763Y332855D01*
X-466438Y330529D01*
X-452852Y330529D01*
X-452757Y330516D01*
X-452660Y330511D01*
X-452617Y330496D01*
X-452572Y330489D01*
X-452485Y330450D01*
X-452394Y330418D01*
X-452360Y330393D01*
X-452315Y330373D01*
X-452218Y330290D01*
X-452145Y330237D01*
X-410763Y288855D01*
X-410706Y288778D01*
X-410641Y288707D01*
X-410621Y288666D01*
X-410594Y288629D01*
X-410560Y288539D01*
X-410518Y288453D01*
X-410512Y288411D01*
X-410495Y288366D01*
X-410485Y288238D01*
X-410471Y288148D01*
X-410471Y284090D01*
X-410483Y284007D01*
X-410485Y283922D01*
X-410502Y283872D01*
X-410511Y283811D01*
X-410556Y283710D01*
X-410583Y283630D01*
X-410799Y283212D01*
X-410885Y283092D01*
X-410902Y283064D01*
X-410910Y283058D01*
X-410963Y282983D01*
X-410973Y282975D01*
X-410980Y282966D01*
X-412962Y280984D01*
X-414033Y278399D01*
X-414033Y275601D01*
X-412962Y273016D01*
X-410984Y271038D01*
X-408399Y269967D01*
X-405464Y269967D01*
X-405347Y269951D01*
X-405229Y269939D01*
X-405208Y269931D01*
X-405185Y269927D01*
X-405077Y269879D01*
X-404967Y269835D01*
X-404949Y269821D01*
X-404928Y269811D01*
X-404838Y269734D01*
X-404745Y269661D01*
X-404731Y269643D01*
X-404714Y269628D01*
X-404649Y269528D01*
X-404580Y269432D01*
X-404572Y269411D01*
X-404559Y269392D01*
X-404525Y269278D01*
X-404485Y269167D01*
X-404484Y269144D01*
X-404477Y269122D01*
X-404476Y269004D01*
X-404469Y268885D01*
X-404474Y268864D01*
X-404473Y268840D01*
X-404523Y268661D01*
X-404541Y268586D01*
X-405033Y267399D01*
X-405033Y264601D01*
X-404268Y262754D01*
X-404252Y262692D01*
X-404226Y262633D01*
X-404217Y262556D01*
X-404198Y262481D01*
X-404200Y262417D01*
X-404192Y262353D01*
X-404204Y262277D01*
X-404207Y262199D01*
X-404227Y262138D01*
X-404237Y262075D01*
X-404270Y262005D01*
X-404294Y261931D01*
X-404330Y261878D01*
X-404358Y261820D01*
X-404409Y261762D01*
X-404453Y261698D01*
X-404503Y261657D01*
X-404545Y261609D01*
X-404605Y261573D01*
X-404671Y261519D01*
X-404749Y261485D01*
X-404809Y261449D01*
X-405984Y260962D01*
X-407962Y258984D01*
X-409033Y256399D01*
X-409033Y253601D01*
X-407962Y251016D01*
X-405984Y249038D01*
X-403750Y248113D01*
X-403648Y248052D01*
X-403543Y247997D01*
X-403527Y247981D01*
X-403507Y247969D01*
X-403426Y247883D01*
X-403341Y247800D01*
X-403330Y247780D01*
X-403314Y247763D01*
X-403260Y247658D01*
X-403202Y247554D01*
X-403197Y247532D01*
X-403186Y247512D01*
X-403164Y247395D01*
X-403137Y247280D01*
X-403138Y247257D01*
X-403134Y247235D01*
X-403145Y247117D01*
X-403151Y246998D01*
X-403159Y246977D01*
X-403161Y246954D01*
X-403205Y246844D01*
X-403244Y246732D01*
X-403257Y246714D01*
X-403265Y246692D01*
X-403380Y246545D01*
X-403426Y246483D01*
X-409261Y240647D01*
X-409287Y240628D01*
X-409308Y240603D01*
X-409400Y240543D01*
X-409487Y240478D01*
X-409517Y240466D01*
X-409544Y240449D01*
X-409649Y240417D01*
X-409751Y240378D01*
X-409783Y240376D01*
X-409814Y240366D01*
X-409923Y240365D01*
X-410032Y240356D01*
X-410064Y240363D01*
X-410096Y240362D01*
X-410201Y240392D01*
X-410308Y240414D01*
X-410337Y240429D01*
X-410368Y240438D01*
X-410461Y240495D01*
X-410557Y240546D01*
X-410580Y240569D01*
X-410608Y240586D01*
X-410681Y240667D01*
X-410759Y240743D01*
X-410775Y240771D01*
X-410797Y240795D01*
X-410844Y240893D01*
X-410898Y240989D01*
X-410906Y241020D01*
X-410920Y241049D01*
X-410934Y241138D01*
X-410963Y241263D01*
X-410961Y241311D01*
X-410967Y241353D01*
X-410967Y241399D01*
X-412038Y243984D01*
X-414016Y245962D01*
X-416601Y247033D01*
X-419399Y247033D01*
X-422148Y245894D01*
X-422262Y245865D01*
X-422376Y245830D01*
X-422399Y245830D01*
X-422421Y245824D01*
X-422539Y245828D01*
X-422658Y245826D01*
X-422680Y245832D01*
X-422703Y245833D01*
X-422815Y245870D01*
X-422930Y245902D01*
X-422949Y245914D01*
X-422971Y245921D01*
X-423069Y245987D01*
X-423170Y246050D01*
X-423185Y246067D01*
X-423204Y246079D01*
X-423279Y246171D01*
X-423359Y246259D01*
X-423369Y246280D01*
X-423383Y246297D01*
X-423430Y246406D01*
X-423482Y246513D01*
X-423485Y246534D01*
X-423495Y246556D01*
X-423517Y246741D01*
X-423529Y246817D01*
X-423529Y275438D01*
X-491537Y343445D01*
X-491594Y343522D01*
X-491659Y343593D01*
X-491679Y343634D01*
X-491706Y343671D01*
X-491740Y343761D01*
X-491782Y343847D01*
X-491788Y343889D01*
X-491805Y343934D01*
X-491815Y344062D01*
X-491829Y344152D01*
X-491829Y345100D01*
X-491820Y345164D01*
X-491821Y345228D01*
X-491800Y345303D01*
X-491789Y345379D01*
X-491763Y345438D01*
X-491746Y345500D01*
X-491705Y345566D01*
X-491673Y345636D01*
X-491631Y345685D01*
X-491598Y345740D01*
X-491540Y345792D01*
X-491490Y345850D01*
X-491436Y345886D01*
X-491388Y345929D01*
X-491319Y345962D01*
X-491254Y346005D01*
X-491192Y346024D01*
X-491135Y346052D01*
X-491065Y346063D01*
X-490984Y346087D01*
X-490899Y346088D01*
X-490830Y346099D01*
X-488038Y346099D01*
X-486749Y347388D01*
X-486749Y389212D01*
X-488038Y390501D01*
X-502562Y390501D01*
X-503851Y389212D01*
X-503851Y347388D01*
X-502562Y346099D01*
X-499770Y346099D01*
X-499706Y346090D01*
X-499642Y346091D01*
X-499567Y346070D01*
X-499491Y346059D01*
X-499432Y346033D01*
X-499370Y346016D01*
X-499304Y345975D01*
X-499234Y345943D01*
X-499185Y345901D01*
X-499130Y345868D01*
X-499078Y345810D01*
X-499020Y345760D01*
X-498984Y345706D01*
X-498941Y345658D01*
X-498908Y345589D01*
X-498865Y345524D01*
X-498846Y345462D01*
X-498818Y345405D01*
X-498807Y345335D01*
X-498783Y345254D01*
X-498782Y345169D01*
X-498771Y345100D01*
X-498771Y340862D01*
X-498085Y340177D01*
X-498066Y340151D01*
X-498041Y340130D01*
X-497981Y340038D01*
X-497916Y339951D01*
X-497904Y339921D01*
X-497887Y339894D01*
X-497855Y339789D01*
X-497816Y339687D01*
X-497814Y339655D01*
X-497804Y339624D01*
X-497803Y339515D01*
X-497794Y339406D01*
X-497801Y339374D01*
X-497800Y339342D01*
X-497830Y339237D01*
X-497852Y339130D01*
X-497867Y339101D01*
X-497876Y339070D01*
X-497933Y338977D01*
X-497984Y338881D01*
X-498007Y338858D01*
X-498024Y338830D01*
X-498105Y338757D01*
X-498181Y338679D01*
X-498209Y338663D01*
X-498233Y338641D01*
X-498331Y338594D01*
X-498426Y338540D01*
X-498458Y338532D01*
X-498487Y338518D01*
X-498576Y338504D01*
X-498701Y338475D01*
X-498749Y338477D01*
X-498791Y338471D01*
X-509148Y338471D01*
X-509243Y338484D01*
X-509340Y338489D01*
X-509383Y338504D01*
X-509428Y338511D01*
X-509515Y338550D01*
X-509606Y338582D01*
X-509640Y338607D01*
X-509685Y338627D01*
X-509782Y338710D01*
X-509855Y338763D01*
X-515485Y344393D01*
X-515504Y344419D01*
X-515529Y344440D01*
X-515589Y344532D01*
X-515654Y344619D01*
X-515666Y344649D01*
X-515683Y344676D01*
X-515715Y344781D01*
X-515754Y344883D01*
X-515756Y344915D01*
X-515766Y344946D01*
X-515767Y345055D01*
X-515776Y345164D01*
X-515769Y345196D01*
X-515770Y345228D01*
X-515740Y345333D01*
X-515718Y345440D01*
X-515703Y345469D01*
X-515694Y345500D01*
X-515637Y345593D01*
X-515586Y345689D01*
X-515563Y345712D01*
X-515546Y345740D01*
X-515465Y345813D01*
X-515389Y345891D01*
X-515361Y345907D01*
X-515337Y345929D01*
X-515239Y345976D01*
X-515143Y346030D01*
X-515112Y346038D01*
X-515083Y346052D01*
X-514994Y346066D01*
X-514869Y346095D01*
X-514821Y346093D01*
X-514779Y346099D01*
X-513438Y346099D01*
X-512149Y347388D01*
X-512149Y389212D01*
X-513438Y390501D01*
X-527962Y390501D01*
X-529251Y389212D01*
X-529251Y347388D01*
X-527962Y346099D01*
X-525170Y346099D01*
X-525106Y346090D01*
X-525042Y346091D01*
X-524967Y346070D01*
X-524891Y346059D01*
X-524832Y346033D01*
X-524770Y346016D01*
X-524704Y345975D01*
X-524634Y345943D01*
X-524585Y345901D01*
X-524530Y345868D01*
X-524478Y345810D01*
X-524420Y345760D01*
X-524384Y345706D01*
X-524341Y345658D01*
X-524308Y345589D01*
X-524265Y345524D01*
X-524246Y345462D01*
X-524218Y345405D01*
X-524207Y345335D01*
X-524183Y345254D01*
X-524182Y345169D01*
X-524171Y345100D01*
X-524171Y343262D01*
X-512438Y331529D01*
X-496852Y331529D01*
X-496757Y331516D01*
X-496660Y331511D01*
X-496617Y331496D01*
X-496572Y331489D01*
X-496485Y331450D01*
X-496394Y331418D01*
X-496360Y331393D01*
X-496315Y331373D01*
X-496218Y331290D01*
X-496145Y331237D01*
X-485634Y320725D01*
X-485595Y320674D01*
X-485549Y320629D01*
X-485511Y320562D01*
X-485464Y320500D01*
X-485442Y320440D01*
X-485410Y320384D01*
X-485392Y320308D01*
X-485365Y320236D01*
X-485360Y320172D01*
X-485345Y320109D01*
X-485349Y320032D01*
X-485343Y319955D01*
X-485356Y319892D01*
X-485359Y319828D01*
X-485385Y319754D01*
X-485401Y319679D01*
X-485431Y319622D01*
X-485452Y319561D01*
X-485493Y319504D01*
X-485533Y319430D01*
X-485592Y319369D01*
X-485634Y319312D01*
X-485962Y318984D01*
X-487033Y316399D01*
X-487033Y313601D01*
X-485962Y311016D01*
X-483984Y309038D01*
X-481399Y307967D01*
X-478601Y307967D01*
X-476016Y309038D01*
X-474038Y311016D01*
X-473113Y313250D01*
X-473052Y313352D01*
X-472997Y313457D01*
X-472981Y313473D01*
X-472969Y313493D01*
X-472883Y313574D01*
X-472800Y313659D01*
X-472780Y313670D01*
X-472763Y313686D01*
X-472658Y313740D01*
X-472554Y313798D01*
X-472532Y313803D01*
X-472512Y313814D01*
X-472395Y313836D01*
X-472280Y313863D01*
X-472257Y313862D01*
X-472235Y313866D01*
X-472117Y313855D01*
X-471998Y313849D01*
X-471977Y313841D01*
X-471954Y313839D01*
X-471844Y313795D01*
X-471732Y313756D01*
X-471714Y313743D01*
X-471692Y313735D01*
X-471545Y313620D01*
X-471483Y313574D01*
X-430763Y272855D01*
X-430706Y272778D01*
X-430641Y272707D01*
X-430621Y272666D01*
X-430594Y272629D01*
X-430560Y272539D01*
X-430518Y272453D01*
X-430512Y272411D01*
X-430495Y272366D01*
X-430485Y272238D01*
X-430471Y272148D01*
X-430471Y227090D01*
X-430483Y227007D01*
X-430485Y226922D01*
X-430502Y226872D01*
X-430511Y226811D01*
X-430556Y226710D01*
X-430583Y226630D01*
X-430799Y226212D01*
X-430963Y225983D01*
X-430973Y225975D01*
X-430980Y225966D01*
X-432962Y223984D01*
X-434033Y221399D01*
X-434033Y218601D01*
X-432962Y216016D01*
X-430984Y214038D01*
X-428399Y212967D01*
X-425564Y212967D01*
X-425536Y212978D01*
X-425481Y212982D01*
X-425428Y212996D01*
X-425342Y212993D01*
X-425255Y213000D01*
X-425201Y212989D01*
X-425147Y212987D01*
X-425064Y212960D01*
X-424979Y212942D01*
X-424931Y212916D01*
X-424878Y212899D01*
X-424807Y212851D01*
X-424730Y212810D01*
X-424691Y212771D01*
X-424645Y212741D01*
X-424590Y212674D01*
X-424528Y212613D01*
X-424501Y212565D01*
X-424466Y212523D01*
X-424432Y212443D01*
X-424389Y212368D01*
X-424376Y212314D01*
X-424354Y212264D01*
X-424344Y212178D01*
X-424324Y212093D01*
X-424327Y212038D01*
X-424320Y211984D01*
X-424334Y211898D01*
X-424338Y211811D01*
X-424356Y211760D01*
X-424365Y211706D01*
X-424402Y211627D01*
X-424431Y211545D01*
X-424461Y211504D01*
X-424486Y211451D01*
X-424562Y211366D01*
X-424612Y211296D01*
X-428275Y207634D01*
X-428326Y207595D01*
X-428371Y207549D01*
X-428438Y207511D01*
X-428500Y207464D01*
X-428560Y207442D01*
X-428616Y207410D01*
X-428692Y207392D01*
X-428764Y207365D01*
X-428828Y207360D01*
X-428891Y207345D01*
X-428968Y207349D01*
X-429045Y207343D01*
X-429108Y207356D01*
X-429172Y207359D01*
X-429246Y207385D01*
X-429321Y207401D01*
X-429378Y207431D01*
X-429439Y207452D01*
X-429496Y207493D01*
X-429570Y207533D01*
X-429631Y207592D01*
X-429688Y207634D01*
X-430016Y207962D01*
X-432601Y209033D01*
X-435399Y209033D01*
X-437984Y207962D01*
X-439962Y205984D01*
X-441033Y203399D01*
X-441033Y200601D01*
X-440140Y198445D01*
X-440132Y198414D01*
X-440117Y198385D01*
X-440097Y198278D01*
X-440070Y198172D01*
X-440071Y198140D01*
X-440065Y198108D01*
X-440075Y198000D01*
X-440079Y197890D01*
X-440089Y197860D01*
X-440092Y197828D01*
X-440132Y197726D01*
X-440166Y197622D01*
X-440184Y197595D01*
X-440196Y197566D01*
X-440263Y197480D01*
X-440325Y197389D01*
X-440350Y197369D01*
X-440370Y197343D01*
X-440458Y197279D01*
X-440543Y197210D01*
X-440572Y197197D01*
X-440599Y197178D01*
X-440701Y197142D01*
X-440802Y197098D01*
X-440834Y197095D01*
X-440864Y197084D01*
X-440973Y197077D01*
X-441082Y197064D01*
X-441114Y197069D01*
X-441146Y197067D01*
X-441234Y197089D01*
X-441360Y197109D01*
X-441404Y197130D01*
X-441445Y197140D01*
X-443601Y198033D01*
X-446399Y198033D01*
X-448984Y196962D01*
X-450962Y194984D01*
X-452033Y192399D01*
X-452033Y189596D01*
X-452073Y189317D01*
X-452078Y189305D01*
X-452079Y189294D01*
X-452222Y188845D01*
X-452258Y188769D01*
X-452286Y188690D01*
X-452317Y188647D01*
X-452344Y188591D01*
X-452418Y188509D01*
X-452468Y188441D01*
X-456069Y184840D01*
X-456164Y184769D01*
X-456255Y184693D01*
X-456276Y184684D01*
X-456294Y184670D01*
X-456405Y184629D01*
X-456514Y184582D01*
X-456537Y184579D01*
X-456558Y184571D01*
X-456676Y184562D01*
X-456794Y184547D01*
X-456816Y184551D01*
X-456839Y184549D01*
X-456955Y184573D01*
X-457072Y184592D01*
X-457093Y184602D01*
X-457115Y184607D01*
X-457220Y184662D01*
X-457327Y184713D01*
X-457344Y184728D01*
X-457364Y184739D01*
X-457449Y184822D01*
X-457538Y184901D01*
X-457549Y184919D01*
X-457566Y184936D01*
X-457658Y185098D01*
X-457698Y185164D01*
X-458038Y185984D01*
X-460016Y187962D01*
X-462601Y189033D01*
X-465399Y189033D01*
X-467984Y187962D01*
X-469962Y185984D01*
X-470607Y184427D01*
X-470651Y184352D01*
X-470687Y184273D01*
X-470722Y184232D01*
X-470750Y184184D01*
X-470814Y184125D01*
X-470870Y184059D01*
X-470916Y184029D01*
X-470956Y183991D01*
X-471033Y183952D01*
X-471106Y183905D01*
X-471159Y183889D01*
X-471208Y183864D01*
X-471293Y183848D01*
X-471376Y183822D01*
X-471431Y183821D01*
X-471485Y183811D01*
X-471571Y183820D01*
X-471658Y183818D01*
X-471711Y183833D01*
X-471765Y183838D01*
X-471846Y183870D01*
X-471930Y183894D01*
X-471976Y183922D01*
X-472027Y183943D01*
X-472096Y183996D01*
X-472170Y184042D01*
X-472206Y184083D01*
X-472250Y184116D01*
X-472301Y184187D01*
X-472359Y184251D01*
X-472383Y184300D01*
X-472415Y184345D01*
X-472444Y184427D01*
X-472482Y184505D01*
X-472490Y184555D01*
X-472509Y184611D01*
X-472516Y184724D01*
X-472529Y184809D01*
X-472529Y242656D01*
X-524862Y294989D01*
X-553666Y294989D01*
X-553761Y295002D01*
X-553858Y295007D01*
X-553901Y295022D01*
X-553946Y295029D01*
X-554033Y295068D01*
X-554124Y295100D01*
X-554158Y295125D01*
X-554203Y295145D01*
X-554300Y295228D01*
X-554373Y295281D01*
X-593137Y334045D01*
X-593194Y334122D01*
X-593259Y334193D01*
X-593279Y334234D01*
X-593306Y334271D01*
X-593340Y334361D01*
X-593382Y334447D01*
X-593388Y334489D01*
X-593405Y334534D01*
X-593415Y334662D01*
X-593429Y334752D01*
X-593429Y345100D01*
X-593420Y345164D01*
X-593421Y345228D01*
X-593400Y345303D01*
X-593389Y345379D01*
X-593363Y345438D01*
X-593346Y345500D01*
X-593305Y345566D01*
X-593273Y345636D01*
X-593231Y345685D01*
X-593198Y345740D01*
X-593140Y345792D01*
X-593090Y345850D01*
X-593036Y345886D01*
X-592988Y345929D01*
X-592919Y345962D01*
X-592854Y346005D01*
X-592792Y346024D01*
X-592735Y346052D01*
X-592665Y346063D01*
X-592584Y346087D01*
X-592499Y346088D01*
X-592430Y346099D01*
X-589638Y346099D01*
X-588349Y347388D01*
X-588349Y389212D01*
X-589638Y390501D01*
X-604162Y390501D01*
X-605451Y389212D01*
X-605451Y347388D01*
X-604162Y346099D01*
X-601370Y346099D01*
X-601306Y346090D01*
X-601242Y346091D01*
X-601167Y346070D01*
X-601091Y346059D01*
X-601032Y346033D01*
X-600970Y346016D01*
X-600904Y345975D01*
X-600834Y345943D01*
X-600785Y345901D01*
X-600730Y345868D01*
X-600678Y345810D01*
X-600620Y345760D01*
X-600584Y345706D01*
X-600541Y345658D01*
X-600508Y345589D01*
X-600465Y345524D01*
X-600446Y345462D01*
X-600418Y345405D01*
X-600407Y345335D01*
X-600383Y345254D01*
X-600382Y345169D01*
X-600371Y345100D01*
X-600371Y334691D01*
X-600375Y334660D01*
X-600373Y334627D01*
X-600395Y334520D01*
X-600411Y334412D01*
X-600424Y334383D01*
X-600430Y334351D01*
X-600482Y334255D01*
X-600527Y334155D01*
X-600548Y334131D01*
X-600563Y334102D01*
X-600639Y334024D01*
X-600710Y333941D01*
X-600737Y333923D01*
X-600760Y333900D01*
X-600855Y333847D01*
X-600946Y333787D01*
X-600977Y333777D01*
X-601005Y333761D01*
X-601112Y333736D01*
X-601216Y333704D01*
X-601248Y333704D01*
X-601279Y333696D01*
X-601389Y333702D01*
X-601498Y333700D01*
X-601529Y333709D01*
X-601561Y333711D01*
X-601664Y333747D01*
X-601770Y333776D01*
X-601797Y333793D01*
X-601828Y333803D01*
X-601901Y333856D01*
X-602010Y333924D01*
X-602042Y333960D01*
X-602077Y333985D01*
X-613908Y345816D01*
X-613947Y345868D01*
X-613993Y345913D01*
X-614031Y345980D01*
X-614077Y346042D01*
X-614100Y346102D01*
X-614132Y346158D01*
X-614150Y346233D01*
X-614177Y346306D01*
X-614182Y346370D01*
X-614197Y346433D01*
X-614193Y346510D01*
X-614199Y346587D01*
X-614186Y346650D01*
X-614182Y346714D01*
X-614157Y346787D01*
X-614141Y346863D01*
X-614111Y346920D01*
X-614090Y346981D01*
X-614048Y347037D01*
X-614009Y347112D01*
X-613949Y347173D01*
X-613908Y347230D01*
X-613749Y347388D01*
X-613749Y389212D01*
X-615038Y390501D01*
X-629562Y390501D01*
X-630851Y389212D01*
X-630851Y347388D01*
X-629562Y346099D01*
X-624422Y346099D01*
X-624327Y346086D01*
X-624230Y346081D01*
X-624187Y346066D01*
X-624142Y346059D01*
X-624055Y346020D01*
X-623964Y345988D01*
X-623930Y345963D01*
X-623885Y345943D01*
X-623788Y345860D01*
X-623715Y345807D01*
X-617085Y339177D01*
X-617066Y339151D01*
X-617041Y339130D01*
X-616981Y339038D01*
X-616916Y338951D01*
X-616904Y338921D01*
X-616887Y338894D01*
X-616855Y338789D01*
X-616816Y338687D01*
X-616814Y338655D01*
X-616804Y338624D01*
X-616803Y338515D01*
X-616794Y338406D01*
X-616801Y338374D01*
X-616800Y338342D01*
X-616830Y338237D01*
X-616852Y338130D01*
X-616867Y338101D01*
X-616876Y338070D01*
X-616933Y337977D01*
X-616984Y337881D01*
X-617007Y337858D01*
X-617024Y337830D01*
X-617105Y337757D01*
X-617181Y337679D01*
X-617209Y337663D01*
X-617233Y337641D01*
X-617331Y337594D01*
X-617427Y337540D01*
X-617458Y337532D01*
X-617487Y337518D01*
X-617576Y337504D01*
X-617701Y337475D01*
X-617749Y337477D01*
X-617791Y337471D01*
X-625910Y337471D01*
X-625994Y337483D01*
X-626078Y337485D01*
X-626128Y337502D01*
X-626189Y337511D01*
X-626290Y337556D01*
X-626370Y337583D01*
X-626788Y337799D01*
X-626812Y337817D01*
X-626818Y337820D01*
X-626829Y337829D01*
X-627017Y337963D01*
X-627025Y337973D01*
X-627034Y337980D01*
X-629016Y339962D01*
X-631601Y341033D01*
X-634399Y341033D01*
X-636984Y339962D01*
X-638962Y337984D01*
X-640033Y335399D01*
X-640033Y332601D01*
X-638962Y330016D01*
X-636984Y328038D01*
X-634399Y326967D01*
X-631601Y326967D01*
X-629016Y328038D01*
X-627036Y330018D01*
X-627034Y330020D01*
X-626809Y330189D01*
X-626797Y330194D01*
X-626788Y330200D01*
X-626370Y330417D01*
X-626290Y330445D01*
X-626215Y330482D01*
X-626162Y330490D01*
X-626104Y330510D01*
X-625994Y330516D01*
X-625910Y330529D01*
X-625817Y330529D01*
X-625700Y330513D01*
X-625582Y330501D01*
X-625561Y330493D01*
X-625538Y330489D01*
X-625430Y330441D01*
X-625320Y330397D01*
X-625302Y330383D01*
X-625281Y330373D01*
X-625191Y330296D01*
X-625098Y330223D01*
X-625084Y330205D01*
X-625067Y330190D01*
X-625002Y330090D01*
X-624933Y329994D01*
X-624925Y329973D01*
X-624912Y329954D01*
X-624878Y329840D01*
X-624838Y329729D01*
X-624837Y329706D01*
X-624830Y329684D01*
X-624829Y329566D01*
X-624822Y329447D01*
X-624827Y329426D01*
X-624826Y329402D01*
X-624876Y329223D01*
X-624894Y329148D01*
X-626033Y326399D01*
X-626033Y323601D01*
X-624962Y321016D01*
X-622984Y319038D01*
X-620399Y317967D01*
X-617601Y317967D01*
X-615584Y318803D01*
X-615574Y318805D01*
X-615566Y318810D01*
X-615437Y318840D01*
X-615310Y318873D01*
X-615301Y318873D01*
X-615292Y318875D01*
X-615159Y318868D01*
X-615029Y318864D01*
X-615020Y318861D01*
X-615010Y318861D01*
X-614886Y318817D01*
X-614760Y318777D01*
X-614753Y318771D01*
X-614744Y318768D01*
X-614682Y318723D01*
X-614527Y318618D01*
X-614512Y318599D01*
X-614495Y318586D01*
X-576647Y280739D01*
X-576628Y280713D01*
X-576603Y280692D01*
X-576543Y280600D01*
X-576478Y280513D01*
X-576466Y280483D01*
X-576449Y280456D01*
X-576417Y280351D01*
X-576378Y280249D01*
X-576376Y280217D01*
X-576366Y280186D01*
X-576365Y280077D01*
X-576356Y279968D01*
X-576363Y279936D01*
X-576362Y279904D01*
X-576392Y279799D01*
X-576414Y279692D01*
X-576429Y279663D01*
X-576438Y279632D01*
X-576495Y279539D01*
X-576546Y279443D01*
X-576569Y279420D01*
X-576586Y279392D01*
X-576667Y279319D01*
X-576743Y279241D01*
X-576771Y279225D01*
X-576795Y279203D01*
X-576893Y279156D01*
X-576989Y279102D01*
X-577020Y279094D01*
X-577049Y279080D01*
X-577138Y279066D01*
X-577263Y279037D01*
X-577311Y279039D01*
X-577353Y279033D01*
X-578399Y279033D01*
X-580984Y277962D01*
X-582962Y275984D01*
X-584033Y273399D01*
X-584033Y270601D01*
X-582962Y268016D01*
X-580980Y266034D01*
X-580811Y265809D01*
X-580806Y265797D01*
X-580799Y265788D01*
X-580583Y265370D01*
X-580555Y265290D01*
X-580518Y265215D01*
X-580510Y265162D01*
X-580490Y265104D01*
X-580484Y264994D01*
X-580471Y264910D01*
X-580471Y87278D01*
X-532722Y39529D01*
X-349278Y39529D01*
G37*
%LPD*%
G36*
X-522941Y61182D02*
X-522941Y61182D01*
X-523038Y61187D01*
X-523081Y61202D01*
X-523126Y61209D01*
X-523213Y61248D01*
X-523304Y61280D01*
X-523338Y61305D01*
X-523383Y61325D01*
X-523480Y61408D01*
X-523553Y61461D01*
X-558497Y96405D01*
X-558554Y96482D01*
X-558619Y96553D01*
X-558639Y96594D01*
X-558666Y96631D01*
X-558700Y96721D01*
X-558742Y96807D01*
X-558748Y96849D01*
X-558765Y96894D01*
X-558775Y97022D01*
X-558789Y97112D01*
X-558789Y259741D01*
X-558780Y259803D01*
X-558781Y259850D01*
X-558774Y259877D01*
X-558771Y259932D01*
X-558756Y259975D01*
X-558749Y260020D01*
X-558710Y260108D01*
X-558709Y260109D01*
X-558706Y260122D01*
X-558704Y260125D01*
X-558678Y260198D01*
X-558653Y260233D01*
X-558633Y260277D01*
X-558550Y260374D01*
X-558497Y260447D01*
X-555747Y263197D01*
X-555747Y267930D01*
X-555734Y268025D01*
X-555729Y268122D01*
X-555714Y268165D01*
X-555707Y268210D01*
X-555668Y268297D01*
X-555636Y268388D01*
X-555611Y268422D01*
X-555591Y268467D01*
X-555508Y268564D01*
X-555455Y268637D01*
X-552225Y271866D01*
X-552174Y271905D01*
X-552129Y271951D01*
X-552062Y271989D01*
X-552000Y272036D01*
X-551939Y272058D01*
X-551884Y272090D01*
X-551808Y272108D01*
X-551736Y272135D01*
X-551672Y272140D01*
X-551609Y272155D01*
X-551532Y272151D01*
X-551455Y272157D01*
X-551392Y272144D01*
X-551328Y272141D01*
X-551254Y272115D01*
X-551179Y272099D01*
X-551122Y272069D01*
X-551061Y272048D01*
X-551004Y272007D01*
X-550930Y271967D01*
X-550869Y271908D01*
X-550812Y271866D01*
X-550484Y271538D01*
X-547899Y270467D01*
X-545101Y270467D01*
X-542516Y271538D01*
X-540538Y273516D01*
X-539467Y276101D01*
X-539467Y278899D01*
X-540399Y281148D01*
X-540428Y281262D01*
X-540463Y281376D01*
X-540463Y281399D01*
X-540469Y281421D01*
X-540465Y281539D01*
X-540467Y281658D01*
X-540460Y281680D01*
X-540460Y281703D01*
X-540423Y281815D01*
X-540391Y281930D01*
X-540379Y281949D01*
X-540372Y281971D01*
X-540306Y282069D01*
X-540243Y282170D01*
X-540226Y282185D01*
X-540213Y282204D01*
X-540122Y282279D01*
X-540034Y282359D01*
X-540013Y282369D01*
X-539996Y282383D01*
X-539887Y282430D01*
X-539780Y282482D01*
X-539759Y282485D01*
X-539737Y282495D01*
X-539552Y282517D01*
X-539476Y282529D01*
X-530852Y282529D01*
X-530757Y282516D01*
X-530660Y282511D01*
X-530617Y282496D01*
X-530572Y282489D01*
X-530485Y282450D01*
X-530394Y282418D01*
X-530360Y282393D01*
X-530315Y282373D01*
X-530218Y282290D01*
X-530145Y282237D01*
X-485763Y237855D01*
X-485706Y237778D01*
X-485641Y237707D01*
X-485621Y237666D01*
X-485594Y237629D01*
X-485560Y237539D01*
X-485518Y237453D01*
X-485512Y237411D01*
X-485495Y237366D01*
X-485485Y237238D01*
X-485471Y237148D01*
X-485471Y203032D01*
X-485480Y202968D01*
X-485479Y202904D01*
X-485500Y202829D01*
X-485511Y202753D01*
X-485537Y202694D01*
X-485554Y202632D01*
X-485595Y202566D01*
X-485627Y202496D01*
X-485669Y202447D01*
X-485702Y202392D01*
X-485760Y202340D01*
X-485810Y202282D01*
X-485864Y202246D01*
X-485912Y202203D01*
X-485981Y202170D01*
X-486046Y202127D01*
X-486108Y202108D01*
X-486165Y202080D01*
X-486235Y202069D01*
X-486316Y202045D01*
X-486372Y202044D01*
X-488984Y200962D01*
X-490962Y198984D01*
X-492033Y196399D01*
X-492033Y193601D01*
X-490962Y191016D01*
X-488984Y189038D01*
X-486399Y187967D01*
X-483601Y187967D01*
X-480852Y189106D01*
X-480738Y189135D01*
X-480624Y189170D01*
X-480601Y189170D01*
X-480579Y189176D01*
X-480461Y189172D01*
X-480342Y189174D01*
X-480320Y189168D01*
X-480297Y189167D01*
X-480185Y189130D01*
X-480070Y189098D01*
X-480051Y189086D01*
X-480029Y189079D01*
X-479931Y189013D01*
X-479830Y188950D01*
X-479815Y188933D01*
X-479796Y188921D01*
X-479721Y188829D01*
X-479641Y188741D01*
X-479631Y188720D01*
X-479617Y188703D01*
X-479570Y188594D01*
X-479518Y188487D01*
X-479515Y188466D01*
X-479505Y188444D01*
X-479483Y188259D01*
X-479471Y188183D01*
X-479471Y147562D01*
X-477145Y145237D01*
X-474363Y142455D01*
X-474306Y142378D01*
X-474241Y142307D01*
X-474221Y142266D01*
X-474194Y142229D01*
X-474160Y142139D01*
X-474118Y142053D01*
X-474112Y142011D01*
X-474095Y141966D01*
X-474085Y141838D01*
X-474071Y141748D01*
X-474071Y130340D01*
X-474080Y130276D01*
X-474079Y130212D01*
X-474100Y130137D01*
X-474111Y130061D01*
X-474137Y130002D01*
X-474154Y129940D01*
X-474195Y129874D01*
X-474227Y129804D01*
X-474269Y129755D01*
X-474302Y129700D01*
X-474360Y129648D01*
X-474410Y129590D01*
X-474464Y129554D01*
X-474512Y129511D01*
X-474581Y129478D01*
X-474601Y129465D01*
X-474601Y114300D01*
X-474601Y99133D01*
X-474534Y99103D01*
X-474485Y99061D01*
X-474430Y99028D01*
X-474378Y98970D01*
X-474320Y98920D01*
X-474284Y98866D01*
X-474241Y98818D01*
X-474208Y98749D01*
X-474165Y98684D01*
X-474146Y98622D01*
X-474118Y98565D01*
X-474107Y98495D01*
X-474083Y98414D01*
X-474082Y98329D01*
X-474071Y98260D01*
X-474071Y94825D01*
X-474076Y94791D01*
X-474073Y94757D01*
X-474079Y94730D01*
X-474079Y94718D01*
X-474094Y94665D01*
X-474111Y94546D01*
X-474131Y94500D01*
X-474141Y94456D01*
X-474495Y93566D01*
X-474519Y93524D01*
X-474535Y93478D01*
X-474583Y93412D01*
X-474635Y93322D01*
X-474683Y93275D01*
X-474717Y93229D01*
X-475962Y91984D01*
X-477033Y89399D01*
X-477033Y86601D01*
X-475962Y84016D01*
X-473984Y82038D01*
X-471399Y80967D01*
X-468601Y80967D01*
X-466016Y82038D01*
X-464038Y84016D01*
X-463113Y86250D01*
X-463112Y86252D01*
X-463108Y86258D01*
X-463052Y86352D01*
X-462997Y86457D01*
X-462981Y86473D01*
X-462969Y86493D01*
X-462883Y86574D01*
X-462800Y86659D01*
X-462780Y86670D01*
X-462763Y86686D01*
X-462658Y86740D01*
X-462554Y86798D01*
X-462532Y86803D01*
X-462512Y86814D01*
X-462395Y86836D01*
X-462280Y86863D01*
X-462257Y86862D01*
X-462235Y86866D01*
X-462117Y86855D01*
X-461998Y86849D01*
X-461977Y86841D01*
X-461954Y86839D01*
X-461844Y86795D01*
X-461732Y86756D01*
X-461714Y86743D01*
X-461692Y86735D01*
X-461648Y86701D01*
X-461638Y86696D01*
X-461592Y86657D01*
X-461545Y86620D01*
X-461483Y86574D01*
X-442136Y67227D01*
X-372864Y67227D01*
X-362597Y77494D01*
X-362574Y77518D01*
X-362502Y77572D01*
X-362436Y77633D01*
X-362423Y77639D01*
X-362247Y77820D01*
X-362238Y77827D01*
X-362232Y77835D01*
X-362127Y77913D01*
X-362023Y77993D01*
X-362013Y77996D01*
X-362005Y78003D01*
X-361929Y78029D01*
X-361761Y78095D01*
X-361735Y78098D01*
X-361714Y78105D01*
X-361694Y78109D01*
X-361113Y78954D01*
X-361044Y79030D01*
X-360996Y79096D01*
X-360855Y79237D01*
X-359928Y80164D01*
X-359895Y80189D01*
X-359867Y80220D01*
X-359793Y80265D01*
X-359702Y80333D01*
X-359647Y80354D01*
X-359604Y80380D01*
X-358016Y81038D01*
X-356038Y83016D01*
X-354967Y85601D01*
X-354967Y88399D01*
X-356038Y90984D01*
X-358016Y92962D01*
X-360601Y94033D01*
X-363399Y94033D01*
X-365984Y92962D01*
X-367962Y90984D01*
X-369033Y88399D01*
X-369033Y85601D01*
X-367904Y82877D01*
X-367902Y82867D01*
X-367897Y82859D01*
X-367867Y82730D01*
X-367834Y82603D01*
X-367834Y82594D01*
X-367832Y82585D01*
X-367839Y82452D01*
X-367843Y82321D01*
X-367846Y82313D01*
X-367847Y82303D01*
X-367890Y82178D01*
X-367931Y82053D01*
X-367936Y82045D01*
X-367939Y82037D01*
X-367985Y81974D01*
X-368089Y81820D01*
X-368108Y81805D01*
X-368121Y81788D01*
X-375447Y74461D01*
X-375524Y74404D01*
X-375595Y74339D01*
X-375636Y74319D01*
X-375673Y74292D01*
X-375763Y74258D01*
X-375849Y74216D01*
X-375891Y74210D01*
X-375936Y74193D01*
X-376064Y74183D01*
X-376154Y74169D01*
X-438846Y74169D01*
X-438941Y74182D01*
X-439038Y74187D01*
X-439081Y74202D01*
X-439126Y74209D01*
X-439213Y74248D01*
X-439304Y74280D01*
X-439338Y74305D01*
X-439383Y74325D01*
X-439480Y74408D01*
X-439553Y74461D01*
X-461837Y96745D01*
X-461894Y96822D01*
X-461959Y96893D01*
X-461979Y96934D01*
X-462006Y96971D01*
X-462040Y97061D01*
X-462082Y97147D01*
X-462088Y97189D01*
X-462105Y97234D01*
X-462115Y97362D01*
X-462129Y97452D01*
X-462129Y98600D01*
X-462120Y98664D01*
X-462121Y98728D01*
X-462100Y98803D01*
X-462089Y98879D01*
X-462063Y98938D01*
X-462046Y99000D01*
X-462005Y99066D01*
X-461973Y99136D01*
X-461931Y99185D01*
X-461898Y99240D01*
X-461840Y99292D01*
X-461790Y99350D01*
X-461736Y99386D01*
X-461688Y99429D01*
X-461619Y99462D01*
X-461554Y99505D01*
X-461492Y99524D01*
X-461435Y99552D01*
X-461365Y99563D01*
X-461284Y99587D01*
X-461199Y99588D01*
X-461130Y99599D01*
X-453387Y99599D01*
X-453282Y99584D01*
X-453175Y99576D01*
X-453145Y99565D01*
X-453108Y99559D01*
X-452973Y99498D01*
X-452888Y99465D01*
X-452831Y99432D01*
X-452185Y99259D01*
X-451599Y99259D01*
X-451599Y114300D01*
X-451599Y129467D01*
X-451666Y129497D01*
X-451715Y129539D01*
X-451770Y129572D01*
X-451822Y129630D01*
X-451880Y129680D01*
X-451916Y129734D01*
X-451959Y129782D01*
X-451992Y129851D01*
X-452035Y129916D01*
X-452054Y129978D01*
X-452082Y130035D01*
X-452093Y130105D01*
X-452117Y130186D01*
X-452118Y130271D01*
X-452129Y130340D01*
X-452129Y145068D01*
X-452125Y145100D01*
X-452127Y145132D01*
X-452105Y145239D01*
X-452089Y145347D01*
X-452076Y145376D01*
X-452070Y145408D01*
X-452018Y145504D01*
X-451973Y145604D01*
X-451952Y145628D01*
X-451937Y145657D01*
X-451861Y145735D01*
X-451790Y145818D01*
X-451763Y145836D01*
X-451740Y145859D01*
X-451645Y145913D01*
X-451554Y145973D01*
X-451523Y145982D01*
X-451495Y145998D01*
X-451389Y146023D01*
X-451284Y146055D01*
X-451252Y146055D01*
X-451221Y146063D01*
X-451111Y146057D01*
X-451002Y146059D01*
X-450971Y146050D01*
X-450939Y146048D01*
X-450836Y146013D01*
X-450730Y145984D01*
X-450703Y145967D01*
X-450672Y145956D01*
X-450599Y145903D01*
X-450490Y145835D01*
X-450458Y145799D01*
X-450423Y145774D01*
X-449643Y144994D01*
X-449586Y144917D01*
X-449521Y144846D01*
X-449501Y144805D01*
X-449474Y144769D01*
X-449440Y144679D01*
X-449398Y144592D01*
X-449392Y144550D01*
X-449375Y144505D01*
X-449365Y144377D01*
X-449351Y144288D01*
X-449351Y130340D01*
X-449360Y130276D01*
X-449359Y130212D01*
X-449380Y130137D01*
X-449391Y130061D01*
X-449417Y130002D01*
X-449434Y129940D01*
X-449475Y129874D01*
X-449507Y129804D01*
X-449549Y129755D01*
X-449582Y129700D01*
X-449601Y129684D01*
X-449601Y114300D01*
X-449601Y99259D01*
X-449015Y99259D01*
X-448369Y99432D01*
X-448312Y99465D01*
X-448213Y99505D01*
X-448117Y99552D01*
X-448085Y99557D01*
X-448051Y99571D01*
X-447903Y99585D01*
X-447813Y99599D01*
X-428387Y99599D01*
X-428282Y99584D01*
X-428175Y99576D01*
X-428145Y99565D01*
X-428108Y99559D01*
X-427973Y99498D01*
X-427888Y99465D01*
X-427831Y99432D01*
X-427185Y99259D01*
X-426599Y99259D01*
X-426599Y114300D01*
X-426599Y129467D01*
X-426666Y129497D01*
X-426715Y129539D01*
X-426770Y129572D01*
X-426822Y129630D01*
X-426880Y129680D01*
X-426916Y129734D01*
X-426959Y129782D01*
X-426992Y129851D01*
X-427035Y129916D01*
X-427054Y129978D01*
X-427082Y130035D01*
X-427093Y130105D01*
X-427117Y130186D01*
X-427118Y130271D01*
X-427129Y130340D01*
X-427129Y156017D01*
X-427113Y156134D01*
X-427101Y156252D01*
X-427093Y156274D01*
X-427089Y156296D01*
X-427041Y156404D01*
X-426997Y156514D01*
X-426983Y156532D01*
X-426973Y156553D01*
X-426896Y156643D01*
X-426823Y156737D01*
X-426805Y156750D01*
X-426790Y156767D01*
X-426690Y156832D01*
X-426594Y156902D01*
X-426573Y156909D01*
X-426554Y156922D01*
X-426440Y156956D01*
X-426329Y156996D01*
X-426306Y156998D01*
X-426284Y157004D01*
X-426166Y157006D01*
X-426047Y157013D01*
X-426026Y157008D01*
X-426002Y157008D01*
X-425823Y156958D01*
X-425748Y156940D01*
X-424795Y156545D01*
X-424728Y156506D01*
X-424657Y156475D01*
X-424612Y156437D01*
X-424552Y156402D01*
X-424483Y156328D01*
X-424422Y156276D01*
X-424315Y156153D01*
X-424282Y156102D01*
X-424241Y156057D01*
X-424206Y155984D01*
X-424162Y155916D01*
X-424145Y155858D01*
X-424118Y155803D01*
X-424107Y155731D01*
X-424082Y155645D01*
X-424081Y155565D01*
X-424071Y155499D01*
X-424071Y130340D01*
X-424080Y130276D01*
X-424079Y130212D01*
X-424100Y130137D01*
X-424111Y130061D01*
X-424137Y130002D01*
X-424154Y129940D01*
X-424195Y129874D01*
X-424227Y129804D01*
X-424269Y129755D01*
X-424302Y129700D01*
X-424360Y129648D01*
X-424410Y129590D01*
X-424464Y129554D01*
X-424512Y129511D01*
X-424581Y129478D01*
X-424601Y129465D01*
X-424601Y114300D01*
X-424601Y99259D01*
X-424015Y99259D01*
X-423369Y99432D01*
X-423312Y99465D01*
X-423213Y99505D01*
X-423117Y99552D01*
X-423085Y99557D01*
X-423051Y99571D01*
X-422903Y99585D01*
X-422813Y99599D01*
X-403387Y99599D01*
X-403282Y99584D01*
X-403175Y99576D01*
X-403145Y99565D01*
X-403108Y99559D01*
X-402973Y99498D01*
X-402888Y99465D01*
X-402831Y99432D01*
X-402185Y99259D01*
X-401599Y99259D01*
X-401599Y114300D01*
X-401599Y129467D01*
X-401666Y129497D01*
X-401715Y129539D01*
X-401770Y129572D01*
X-401822Y129630D01*
X-401880Y129680D01*
X-401916Y129734D01*
X-401959Y129782D01*
X-401992Y129851D01*
X-402035Y129916D01*
X-402054Y129978D01*
X-402082Y130035D01*
X-402093Y130105D01*
X-402117Y130186D01*
X-402118Y130271D01*
X-402129Y130340D01*
X-402129Y134161D01*
X-402116Y134256D01*
X-402111Y134352D01*
X-402096Y134395D01*
X-402089Y134440D01*
X-402050Y134527D01*
X-402018Y134618D01*
X-401993Y134653D01*
X-401973Y134697D01*
X-401890Y134794D01*
X-401837Y134867D01*
X-400777Y135927D01*
X-400751Y135947D01*
X-400730Y135971D01*
X-400638Y136031D01*
X-400551Y136097D01*
X-400521Y136108D01*
X-400494Y136126D01*
X-400389Y136158D01*
X-400287Y136196D01*
X-400255Y136199D01*
X-400224Y136208D01*
X-400115Y136210D01*
X-400006Y136218D01*
X-399974Y136211D01*
X-399942Y136212D01*
X-399837Y136183D01*
X-399730Y136160D01*
X-399701Y136145D01*
X-399670Y136137D01*
X-399577Y136079D01*
X-399481Y136028D01*
X-399458Y136005D01*
X-399430Y135989D01*
X-399357Y135908D01*
X-399279Y135831D01*
X-399263Y135803D01*
X-399241Y135779D01*
X-399194Y135681D01*
X-399140Y135586D01*
X-399132Y135554D01*
X-399118Y135525D01*
X-399104Y135436D01*
X-399075Y135311D01*
X-399077Y135263D01*
X-399071Y135221D01*
X-399071Y130340D01*
X-399080Y130276D01*
X-399079Y130212D01*
X-399100Y130137D01*
X-399111Y130061D01*
X-399137Y130002D01*
X-399154Y129940D01*
X-399195Y129874D01*
X-399227Y129804D01*
X-399269Y129755D01*
X-399302Y129700D01*
X-399360Y129648D01*
X-399410Y129590D01*
X-399464Y129554D01*
X-399512Y129511D01*
X-399581Y129478D01*
X-399601Y129465D01*
X-399601Y114300D01*
X-399601Y99259D01*
X-399015Y99259D01*
X-398369Y99432D01*
X-398312Y99465D01*
X-398213Y99505D01*
X-398117Y99552D01*
X-398085Y99557D01*
X-398051Y99571D01*
X-397903Y99585D01*
X-397813Y99599D01*
X-388721Y99599D01*
X-388690Y99595D01*
X-388657Y99597D01*
X-388550Y99575D01*
X-388442Y99559D01*
X-388413Y99546D01*
X-388381Y99540D01*
X-388285Y99488D01*
X-388185Y99443D01*
X-388161Y99422D01*
X-388132Y99407D01*
X-388054Y99331D01*
X-387971Y99260D01*
X-387953Y99233D01*
X-387930Y99210D01*
X-387877Y99115D01*
X-387817Y99024D01*
X-387807Y98993D01*
X-387791Y98965D01*
X-387766Y98858D01*
X-387734Y98754D01*
X-387734Y98722D01*
X-387726Y98691D01*
X-387732Y98581D01*
X-387730Y98472D01*
X-387739Y98441D01*
X-387741Y98409D01*
X-387777Y98306D01*
X-387806Y98200D01*
X-387823Y98173D01*
X-387833Y98142D01*
X-387886Y98069D01*
X-387954Y97960D01*
X-387990Y97928D01*
X-388015Y97893D01*
X-394775Y91134D01*
X-394826Y91095D01*
X-394871Y91049D01*
X-394901Y91032D01*
X-394915Y91019D01*
X-394949Y91003D01*
X-395000Y90964D01*
X-395060Y90942D01*
X-395116Y90910D01*
X-395164Y90899D01*
X-395169Y90896D01*
X-395184Y90894D01*
X-395192Y90892D01*
X-395264Y90865D01*
X-395328Y90860D01*
X-395391Y90845D01*
X-395468Y90849D01*
X-395545Y90843D01*
X-395608Y90856D01*
X-395672Y90859D01*
X-395746Y90885D01*
X-395754Y90887D01*
X-395768Y90889D01*
X-395772Y90890D01*
X-395821Y90901D01*
X-395878Y90931D01*
X-395939Y90952D01*
X-395989Y90988D01*
X-396025Y91005D01*
X-396038Y91016D01*
X-396070Y91033D01*
X-396131Y91092D01*
X-396188Y91134D01*
X-397016Y91962D01*
X-399601Y93033D01*
X-402399Y93033D01*
X-404984Y91962D01*
X-406962Y89984D01*
X-408033Y87399D01*
X-408033Y84601D01*
X-406962Y82016D01*
X-404984Y80038D01*
X-402399Y78967D01*
X-399601Y78967D01*
X-397016Y80038D01*
X-395818Y81237D01*
X-395741Y81294D01*
X-395669Y81359D01*
X-395628Y81379D01*
X-395592Y81406D01*
X-395502Y81440D01*
X-395416Y81482D01*
X-395374Y81488D01*
X-395328Y81505D01*
X-395201Y81515D01*
X-395111Y81529D01*
X-394562Y81529D01*
X-393317Y82775D01*
X-393249Y82826D01*
X-393188Y82884D01*
X-393140Y82907D01*
X-393091Y82944D01*
X-392988Y82983D01*
X-392912Y83021D01*
X-392581Y83126D01*
X-392571Y83144D01*
X-392565Y83153D01*
X-392561Y83163D01*
X-392483Y83267D01*
X-392407Y83374D01*
X-392399Y83380D01*
X-392393Y83389D01*
X-392328Y83436D01*
X-392186Y83548D01*
X-392162Y83558D01*
X-392144Y83571D01*
X-392126Y83581D01*
X-392021Y83912D01*
X-391984Y83988D01*
X-391957Y84068D01*
X-391925Y84111D01*
X-391899Y84166D01*
X-391825Y84248D01*
X-391775Y84317D01*
X-377125Y98967D01*
X-377048Y99024D01*
X-376977Y99089D01*
X-376936Y99109D01*
X-376899Y99136D01*
X-376809Y99170D01*
X-376723Y99212D01*
X-376681Y99218D01*
X-376636Y99235D01*
X-376599Y99238D01*
X-376599Y114300D01*
X-376599Y129341D01*
X-377185Y129341D01*
X-377831Y129168D01*
X-377888Y129135D01*
X-377987Y129095D01*
X-378083Y129048D01*
X-378115Y129043D01*
X-378149Y129029D01*
X-378297Y129015D01*
X-378387Y129001D01*
X-378679Y129001D01*
X-378710Y129005D01*
X-378743Y129003D01*
X-378850Y129025D01*
X-378958Y129041D01*
X-378987Y129054D01*
X-379019Y129060D01*
X-379115Y129112D01*
X-379215Y129157D01*
X-379239Y129178D01*
X-379268Y129193D01*
X-379346Y129269D01*
X-379429Y129340D01*
X-379447Y129367D01*
X-379470Y129390D01*
X-379523Y129485D01*
X-379583Y129576D01*
X-379593Y129607D01*
X-379609Y129635D01*
X-379634Y129741D01*
X-379666Y129846D01*
X-379666Y129878D01*
X-379674Y129909D01*
X-379668Y130019D01*
X-379670Y130128D01*
X-379661Y130159D01*
X-379659Y130191D01*
X-379623Y130294D01*
X-379594Y130400D01*
X-379577Y130427D01*
X-379567Y130458D01*
X-379514Y130531D01*
X-379446Y130640D01*
X-379410Y130672D01*
X-379385Y130707D01*
X-375855Y134236D01*
X-375777Y134315D01*
X-375751Y134334D01*
X-375730Y134359D01*
X-375638Y134419D01*
X-375551Y134484D01*
X-375521Y134496D01*
X-375494Y134513D01*
X-375390Y134545D01*
X-375287Y134584D01*
X-375255Y134586D01*
X-375224Y134596D01*
X-375115Y134597D01*
X-375006Y134606D01*
X-374974Y134599D01*
X-374942Y134600D01*
X-374837Y134570D01*
X-374730Y134548D01*
X-374701Y134533D01*
X-374670Y134524D01*
X-374577Y134467D01*
X-374481Y134416D01*
X-374458Y134393D01*
X-374430Y134376D01*
X-374357Y134295D01*
X-374279Y134219D01*
X-374263Y134191D01*
X-374241Y134167D01*
X-374194Y134069D01*
X-374140Y133974D01*
X-374132Y133942D01*
X-374118Y133913D01*
X-374104Y133824D01*
X-374075Y133699D01*
X-374077Y133651D01*
X-374071Y133609D01*
X-374071Y130340D01*
X-374080Y130276D01*
X-374079Y130212D01*
X-374100Y130137D01*
X-374111Y130061D01*
X-374137Y130002D01*
X-374154Y129940D01*
X-374195Y129874D01*
X-374227Y129804D01*
X-374269Y129755D01*
X-374302Y129700D01*
X-374360Y129648D01*
X-374410Y129590D01*
X-374464Y129554D01*
X-374512Y129511D01*
X-374581Y129478D01*
X-374601Y129465D01*
X-374601Y114300D01*
X-374601Y99259D01*
X-374015Y99259D01*
X-373369Y99432D01*
X-373312Y99465D01*
X-373213Y99505D01*
X-373117Y99552D01*
X-373085Y99557D01*
X-373051Y99571D01*
X-372903Y99585D01*
X-372813Y99599D01*
X-360090Y99599D01*
X-360026Y99590D01*
X-359962Y99591D01*
X-359887Y99570D01*
X-359811Y99559D01*
X-359752Y99533D01*
X-359690Y99516D01*
X-359624Y99475D01*
X-359554Y99443D01*
X-359505Y99401D01*
X-359450Y99368D01*
X-359398Y99310D01*
X-359340Y99260D01*
X-359304Y99206D01*
X-359261Y99158D01*
X-359228Y99089D01*
X-359185Y99024D01*
X-359166Y98962D01*
X-359138Y98905D01*
X-359127Y98835D01*
X-359103Y98754D01*
X-359102Y98669D01*
X-359091Y98600D01*
X-359091Y96923D01*
X-350461Y88294D01*
X-350404Y88217D01*
X-350339Y88146D01*
X-350319Y88105D01*
X-350292Y88068D01*
X-350258Y87978D01*
X-350216Y87892D01*
X-350210Y87850D01*
X-350193Y87804D01*
X-350183Y87677D01*
X-350169Y87587D01*
X-350169Y71413D01*
X-350182Y71318D01*
X-350187Y71222D01*
X-350202Y71178D01*
X-350209Y71134D01*
X-350248Y71046D01*
X-350280Y70955D01*
X-350305Y70921D01*
X-350325Y70877D01*
X-350408Y70779D01*
X-350461Y70706D01*
X-359706Y61461D01*
X-359783Y61404D01*
X-359854Y61339D01*
X-359895Y61319D01*
X-359932Y61292D01*
X-360022Y61258D01*
X-360108Y61216D01*
X-360150Y61210D01*
X-360196Y61193D01*
X-360323Y61183D01*
X-360413Y61169D01*
X-522846Y61169D01*
X-522941Y61182D01*
G37*
%LPC*%
G36*
X-691303Y280919D02*
X-691303Y280919D01*
X-684161Y282833D01*
X-677758Y286530D01*
X-672530Y291758D01*
X-668833Y298161D01*
X-666919Y305303D01*
X-666919Y312697D01*
X-668833Y319839D01*
X-672530Y326242D01*
X-677758Y331470D01*
X-684161Y335167D01*
X-691303Y337081D01*
X-698697Y337081D01*
X-705839Y335167D01*
X-712242Y331470D01*
X-717470Y326242D01*
X-721167Y319839D01*
X-723081Y312697D01*
X-723081Y305303D01*
X-721167Y298161D01*
X-717470Y291758D01*
X-712242Y286530D01*
X-705839Y282833D01*
X-698697Y280919D01*
X-691303Y280919D01*
G37*
%LPD*%
%LPC*%
G36*
X-39303Y281919D02*
X-39303Y281919D01*
X-32161Y283833D01*
X-25758Y287530D01*
X-20530Y292758D01*
X-16833Y299161D01*
X-14919Y306303D01*
X-14919Y313697D01*
X-16833Y320839D01*
X-20530Y327242D01*
X-25758Y332470D01*
X-32161Y336167D01*
X-39303Y338081D01*
X-46697Y338081D01*
X-53839Y336167D01*
X-60242Y332470D01*
X-65470Y327242D01*
X-69167Y320839D01*
X-71081Y313697D01*
X-71081Y306303D01*
X-69167Y299161D01*
X-65470Y292758D01*
X-60242Y287530D01*
X-53839Y283833D01*
X-46697Y281919D01*
X-39303Y281919D01*
G37*
%LPD*%
%LPC*%
G36*
X-691303Y66919D02*
X-691303Y66919D01*
X-684161Y68833D01*
X-677758Y72530D01*
X-672530Y77758D01*
X-668833Y84161D01*
X-666919Y91303D01*
X-666919Y98697D01*
X-668833Y105839D01*
X-672530Y112242D01*
X-677758Y117470D01*
X-684161Y121167D01*
X-691303Y123081D01*
X-698697Y123081D01*
X-705839Y121167D01*
X-712242Y117470D01*
X-717470Y112242D01*
X-721167Y105839D01*
X-723081Y98697D01*
X-723081Y91303D01*
X-721167Y84161D01*
X-717470Y77758D01*
X-712242Y72530D01*
X-705839Y68833D01*
X-698697Y66919D01*
X-691303Y66919D01*
G37*
%LPD*%
%LPC*%
G36*
X-41303Y67919D02*
X-41303Y67919D01*
X-34161Y69833D01*
X-27758Y73530D01*
X-22530Y78758D01*
X-18833Y85161D01*
X-16919Y92303D01*
X-16919Y99697D01*
X-18833Y106839D01*
X-22530Y113242D01*
X-27758Y118470D01*
X-34161Y122167D01*
X-41303Y124081D01*
X-48697Y124081D01*
X-55839Y122167D01*
X-62242Y118470D01*
X-67470Y113242D01*
X-71167Y106839D01*
X-73081Y99697D01*
X-73081Y92303D01*
X-71167Y85161D01*
X-67470Y78758D01*
X-62242Y73530D01*
X-55839Y69833D01*
X-48697Y67919D01*
X-41303Y67919D01*
G37*
%LPD*%
%LPC*%
G36*
X-525101Y118467D02*
X-525101Y118467D01*
X-522516Y119538D01*
X-520538Y121516D01*
X-519467Y124101D01*
X-519467Y126899D01*
X-520538Y129484D01*
X-522520Y131466D01*
X-522689Y131691D01*
X-522694Y131703D01*
X-522701Y131712D01*
X-522917Y132130D01*
X-522945Y132210D01*
X-522982Y132285D01*
X-522990Y132338D01*
X-523010Y132396D01*
X-523016Y132506D01*
X-523029Y132590D01*
X-523029Y188376D01*
X-523016Y188471D01*
X-523011Y188567D01*
X-522996Y188610D01*
X-522989Y188655D01*
X-522950Y188742D01*
X-522918Y188833D01*
X-522893Y188868D01*
X-522873Y188912D01*
X-522790Y189009D01*
X-522737Y189082D01*
X-522695Y189124D01*
X-522695Y207982D01*
X-522682Y208077D01*
X-522677Y208174D01*
X-522662Y208217D01*
X-522655Y208262D01*
X-522616Y208349D01*
X-522584Y208440D01*
X-522559Y208474D01*
X-522539Y208519D01*
X-522456Y208616D01*
X-522403Y208689D01*
X-514855Y216237D01*
X-514778Y216294D01*
X-514707Y216359D01*
X-514666Y216379D01*
X-514629Y216406D01*
X-514539Y216440D01*
X-514453Y216482D01*
X-514411Y216488D01*
X-514366Y216505D01*
X-514238Y216515D01*
X-514148Y216529D01*
X-512090Y216529D01*
X-512007Y216517D01*
X-511922Y216515D01*
X-511872Y216498D01*
X-511811Y216489D01*
X-511710Y216444D01*
X-511630Y216417D01*
X-511212Y216201D01*
X-510983Y216037D01*
X-510975Y216027D01*
X-510966Y216020D01*
X-508984Y214038D01*
X-506399Y212967D01*
X-503601Y212967D01*
X-501016Y214038D01*
X-499038Y216016D01*
X-497967Y218601D01*
X-497967Y221399D01*
X-499015Y223927D01*
X-499023Y223958D01*
X-499037Y223987D01*
X-499057Y224095D01*
X-499085Y224200D01*
X-499084Y224233D01*
X-499090Y224264D01*
X-499079Y224373D01*
X-499076Y224482D01*
X-499066Y224513D01*
X-499062Y224545D01*
X-499022Y224646D01*
X-498988Y224750D01*
X-498970Y224777D01*
X-498958Y224807D01*
X-498891Y224893D01*
X-498829Y224983D01*
X-498804Y225004D01*
X-498784Y225029D01*
X-498696Y225093D01*
X-498612Y225163D01*
X-498582Y225175D01*
X-498556Y225194D01*
X-498453Y225231D01*
X-498352Y225274D01*
X-498320Y225278D01*
X-498290Y225289D01*
X-498181Y225295D01*
X-498073Y225309D01*
X-498041Y225303D01*
X-498008Y225305D01*
X-497920Y225284D01*
X-497794Y225264D01*
X-497750Y225243D01*
X-497709Y225233D01*
X-497633Y225201D01*
X-494835Y225201D01*
X-492250Y226272D01*
X-490272Y228250D01*
X-489201Y230835D01*
X-489201Y233633D01*
X-490272Y236218D01*
X-492250Y238196D01*
X-494835Y239267D01*
X-497633Y239267D01*
X-499898Y238329D01*
X-499929Y238321D01*
X-499958Y238306D01*
X-500065Y238286D01*
X-500171Y238258D01*
X-500203Y238259D01*
X-500235Y238253D01*
X-500344Y238264D01*
X-500453Y238267D01*
X-500484Y238277D01*
X-500516Y238281D01*
X-500617Y238321D01*
X-500721Y238355D01*
X-500748Y238373D01*
X-500778Y238385D01*
X-500864Y238452D01*
X-500954Y238514D01*
X-500975Y238539D01*
X-501000Y238559D01*
X-501064Y238647D01*
X-501134Y238731D01*
X-501146Y238761D01*
X-501165Y238787D01*
X-501202Y238890D01*
X-501245Y238991D01*
X-501249Y239023D01*
X-501260Y239053D01*
X-501266Y239162D01*
X-501279Y239270D01*
X-501274Y239302D01*
X-501276Y239335D01*
X-501255Y239423D01*
X-501234Y239549D01*
X-501214Y239593D01*
X-501204Y239634D01*
X-500265Y241899D01*
X-500265Y244697D01*
X-501336Y247282D01*
X-503314Y249260D01*
X-505899Y250331D01*
X-508697Y250331D01*
X-511282Y249260D01*
X-513260Y247282D01*
X-514331Y244697D01*
X-514331Y241894D01*
X-514371Y241615D01*
X-514376Y241603D01*
X-514378Y241592D01*
X-514520Y241143D01*
X-514556Y241067D01*
X-514584Y240988D01*
X-514615Y240945D01*
X-514642Y240889D01*
X-514716Y240807D01*
X-514766Y240739D01*
X-542973Y212532D01*
X-543040Y212481D01*
X-543101Y212423D01*
X-543149Y212399D01*
X-543198Y212362D01*
X-543302Y212323D01*
X-543377Y212286D01*
X-543826Y212144D01*
X-544104Y212097D01*
X-544117Y212099D01*
X-544128Y212097D01*
X-546931Y212097D01*
X-549516Y211026D01*
X-551494Y209048D01*
X-552565Y206463D01*
X-552565Y203665D01*
X-551494Y201080D01*
X-549516Y199102D01*
X-546931Y198031D01*
X-544133Y198031D01*
X-541868Y198970D01*
X-541837Y198978D01*
X-541808Y198992D01*
X-541701Y199012D01*
X-541595Y199040D01*
X-541563Y199039D01*
X-541531Y199045D01*
X-541422Y199034D01*
X-541313Y199031D01*
X-541282Y199021D01*
X-541250Y199017D01*
X-541149Y198977D01*
X-541045Y198943D01*
X-541018Y198925D01*
X-540988Y198913D01*
X-540902Y198846D01*
X-540812Y198784D01*
X-540791Y198759D01*
X-540766Y198740D01*
X-540702Y198651D01*
X-540633Y198567D01*
X-540620Y198537D01*
X-540601Y198511D01*
X-540564Y198408D01*
X-540521Y198307D01*
X-540517Y198275D01*
X-540506Y198245D01*
X-540500Y198136D01*
X-540487Y198028D01*
X-540492Y197996D01*
X-540490Y197964D01*
X-540511Y197875D01*
X-540532Y197749D01*
X-540552Y197705D01*
X-540563Y197664D01*
X-541501Y195399D01*
X-541501Y192601D01*
X-540430Y190016D01*
X-538452Y188038D01*
X-535867Y186967D01*
X-533069Y186967D01*
X-531352Y187678D01*
X-531238Y187708D01*
X-531124Y187742D01*
X-531101Y187743D01*
X-531079Y187748D01*
X-530961Y187745D01*
X-530842Y187746D01*
X-530820Y187740D01*
X-530797Y187739D01*
X-530685Y187703D01*
X-530570Y187671D01*
X-530551Y187659D01*
X-530529Y187652D01*
X-530431Y187585D01*
X-530330Y187523D01*
X-530315Y187506D01*
X-530296Y187493D01*
X-530221Y187402D01*
X-530141Y187314D01*
X-530131Y187293D01*
X-530117Y187275D01*
X-530070Y187166D01*
X-530018Y187060D01*
X-530015Y187038D01*
X-530005Y187016D01*
X-529983Y186832D01*
X-529971Y186755D01*
X-529971Y132590D01*
X-529983Y132507D01*
X-529985Y132422D01*
X-530002Y132372D01*
X-530011Y132311D01*
X-530056Y132211D01*
X-530083Y132130D01*
X-530299Y131712D01*
X-530463Y131483D01*
X-530473Y131475D01*
X-530480Y131466D01*
X-532462Y129484D01*
X-533533Y126899D01*
X-533533Y124101D01*
X-532462Y121516D01*
X-530484Y119538D01*
X-527899Y118467D01*
X-525101Y118467D01*
G37*
%LPD*%
%LPC*%
G36*
X-487856Y98237D02*
X-487856Y98237D01*
X-486237Y99856D01*
X-486237Y100767D01*
X-486236Y100778D01*
X-486237Y100788D01*
X-486216Y100918D01*
X-486197Y101046D01*
X-486193Y101056D01*
X-486191Y101067D01*
X-486134Y101185D01*
X-486081Y101303D01*
X-486074Y101311D01*
X-486070Y101321D01*
X-485982Y101419D01*
X-485898Y101517D01*
X-485889Y101523D01*
X-485882Y101531D01*
X-485772Y101600D01*
X-485662Y101672D01*
X-485651Y101675D01*
X-485642Y101681D01*
X-485517Y101716D01*
X-485392Y101754D01*
X-485381Y101754D01*
X-485371Y101757D01*
X-485240Y101756D01*
X-485110Y101758D01*
X-485100Y101755D01*
X-485089Y101755D01*
X-484964Y101718D01*
X-484838Y101683D01*
X-484829Y101677D01*
X-484819Y101674D01*
X-484710Y101603D01*
X-484598Y101535D01*
X-484591Y101527D01*
X-484582Y101521D01*
X-484497Y101422D01*
X-484409Y101325D01*
X-484405Y101315D01*
X-484398Y101307D01*
X-484365Y101234D01*
X-484286Y101072D01*
X-484283Y101048D01*
X-484273Y101025D01*
X-484218Y100819D01*
X-483883Y100240D01*
X-483410Y99767D01*
X-482831Y99432D01*
X-482185Y99259D01*
X-481599Y99259D01*
X-481599Y114300D01*
X-481599Y129341D01*
X-482185Y129341D01*
X-482831Y129168D01*
X-483410Y128833D01*
X-483883Y128360D01*
X-484218Y127781D01*
X-484273Y127575D01*
X-484277Y127565D01*
X-484279Y127554D01*
X-484332Y127435D01*
X-484383Y127315D01*
X-484390Y127307D01*
X-484395Y127297D01*
X-484479Y127198D01*
X-484562Y127097D01*
X-484571Y127091D01*
X-484578Y127083D01*
X-484688Y127011D01*
X-484795Y126937D01*
X-484805Y126934D01*
X-484814Y126928D01*
X-484939Y126890D01*
X-485063Y126849D01*
X-485074Y126849D01*
X-485084Y126846D01*
X-485214Y126844D01*
X-485345Y126840D01*
X-485355Y126842D01*
X-485366Y126842D01*
X-485492Y126877D01*
X-485618Y126909D01*
X-485627Y126914D01*
X-485638Y126917D01*
X-485749Y126986D01*
X-485861Y127052D01*
X-485868Y127060D01*
X-485878Y127065D01*
X-485965Y127163D01*
X-486055Y127257D01*
X-486059Y127267D01*
X-486067Y127275D01*
X-486124Y127392D01*
X-486183Y127508D01*
X-486185Y127519D01*
X-486190Y127528D01*
X-486202Y127608D01*
X-486236Y127785D01*
X-486234Y127809D01*
X-486237Y127833D01*
X-486237Y129144D01*
X-487856Y130763D01*
X-510144Y130763D01*
X-511763Y129144D01*
X-511763Y99856D01*
X-510144Y98237D01*
X-507856Y98237D01*
X-506237Y99856D01*
X-506237Y124238D01*
X-506228Y124302D01*
X-506229Y124366D01*
X-506208Y124441D01*
X-506197Y124517D01*
X-506171Y124576D01*
X-506154Y124638D01*
X-506113Y124704D01*
X-506081Y124774D01*
X-506039Y124823D01*
X-506006Y124878D01*
X-505948Y124930D01*
X-505898Y124988D01*
X-505844Y125024D01*
X-505796Y125067D01*
X-505727Y125100D01*
X-505662Y125143D01*
X-505600Y125162D01*
X-505543Y125190D01*
X-505473Y125201D01*
X-505392Y125225D01*
X-505307Y125226D01*
X-505238Y125237D01*
X-492762Y125237D01*
X-492698Y125228D01*
X-492634Y125229D01*
X-492559Y125208D01*
X-492483Y125197D01*
X-492424Y125171D01*
X-492362Y125154D01*
X-492296Y125113D01*
X-492226Y125081D01*
X-492177Y125039D01*
X-492122Y125006D01*
X-492070Y124948D01*
X-492012Y124898D01*
X-491976Y124844D01*
X-491933Y124796D01*
X-491900Y124727D01*
X-491857Y124662D01*
X-491838Y124600D01*
X-491810Y124543D01*
X-491799Y124473D01*
X-491775Y124392D01*
X-491774Y124307D01*
X-491763Y124238D01*
X-491763Y99856D01*
X-490144Y98237D01*
X-487856Y98237D01*
G37*
%LPD*%
%LPC*%
G36*
X-205856Y99237D02*
X-205856Y99237D01*
X-204237Y100856D01*
X-204237Y130144D01*
X-205856Y131763D01*
X-228144Y131763D01*
X-229763Y130144D01*
X-229763Y100856D01*
X-228144Y99237D01*
X-225856Y99237D01*
X-224237Y100856D01*
X-224237Y125238D01*
X-224228Y125302D01*
X-224229Y125366D01*
X-224208Y125441D01*
X-224197Y125517D01*
X-224171Y125576D01*
X-224154Y125638D01*
X-224113Y125704D01*
X-224081Y125774D01*
X-224039Y125823D01*
X-224006Y125878D01*
X-223948Y125930D01*
X-223898Y125988D01*
X-223844Y126024D01*
X-223796Y126067D01*
X-223727Y126100D01*
X-223662Y126143D01*
X-223600Y126162D01*
X-223543Y126190D01*
X-223473Y126201D01*
X-223392Y126225D01*
X-223307Y126226D01*
X-223238Y126237D01*
X-210762Y126237D01*
X-210698Y126228D01*
X-210634Y126229D01*
X-210559Y126208D01*
X-210483Y126197D01*
X-210424Y126171D01*
X-210362Y126154D01*
X-210296Y126113D01*
X-210226Y126081D01*
X-210177Y126039D01*
X-210122Y126006D01*
X-210070Y125948D01*
X-210012Y125898D01*
X-209976Y125844D01*
X-209933Y125796D01*
X-209900Y125727D01*
X-209857Y125662D01*
X-209838Y125600D01*
X-209810Y125543D01*
X-209799Y125473D01*
X-209775Y125392D01*
X-209774Y125307D01*
X-209763Y125238D01*
X-209763Y100856D01*
X-208144Y99237D01*
X-205856Y99237D01*
G37*
%LPD*%
%LPC*%
G36*
X-509601Y169967D02*
X-509601Y169967D01*
X-507016Y171038D01*
X-505038Y173016D01*
X-503967Y175601D01*
X-503967Y178399D01*
X-505038Y180984D01*
X-507020Y182966D01*
X-507189Y183191D01*
X-507194Y183203D01*
X-507201Y183212D01*
X-507417Y183630D01*
X-507445Y183710D01*
X-507482Y183785D01*
X-507490Y183838D01*
X-507510Y183896D01*
X-507516Y184006D01*
X-507529Y184090D01*
X-507529Y192910D01*
X-507517Y192993D01*
X-507515Y193078D01*
X-507498Y193128D01*
X-507489Y193189D01*
X-507444Y193289D01*
X-507417Y193370D01*
X-507201Y193788D01*
X-507037Y194017D01*
X-507027Y194025D01*
X-507020Y194034D01*
X-505038Y196016D01*
X-503967Y198601D01*
X-503967Y201399D01*
X-505038Y203984D01*
X-507016Y205962D01*
X-509601Y207033D01*
X-512399Y207033D01*
X-514984Y205962D01*
X-516962Y203984D01*
X-518033Y201399D01*
X-518033Y198601D01*
X-516962Y196016D01*
X-514980Y194034D01*
X-514811Y193809D01*
X-514806Y193797D01*
X-514799Y193788D01*
X-514583Y193370D01*
X-514555Y193290D01*
X-514518Y193215D01*
X-514510Y193162D01*
X-514490Y193104D01*
X-514484Y192994D01*
X-514471Y192910D01*
X-514471Y184090D01*
X-514483Y184007D01*
X-514485Y183922D01*
X-514502Y183872D01*
X-514511Y183811D01*
X-514556Y183710D01*
X-514583Y183630D01*
X-514799Y183212D01*
X-514963Y182983D01*
X-514973Y182975D01*
X-514980Y182966D01*
X-516962Y180984D01*
X-518033Y178399D01*
X-518033Y175601D01*
X-516962Y173016D01*
X-514984Y171038D01*
X-512399Y169967D01*
X-509601Y169967D01*
G37*
%LPD*%
%LPC*%
G36*
X-548099Y370299D02*
X-548099Y370299D01*
X-548099Y390841D01*
X-552785Y390841D01*
X-553431Y390668D01*
X-554010Y390333D01*
X-554483Y389860D01*
X-554818Y389281D01*
X-554991Y388635D01*
X-554991Y370299D01*
X-548099Y370299D01*
G37*
%LPD*%
%LPC*%
G36*
X-573499Y370299D02*
X-573499Y370299D01*
X-573499Y390841D01*
X-578185Y390841D01*
X-578831Y390668D01*
X-579410Y390333D01*
X-579883Y389860D01*
X-580218Y389281D01*
X-580391Y388635D01*
X-580391Y370299D01*
X-573499Y370299D01*
G37*
%LPD*%
%LPC*%
G36*
X-675099Y370299D02*
X-675099Y370299D01*
X-675099Y390841D01*
X-679785Y390841D01*
X-680431Y390668D01*
X-681010Y390333D01*
X-681483Y389860D01*
X-681818Y389281D01*
X-681991Y388635D01*
X-681991Y370299D01*
X-675099Y370299D01*
G37*
%LPD*%
%LPC*%
G36*
X-167099Y370299D02*
X-167099Y370299D01*
X-167099Y390841D01*
X-171785Y390841D01*
X-172431Y390668D01*
X-173010Y390333D01*
X-173483Y389860D01*
X-173818Y389281D01*
X-173991Y388635D01*
X-173991Y370299D01*
X-167099Y370299D01*
G37*
%LPD*%
%LPC*%
G36*
X-649699Y370299D02*
X-649699Y370299D01*
X-649699Y390841D01*
X-654385Y390841D01*
X-655031Y390668D01*
X-655610Y390333D01*
X-656083Y389860D01*
X-656418Y389281D01*
X-656591Y388635D01*
X-656591Y370299D01*
X-649699Y370299D01*
G37*
%LPD*%
%LPC*%
G36*
X-421099Y370299D02*
X-421099Y370299D01*
X-421099Y390841D01*
X-425785Y390841D01*
X-426431Y390668D01*
X-427010Y390333D01*
X-427483Y389860D01*
X-427818Y389281D01*
X-427991Y388635D01*
X-427991Y370299D01*
X-421099Y370299D01*
G37*
%LPD*%
%LPC*%
G36*
X-294099Y370299D02*
X-294099Y370299D01*
X-294099Y390841D01*
X-298785Y390841D01*
X-299431Y390668D01*
X-300010Y390333D01*
X-300483Y389860D01*
X-300818Y389281D01*
X-300991Y388635D01*
X-300991Y370299D01*
X-294099Y370299D01*
G37*
%LPD*%
%LPC*%
G36*
X-548099Y345759D02*
X-548099Y345759D01*
X-548099Y366301D01*
X-554991Y366301D01*
X-554991Y347965D01*
X-554818Y347319D01*
X-554483Y346740D01*
X-554010Y346267D01*
X-553431Y345932D01*
X-552785Y345759D01*
X-548099Y345759D01*
G37*
%LPD*%
%LPC*%
G36*
X-167099Y345759D02*
X-167099Y345759D01*
X-167099Y366301D01*
X-173991Y366301D01*
X-173991Y347965D01*
X-173818Y347319D01*
X-173483Y346740D01*
X-173010Y346267D01*
X-172431Y345932D01*
X-171785Y345759D01*
X-167099Y345759D01*
G37*
%LPD*%
%LPC*%
G36*
X-421099Y345759D02*
X-421099Y345759D01*
X-421099Y366301D01*
X-427991Y366301D01*
X-427991Y347965D01*
X-427818Y347319D01*
X-427483Y346740D01*
X-427010Y346267D01*
X-426431Y345932D01*
X-425785Y345759D01*
X-421099Y345759D01*
G37*
%LPD*%
%LPC*%
G36*
X-649699Y345759D02*
X-649699Y345759D01*
X-649699Y366301D01*
X-656591Y366301D01*
X-656591Y347965D01*
X-656418Y347319D01*
X-656083Y346740D01*
X-655610Y346267D01*
X-655031Y345932D01*
X-654385Y345759D01*
X-649699Y345759D01*
G37*
%LPD*%
%LPC*%
G36*
X-294099Y345759D02*
X-294099Y345759D01*
X-294099Y366301D01*
X-300991Y366301D01*
X-300991Y347965D01*
X-300818Y347319D01*
X-300483Y346740D01*
X-300010Y346267D01*
X-299431Y345932D01*
X-298785Y345759D01*
X-294099Y345759D01*
G37*
%LPD*%
%LPC*%
G36*
X-573499Y345759D02*
X-573499Y345759D01*
X-573499Y366301D01*
X-580391Y366301D01*
X-580391Y347965D01*
X-580218Y347319D01*
X-579883Y346740D01*
X-579410Y346267D01*
X-578831Y345932D01*
X-578185Y345759D01*
X-573499Y345759D01*
G37*
%LPD*%
%LPC*%
G36*
X-675099Y345759D02*
X-675099Y345759D01*
X-675099Y366301D01*
X-681991Y366301D01*
X-681991Y347965D01*
X-681818Y347319D01*
X-681483Y346740D01*
X-681010Y346267D01*
X-680431Y345932D01*
X-679785Y345759D01*
X-675099Y345759D01*
G37*
%LPD*%
%LPC*%
G36*
X-638809Y370299D02*
X-638809Y370299D01*
X-638809Y388635D01*
X-638982Y389281D01*
X-639317Y389860D01*
X-639790Y390333D01*
X-640369Y390668D01*
X-641015Y390841D01*
X-645701Y390841D01*
X-645701Y370299D01*
X-638809Y370299D01*
G37*
%LPD*%
%LPC*%
G36*
X-664209Y370299D02*
X-664209Y370299D01*
X-664209Y388635D01*
X-664382Y389281D01*
X-664717Y389860D01*
X-665190Y390333D01*
X-665769Y390668D01*
X-666415Y390841D01*
X-671101Y390841D01*
X-671101Y370299D01*
X-664209Y370299D01*
G37*
%LPD*%
%LPC*%
G36*
X-283209Y370299D02*
X-283209Y370299D01*
X-283209Y388635D01*
X-283382Y389281D01*
X-283717Y389860D01*
X-284190Y390333D01*
X-284769Y390668D01*
X-285415Y390841D01*
X-290101Y390841D01*
X-290101Y370299D01*
X-283209Y370299D01*
G37*
%LPD*%
%LPC*%
G36*
X-562609Y370299D02*
X-562609Y370299D01*
X-562609Y388635D01*
X-562782Y389281D01*
X-563117Y389860D01*
X-563590Y390333D01*
X-564169Y390668D01*
X-564815Y390841D01*
X-569501Y390841D01*
X-569501Y370299D01*
X-562609Y370299D01*
G37*
%LPD*%
%LPC*%
G36*
X-537209Y370299D02*
X-537209Y370299D01*
X-537209Y388635D01*
X-537382Y389281D01*
X-537717Y389860D01*
X-538190Y390333D01*
X-538769Y390668D01*
X-539415Y390841D01*
X-544101Y390841D01*
X-544101Y370299D01*
X-537209Y370299D01*
G37*
%LPD*%
%LPC*%
G36*
X-410209Y370299D02*
X-410209Y370299D01*
X-410209Y388635D01*
X-410382Y389281D01*
X-410717Y389860D01*
X-411190Y390333D01*
X-411769Y390668D01*
X-412415Y390841D01*
X-417101Y390841D01*
X-417101Y370299D01*
X-410209Y370299D01*
G37*
%LPD*%
%LPC*%
G36*
X-156209Y370299D02*
X-156209Y370299D01*
X-156209Y388635D01*
X-156382Y389281D01*
X-156717Y389860D01*
X-157190Y390333D01*
X-157769Y390668D01*
X-158415Y390841D01*
X-163101Y390841D01*
X-163101Y370299D01*
X-156209Y370299D01*
G37*
%LPD*%
%LPC*%
G36*
X-641015Y345759D02*
X-641015Y345759D01*
X-640369Y345932D01*
X-639790Y346267D01*
X-639317Y346740D01*
X-638982Y347319D01*
X-638809Y347965D01*
X-638809Y366301D01*
X-645701Y366301D01*
X-645701Y345759D01*
X-641015Y345759D01*
G37*
%LPD*%
%LPC*%
G36*
X-539415Y345759D02*
X-539415Y345759D01*
X-538769Y345932D01*
X-538190Y346267D01*
X-537717Y346740D01*
X-537382Y347319D01*
X-537209Y347965D01*
X-537209Y366301D01*
X-544101Y366301D01*
X-544101Y345759D01*
X-539415Y345759D01*
G37*
%LPD*%
%LPC*%
G36*
X-666415Y345759D02*
X-666415Y345759D01*
X-665769Y345932D01*
X-665190Y346267D01*
X-664717Y346740D01*
X-664382Y347319D01*
X-664209Y347965D01*
X-664209Y366301D01*
X-671101Y366301D01*
X-671101Y345759D01*
X-666415Y345759D01*
G37*
%LPD*%
%LPC*%
G36*
X-412415Y345759D02*
X-412415Y345759D01*
X-411769Y345932D01*
X-411190Y346267D01*
X-410717Y346740D01*
X-410382Y347319D01*
X-410209Y347965D01*
X-410209Y366301D01*
X-417101Y366301D01*
X-417101Y345759D01*
X-412415Y345759D01*
G37*
%LPD*%
%LPC*%
G36*
X-285415Y345759D02*
X-285415Y345759D01*
X-284769Y345932D01*
X-284190Y346267D01*
X-283717Y346740D01*
X-283382Y347319D01*
X-283209Y347965D01*
X-283209Y366301D01*
X-290101Y366301D01*
X-290101Y345759D01*
X-285415Y345759D01*
G37*
%LPD*%
%LPC*%
G36*
X-564815Y345759D02*
X-564815Y345759D01*
X-564169Y345932D01*
X-563590Y346267D01*
X-563117Y346740D01*
X-562782Y347319D01*
X-562609Y347965D01*
X-562609Y366301D01*
X-569501Y366301D01*
X-569501Y345759D01*
X-564815Y345759D01*
G37*
%LPD*%
%LPC*%
G36*
X-158415Y345759D02*
X-158415Y345759D01*
X-157769Y345932D01*
X-157190Y346267D01*
X-156717Y346740D01*
X-156382Y347319D01*
X-156209Y347965D01*
X-156209Y366301D01*
X-163101Y366301D01*
X-163101Y345759D01*
X-158415Y345759D01*
G37*
%LPD*%
%LPC*%
G36*
X-476599Y115299D02*
X-476599Y115299D01*
X-476599Y129341D01*
X-477184Y129341D01*
X-477841Y129165D01*
X-477947Y129152D01*
X-478052Y129132D01*
X-478085Y129135D01*
X-478121Y129131D01*
X-478268Y129155D01*
X-478359Y129165D01*
X-479016Y129341D01*
X-479601Y129341D01*
X-479601Y115299D01*
X-476599Y115299D01*
G37*
%LPD*%
%LPC*%
G36*
X-476599Y99259D02*
X-476599Y99259D01*
X-476599Y113301D01*
X-479601Y113301D01*
X-479601Y99259D01*
X-479015Y99259D01*
X-478359Y99435D01*
X-478253Y99448D01*
X-478148Y99468D01*
X-478115Y99465D01*
X-478079Y99469D01*
X-477932Y99445D01*
X-477841Y99435D01*
X-477185Y99259D01*
X-476599Y99259D01*
G37*
%LPD*%
%LPC*%
G36*
X-231809Y115299D02*
X-231809Y115299D01*
X-231809Y127135D01*
X-231982Y127781D01*
X-232317Y128360D01*
X-232790Y128833D01*
X-233369Y129168D01*
X-234015Y129341D01*
X-234601Y129341D01*
X-234601Y115299D01*
X-231809Y115299D01*
G37*
%LPD*%
%LPC*%
G36*
X-234015Y99259D02*
X-234015Y99259D01*
X-233369Y99432D01*
X-232790Y99767D01*
X-232317Y100240D01*
X-231982Y100819D01*
X-231809Y101465D01*
X-231809Y113301D01*
X-234601Y113301D01*
X-234601Y99259D01*
X-234015Y99259D01*
G37*
%LPD*%
%LPC*%
G36*
X-571499Y368299D02*
X-571499Y368299D01*
X-571499Y368301D01*
X-571501Y368301D01*
X-571501Y368299D01*
X-571499Y368299D01*
G37*
%LPD*%
%LPC*%
G36*
X-546099Y368299D02*
X-546099Y368299D01*
X-546099Y368301D01*
X-546101Y368301D01*
X-546101Y368299D01*
X-546099Y368299D01*
G37*
%LPD*%
%LPC*%
G36*
X-165099Y368299D02*
X-165099Y368299D01*
X-165099Y368301D01*
X-165101Y368301D01*
X-165101Y368299D01*
X-165099Y368299D01*
G37*
%LPD*%
%LPC*%
G36*
X-292099Y368299D02*
X-292099Y368299D01*
X-292099Y368301D01*
X-292101Y368301D01*
X-292101Y368299D01*
X-292099Y368299D01*
G37*
%LPD*%
%LPC*%
G36*
X-419099Y368299D02*
X-419099Y368299D01*
X-419099Y368301D01*
X-419101Y368301D01*
X-419101Y368299D01*
X-419099Y368299D01*
G37*
%LPD*%
%LPC*%
G36*
X-647699Y368299D02*
X-647699Y368299D01*
X-647699Y368301D01*
X-647701Y368301D01*
X-647701Y368299D01*
X-647699Y368299D01*
G37*
%LPD*%
%LPC*%
G36*
X-673099Y368299D02*
X-673099Y368299D01*
X-673099Y368301D01*
X-673101Y368301D01*
X-673101Y368299D01*
X-673099Y368299D01*
G37*
%LPD*%
D10*
X-63500Y368300D03*
X-88900Y368300D03*
X-114300Y368300D03*
X-139700Y368300D03*
X-165100Y368300D03*
X-190500Y368300D03*
X-215900Y368300D03*
X-241300Y368300D03*
X-266700Y368300D03*
X-292100Y368300D03*
X-317500Y368300D03*
X-342900Y368300D03*
X-368300Y368300D03*
X-393700Y368300D03*
X-419100Y368300D03*
X-444500Y368300D03*
X-469900Y368300D03*
X-495300Y368300D03*
X-520700Y368300D03*
X-546100Y368300D03*
X-571500Y368300D03*
X-596900Y368300D03*
X-622300Y368300D03*
X-647700Y368300D03*
X-673100Y368300D03*
D11*
X-235600Y114300D03*
X-240600Y114300D03*
X-245600Y114300D03*
X-250600Y114300D03*
X-255600Y114300D03*
X-260600Y114300D03*
X-265600Y114300D03*
X-270600Y114300D03*
X-275600Y114300D03*
X-280600Y114300D03*
X-285600Y114300D03*
X-290600Y114300D03*
X-295600Y114300D03*
X-300600Y114300D03*
X-305600Y114300D03*
X-310600Y114300D03*
X-315600Y114300D03*
X-320600Y114300D03*
X-325600Y114300D03*
X-330600Y114300D03*
X-335600Y114300D03*
X-340600Y114300D03*
X-345600Y114300D03*
X-350600Y114300D03*
X-355600Y114300D03*
X-360600Y114300D03*
X-365600Y114300D03*
X-370600Y114300D03*
X-375600Y114300D03*
X-380600Y114300D03*
X-385600Y114300D03*
X-390600Y114300D03*
X-395600Y114300D03*
X-400600Y114300D03*
X-405600Y114300D03*
X-410600Y114300D03*
X-415600Y114300D03*
X-420600Y114300D03*
X-425600Y114300D03*
X-430600Y114300D03*
X-435600Y114300D03*
X-440600Y114300D03*
X-445600Y114300D03*
X-450600Y114300D03*
X-455600Y114300D03*
X-460600Y114300D03*
X-465600Y114300D03*
X-470600Y114300D03*
X-475600Y114300D03*
X-480600Y114300D03*
D12*
X-379000Y89000D03*
X-234000Y182000D03*
X-266000Y89000D03*
X-493000Y135000D03*
X-380000Y325000D03*
X-431000Y336000D03*
X-457000Y281000D03*
X-438000Y254000D03*
X-535000Y318000D03*
D13*
X-335600Y164400D02*
X-335600Y156300D01*
X-330600Y151300D01*
X-330600Y114300D01*
X-63500Y339797D02*
X-63500Y368300D01*
X-318802Y173198D02*
X-326802Y173198D01*
X-335600Y164400D01*
X-318802Y173457D02*
X-314198Y178061D01*
X-318802Y173457D02*
X-318802Y173198D01*
X-314198Y178061D02*
X-314198Y192939D01*
X-286877Y220260D01*
X-231619Y220260D02*
X-183037Y220260D01*
X-231619Y220260D02*
X-235061Y223702D01*
X-241939Y223702D01*
X-245381Y220260D01*
X-286877Y220260D01*
X-183037Y220260D02*
X-63500Y339797D01*
X-84900Y364300D02*
X-88900Y368300D01*
X-88900Y321100D01*
D12*
X-299000Y221000D03*
X-300000Y180000D03*
D13*
X-320600Y136400D02*
X-320600Y114300D01*
X-304243Y175757D02*
X-300000Y180000D01*
X-304243Y175757D02*
X-305958Y174042D01*
X-309402Y174042D01*
X-320340Y136660D02*
X-320600Y136400D01*
X-320340Y154919D02*
X-318698Y156561D01*
X-320340Y154919D02*
X-320340Y136660D01*
X-318698Y164746D02*
X-309402Y174042D01*
X-318698Y164746D02*
X-318698Y156561D01*
X-229656Y225000D02*
X-185000Y225000D01*
X-229656Y225000D02*
X-233098Y228442D01*
X-243902Y228442D01*
X-247344Y225000D01*
X-294000Y225000D01*
X-185000Y225000D02*
X-88900Y321100D01*
X-298000Y221000D02*
X-299000Y221000D01*
X-298000Y221000D02*
X-294287Y224713D01*
X-294000Y225000D01*
X-294287Y224713D02*
X-296484Y219861D01*
X-299000Y221000D01*
X-299519Y223713D02*
X-294287Y224713D01*
X-299519Y223713D02*
X-299000Y221000D01*
X-302633Y180835D02*
X-304243Y175757D01*
X-302633Y180835D02*
X-300000Y180000D01*
X-299165Y177367D02*
X-304243Y175757D01*
X-299165Y177367D02*
X-300000Y180000D01*
X-340400Y283400D02*
X-445880Y177920D01*
X-445880Y114580D02*
X-445600Y114300D01*
X-134156Y283400D02*
X-114300Y303256D01*
X-114300Y368300D01*
X-134156Y283400D02*
X-340400Y283400D01*
X-452302Y159439D02*
X-452302Y152561D01*
X-445880Y165861D02*
X-445880Y177920D01*
X-445880Y146139D02*
X-445880Y114580D01*
X-452302Y159439D02*
X-445880Y165861D01*
X-452302Y152561D02*
X-445880Y146139D01*
D12*
X-316000Y292000D03*
D13*
X-342000Y275000D02*
X-435600Y181400D01*
X-435600Y114300D01*
X-149859Y288400D02*
X-139700Y298559D01*
X-139700Y368300D01*
X-331297Y275000D02*
X-342000Y275000D01*
D12*
X-325297Y275000D03*
D13*
X-331297Y275000D01*
X-316000Y291800D02*
X-316000Y292000D01*
X-316000Y291800D02*
X-312600Y288400D01*
X-311200Y288400D02*
X-149859Y288400D01*
X-311200Y288400D02*
X-312600Y288400D01*
X-311200Y288400D02*
X-316454Y289276D01*
X-316000Y292000D01*
X-313512Y293199D02*
X-311200Y288400D01*
X-313512Y293199D02*
X-316000Y292000D01*
X-326568Y277452D02*
X-331297Y275000D01*
X-326568Y277452D02*
X-325297Y275000D01*
X-326568Y272548D02*
X-331297Y275000D01*
X-326568Y272548D02*
X-325297Y275000D01*
X-261000Y300000D02*
X-261000Y303000D01*
D12*
X-261000Y303000D03*
X-304000Y161000D03*
D13*
X-305600Y159400D01*
X-305600Y155217D01*
X-305600Y114300D01*
X-229259Y300000D02*
X-190500Y338759D01*
X-190500Y368300D01*
X-229259Y300000D02*
X-255804Y300000D01*
X-261000Y300000D01*
X-261125Y300241D02*
X-255804Y300000D01*
X-261125Y300241D02*
X-261000Y303000D01*
X-258673Y304488D02*
X-255804Y300000D01*
X-258673Y304488D02*
X-261000Y303000D01*
X-306702Y160428D02*
X-305600Y155217D01*
X-306702Y160428D02*
X-304000Y161000D01*
X-301976Y159121D02*
X-305600Y155217D01*
X-301976Y159121D02*
X-304000Y161000D01*
X-217000Y367200D02*
X-215900Y368300D01*
X-217000Y367200D02*
X-217000Y353000D01*
X-254000Y316000D02*
X-255000Y316000D01*
X-254000Y316000D02*
X-250287Y319713D01*
D12*
X-255000Y316000D03*
D13*
X-250287Y319713D02*
X-217000Y353000D01*
D12*
X-297000Y152000D03*
D13*
X-295600Y150600D01*
X-295600Y146166D01*
X-295600Y114300D01*
X-252484Y314861D02*
X-250287Y319713D01*
X-252484Y314861D02*
X-255000Y316000D01*
X-255519Y318713D02*
X-250287Y319713D01*
X-255519Y318713D02*
X-255000Y316000D01*
X-299088Y150192D02*
X-295600Y146166D01*
X-299088Y150192D02*
X-297000Y152000D01*
X-294319Y151336D02*
X-295600Y146166D01*
X-294319Y151336D02*
X-297000Y152000D01*
X-241300Y341700D02*
X-241300Y368300D01*
X-271698Y311302D02*
X-319698Y311302D01*
X-428000Y203000D01*
X-433000Y203000D02*
X-434000Y202000D01*
X-433000Y203000D02*
X-428084Y203000D01*
D12*
X-434000Y202000D03*
D13*
X-428084Y203000D02*
X-428000Y203000D01*
D12*
X-422000Y163000D03*
D13*
X-420600Y161600D01*
X-420600Y157569D01*
X-420600Y157166D01*
X-420600Y114300D01*
X-271698Y311302D02*
X-241300Y341700D01*
X-428084Y203000D02*
X-432338Y199794D01*
X-434000Y202000D01*
X-433155Y204630D02*
X-428084Y203000D01*
X-433155Y204630D02*
X-434000Y202000D01*
X-424088Y161192D02*
X-420600Y157166D01*
X-424088Y161192D02*
X-422000Y163000D01*
X-419413Y162359D02*
X-420600Y157569D01*
X-419413Y162359D02*
X-422000Y163000D01*
X-266000Y367600D02*
X-266700Y368300D01*
X-266700Y324300D01*
D12*
X-418000Y228000D03*
X-404677Y160677D03*
D13*
X-404677Y143677D02*
X-410600Y137753D01*
X-404677Y154677D02*
X-404677Y160677D01*
X-404677Y154677D02*
X-404677Y143677D01*
X-410600Y137753D02*
X-410600Y114300D01*
X-321302Y316698D02*
X-274302Y316698D01*
X-412000Y228000D02*
X-418000Y228000D01*
X-412000Y228000D02*
X-410000Y228000D01*
X-321302Y316698D01*
X-274302Y316698D02*
X-266700Y324300D01*
X-412000Y228000D02*
X-416729Y225548D01*
X-418000Y228000D01*
X-416729Y230452D02*
X-412000Y228000D01*
X-416729Y230452D02*
X-418000Y228000D01*
X-407129Y159405D02*
X-404677Y154677D01*
X-407129Y159405D02*
X-404677Y160677D01*
X-402225Y159405D02*
X-404677Y154677D01*
X-402225Y159405D02*
X-404677Y160677D01*
X-317500Y336500D02*
X-317500Y368300D01*
X-317500Y336500D02*
X-309469Y328469D01*
X-306000Y325000D01*
X-305000Y325000D01*
X-304000Y326000D01*
D12*
X-304000Y326000D03*
X-270000Y253000D03*
D13*
X-264000Y253000D01*
X-252916Y253000D01*
X-248000Y253000D01*
X-247000Y252000D01*
D12*
X-247000Y252000D03*
X-275000Y161000D03*
D13*
X-280600Y155400D02*
X-280600Y114300D01*
X-279243Y156757D02*
X-275000Y161000D01*
X-279243Y156757D02*
X-280600Y155400D01*
X-304150Y328758D02*
X-309469Y328469D01*
X-304150Y328758D02*
X-304000Y326000D01*
X-306168Y324288D02*
X-309469Y328469D01*
X-306168Y324288D02*
X-304000Y326000D01*
X-264000Y253000D02*
X-268729Y250548D01*
X-270000Y253000D01*
X-268729Y255452D02*
X-264000Y253000D01*
X-268729Y255452D02*
X-270000Y253000D01*
X-252916Y253000D02*
X-247845Y254630D01*
X-247000Y252000D01*
X-248662Y249794D02*
X-252916Y253000D01*
X-248662Y249794D02*
X-247000Y252000D01*
X-277633Y161835D02*
X-279243Y156757D01*
X-277633Y161835D02*
X-275000Y161000D01*
X-274165Y158367D02*
X-279243Y156757D01*
X-274165Y158367D02*
X-275000Y161000D01*
X-342900Y347900D02*
X-342900Y368300D01*
X-342900Y347900D02*
X-324713Y329713D01*
X-321000Y326000D01*
X-321000Y325000D01*
D12*
X-321000Y325000D03*
X-270000Y200000D03*
D13*
X-270000Y196094D01*
X-268187Y194281D01*
X-261958Y188052D01*
X-270620Y117037D02*
X-270600Y117017D01*
X-270600Y114300D01*
X-261958Y155339D02*
X-261958Y188052D01*
X-261958Y155339D02*
X-270620Y146677D01*
X-270620Y117037D01*
X-319861Y327516D02*
X-324713Y329713D01*
X-319861Y327516D02*
X-321000Y325000D01*
X-323713Y324481D02*
X-324713Y329713D01*
X-323713Y324481D02*
X-321000Y325000D01*
X-271953Y198047D02*
X-270000Y196094D01*
X-271953Y198047D02*
X-270000Y200000D01*
X-267278Y199529D02*
X-268187Y194281D01*
X-267278Y199529D02*
X-270000Y200000D01*
X-370300Y366300D02*
X-368300Y368300D01*
X-368300Y335300D01*
X-349000Y316000D01*
X-349000Y296000D01*
X-411500Y233500D02*
X-413757Y235757D01*
D12*
X-418000Y240000D03*
D13*
X-413757Y235757D01*
D12*
X-396000Y176000D03*
D13*
X-411500Y233500D02*
X-349000Y296000D01*
X-396000Y176000D02*
X-391757Y171757D01*
X-391635Y171635D01*
X-391635Y143274D02*
X-395600Y139309D01*
X-395600Y114300D01*
X-391635Y143274D02*
X-391635Y171635D01*
X-413757Y235757D02*
X-418835Y237367D01*
X-418000Y240000D01*
X-415367Y240835D02*
X-413757Y235757D01*
X-415367Y240835D02*
X-418000Y240000D01*
X-396835Y173367D02*
X-391757Y171757D01*
X-396835Y173367D02*
X-396000Y176000D01*
X-393367Y176835D02*
X-391757Y171757D01*
X-393367Y176835D02*
X-396000Y176000D01*
X-394000Y368000D02*
X-393700Y368300D01*
X-393700Y351700D01*
X-397000Y255000D02*
X-402000Y255000D01*
D12*
X-402000Y255000D03*
X-372000Y176000D03*
D13*
X-377000Y138000D02*
X-385600Y129400D01*
X-377000Y160000D02*
X-372000Y165000D01*
X-372000Y170000D02*
X-372000Y176000D01*
X-372000Y170000D02*
X-372000Y165000D01*
X-377000Y160000D02*
X-377000Y138000D01*
X-385600Y129400D02*
X-385600Y114300D01*
X-355000Y313000D02*
X-393700Y351700D01*
X-355000Y313000D02*
X-355000Y297000D01*
X-396072Y255928D01*
X-397000Y255000D01*
X-396072Y255928D02*
X-400365Y252774D01*
X-402000Y255000D01*
X-401123Y257619D02*
X-396072Y255928D01*
X-401123Y257619D02*
X-402000Y255000D01*
X-374452Y174729D02*
X-372000Y170000D01*
X-374452Y174729D02*
X-372000Y176000D01*
X-369548Y174729D02*
X-372000Y170000D01*
X-369548Y174729D02*
X-372000Y176000D01*
X-440000Y363800D02*
X-444500Y368300D01*
X-444500Y334500D01*
X-398000Y288000D01*
X-398000Y272000D01*
D12*
X-398000Y266000D03*
D13*
X-398000Y272000D01*
D12*
X-245000Y155000D03*
D13*
X-249243Y150757D01*
X-255600Y144400D01*
X-255600Y114300D01*
X-395548Y267271D02*
X-398000Y272000D01*
X-395548Y267271D02*
X-398000Y266000D01*
X-400452Y267271D02*
X-398000Y272000D01*
X-400452Y267271D02*
X-398000Y266000D01*
X-247633Y155835D02*
X-249243Y150757D01*
X-247633Y155835D02*
X-245000Y155000D01*
X-244165Y152367D02*
X-249243Y150757D01*
X-244165Y152367D02*
X-245000Y155000D01*
X-469900Y348900D02*
X-469900Y368300D01*
X-469900Y338900D01*
X-465000Y334000D02*
X-451000Y334000D01*
X-407000Y290000D01*
X-407000Y283000D01*
D12*
X-407000Y277000D03*
X-346000Y198000D03*
D13*
X-407000Y277000D02*
X-407000Y283000D01*
D12*
X-237000Y146000D03*
D13*
X-245600Y137400D01*
X-465000Y334000D02*
X-469900Y338900D01*
D12*
X-349000Y221000D03*
D13*
X-245600Y137400D02*
X-245600Y114300D01*
X-345571Y217571D02*
X-349000Y221000D01*
X-345571Y217571D02*
X-345571Y216076D01*
X-345571Y203985D01*
X-345571Y198429D01*
X-346000Y198000D01*
X-404548Y278271D02*
X-407000Y283000D01*
X-404548Y278271D02*
X-407000Y277000D01*
X-409452Y278271D02*
X-407000Y283000D01*
X-409452Y278271D02*
X-407000Y277000D01*
X-345571Y203985D02*
X-343463Y199093D01*
X-346000Y198000D01*
X-348355Y199443D02*
X-345571Y203985D01*
X-348355Y199443D02*
X-346000Y198000D01*
X-239633Y146835D02*
X-241243Y141757D01*
X-239633Y146835D02*
X-237000Y146000D01*
X-236165Y143367D02*
X-241243Y141757D01*
X-236165Y143367D02*
X-237000Y146000D01*
X-345571Y216076D02*
X-350286Y218555D01*
X-349000Y221000D01*
X-346261Y221358D02*
X-345571Y216076D01*
X-346261Y221358D02*
X-349000Y221000D01*
X-495300Y368300D02*
X-498300Y365300D01*
X-495300Y368300D02*
X-495300Y342300D01*
X-427000Y274000D02*
X-427000Y226000D01*
D12*
X-427000Y220000D03*
D13*
X-427000Y226000D01*
D12*
X-418000Y174000D03*
D13*
X-427000Y274000D02*
X-495300Y342300D01*
X-371302Y158439D02*
X-371302Y151561D01*
X-370600Y150859D01*
X-370600Y114300D01*
X-418000Y174000D02*
X-418000Y179037D01*
X-418370Y179407D01*
X-418370Y184037D02*
X-392105Y210302D01*
X-418370Y179989D02*
X-418370Y179407D01*
X-418370Y179989D02*
X-418370Y184037D01*
X-392105Y210302D02*
X-375561Y210302D01*
X-363051Y197792D01*
X-363051Y166690D01*
X-371302Y158439D01*
X-424548Y221271D02*
X-427000Y226000D01*
X-424548Y221271D02*
X-427000Y220000D01*
X-429452Y221271D02*
X-427000Y226000D01*
X-429452Y221271D02*
X-427000Y220000D01*
X-418370Y179989D02*
X-415631Y175420D01*
X-418000Y174000D01*
X-420526Y175118D02*
X-418370Y179989D01*
X-420526Y175118D02*
X-418000Y174000D01*
X-520700Y344700D02*
X-520700Y368300D01*
X-520700Y344700D02*
X-511000Y335000D01*
X-495000Y335000D01*
X-480000Y320000D02*
X-480000Y315000D01*
X-480928Y320928D02*
X-495000Y335000D01*
D12*
X-480000Y315000D03*
D13*
X-480000Y320000D02*
X-480928Y320928D01*
D12*
X-351000Y232000D03*
D13*
X-355243Y227757D02*
X-358311Y224689D01*
X-355243Y227757D02*
X-351000Y232000D01*
X-354698Y160698D02*
X-354698Y149302D01*
X-354698Y160698D02*
X-358311Y164311D01*
X-358311Y224689D01*
X-354698Y149302D02*
X-360600Y143400D01*
X-360600Y114300D01*
X-477774Y316635D02*
X-480928Y320928D01*
X-477774Y316635D02*
X-480000Y315000D01*
X-482619Y315877D02*
X-480928Y320928D01*
X-482619Y315877D02*
X-480000Y315000D01*
X-353633Y232835D02*
X-355243Y227757D01*
X-353633Y232835D02*
X-351000Y232000D01*
X-350165Y229367D02*
X-355243Y227757D01*
X-350165Y229367D02*
X-351000Y232000D01*
X-596900Y332900D02*
X-596900Y368300D01*
X-476000Y149000D02*
X-470600Y143600D01*
X-470600Y114300D01*
X-555518Y291518D02*
X-596900Y332900D01*
X-526300Y291518D02*
X-476000Y241218D01*
X-526300Y291518D02*
X-555518Y291518D01*
X-476000Y241218D02*
X-476000Y149000D01*
X-345600Y138400D02*
X-345600Y114300D01*
X-345600Y138400D02*
X-345045Y138955D01*
D12*
X-340803Y143197D03*
D13*
X-345045Y138955D01*
D12*
X-470000Y88000D03*
D13*
X-470600Y88600D01*
X-470600Y93970D01*
X-470600Y114300D01*
X-345045Y138955D02*
X-343435Y144032D01*
X-340803Y143197D01*
X-339968Y140565D02*
X-345045Y138955D01*
X-339968Y140565D02*
X-340803Y143197D01*
X-467687Y89510D02*
X-470600Y93970D01*
X-467687Y89510D02*
X-470000Y88000D01*
X-472567Y89020D02*
X-470600Y93970D01*
X-472567Y89020D02*
X-470000Y88000D01*
X-622300Y349300D02*
X-622300Y368300D01*
X-529000Y286000D02*
X-482000Y239000D01*
X-482000Y200196D01*
X-482000Y198000D01*
X-485000Y195000D01*
D12*
X-485000Y195000D03*
X-445000Y191000D03*
D13*
X-449243Y186757D01*
X-455600Y180400D01*
X-559000Y286000D02*
X-622300Y349300D01*
X-559000Y286000D02*
X-529000Y286000D01*
X-455600Y180400D02*
X-455600Y162844D01*
X-457042Y161402D01*
X-457042Y150598D01*
X-455600Y149156D01*
X-455600Y114300D01*
X-482241Y194875D02*
X-482000Y200196D01*
X-482241Y194875D02*
X-485000Y195000D01*
X-486488Y197327D02*
X-482000Y200196D01*
X-486488Y197327D02*
X-485000Y195000D01*
X-449243Y186757D02*
X-447633Y191835D01*
X-445000Y191000D01*
X-444165Y188367D02*
X-449243Y186757D01*
X-444165Y188367D02*
X-445000Y191000D01*
D12*
X-242000Y270000D03*
D13*
X-242000Y269000D02*
X-244000Y267000D01*
X-242000Y269000D02*
X-242000Y270000D01*
X-244000Y267000D02*
X-247196Y267000D01*
D12*
X-322500Y181500D03*
D13*
X-293556Y267000D02*
X-247196Y267000D01*
D12*
X-327000Y160000D03*
D13*
X-325600Y158600D01*
X-325600Y154166D01*
X-325600Y114300D01*
X-324242Y187242D02*
X-327302Y190302D01*
X-324242Y187242D02*
X-322500Y185500D01*
X-322500Y181500D01*
X-327302Y190302D02*
X-327302Y233439D01*
X-309598Y250958D02*
X-293556Y267000D01*
X-309598Y250958D02*
X-309783Y250958D01*
X-327302Y233439D01*
X-247196Y267000D02*
X-244327Y271488D01*
X-242000Y270000D01*
X-241875Y267241D02*
X-247196Y267000D01*
X-241875Y267241D02*
X-242000Y270000D01*
X-324242Y187242D02*
X-320523Y183428D01*
X-322500Y181500D01*
X-325215Y182005D02*
X-324242Y187242D01*
X-325215Y182005D02*
X-322500Y181500D01*
X-329088Y158192D02*
X-325600Y154166D01*
X-329088Y158192D02*
X-327000Y160000D01*
X-324319Y159336D02*
X-325600Y154166D01*
X-324319Y159336D02*
X-327000Y160000D01*
D12*
X-163000Y323000D03*
D13*
X-184000Y303000D02*
X-184000Y297000D01*
X-184000Y303000D02*
X-184000Y311000D01*
X-168514Y323000D02*
X-163000Y323000D01*
X-168514Y323000D02*
X-169000Y323000D01*
X-172000Y323000D01*
X-184000Y311000D01*
D12*
X-184000Y297000D03*
X-238500Y215400D03*
D13*
X-244500Y215400D01*
X-284600Y215400D01*
X-291698Y176561D02*
X-298957Y169302D01*
X-307439Y169302D01*
X-312302Y164439D01*
X-315600Y152956D02*
X-315600Y114300D01*
X-312302Y156254D02*
X-312302Y164439D01*
X-312302Y156254D02*
X-315600Y152956D01*
X-291698Y208302D02*
X-284600Y215400D01*
X-291698Y208302D02*
X-291698Y176561D01*
X-168514Y323000D02*
X-164169Y325253D01*
X-163000Y323000D01*
X-164271Y320548D02*
X-169000Y323000D01*
X-164271Y320548D02*
X-163000Y323000D01*
X-184000Y303000D02*
X-181548Y298271D01*
X-184000Y297000D01*
X-186452Y298271D02*
X-184000Y303000D01*
X-186452Y298271D02*
X-184000Y297000D01*
X-239708Y217729D02*
X-244350Y215322D01*
X-239708Y217729D02*
X-238500Y215400D01*
X-244350Y215322D02*
X-244500Y215400D01*
X-244350Y215322D02*
X-239771Y212948D01*
X-238500Y215400D01*
D12*
X-149000Y328000D03*
D13*
X-149000Y322000D01*
X-149000Y311000D01*
X-158000Y302000D02*
X-160000Y302000D01*
D12*
X-160000Y302000D03*
X-188000Y263000D03*
D13*
X-189302Y261698D02*
X-193857Y261698D01*
X-285302Y261698D01*
X-189302Y261698D02*
X-188000Y263000D01*
D12*
X-317000Y230000D03*
X-336936Y220000D03*
D13*
X-337698Y219238D01*
X-337698Y214049D01*
X-337698Y192238D01*
X-338757Y191179D02*
X-343000Y186936D01*
D12*
X-343000Y186936D03*
D13*
X-338757Y191179D02*
X-337698Y192238D01*
D12*
X-444000Y156000D03*
D13*
X-440600Y152600D01*
X-440600Y151056D01*
X-440600Y114300D01*
X-154877Y305123D02*
X-149000Y311000D01*
X-154877Y305123D02*
X-158000Y302000D01*
X-285302Y261698D02*
X-312757Y234243D01*
X-317000Y230000D01*
X-149000Y322000D02*
X-151452Y326729D01*
X-149000Y328000D01*
X-146548Y326729D02*
X-149000Y322000D01*
X-146548Y326729D02*
X-149000Y328000D01*
X-154877Y305123D02*
X-157638Y300568D01*
X-160000Y302000D01*
X-160191Y304755D02*
X-154877Y305123D01*
X-160191Y304755D02*
X-160000Y302000D01*
X-189773Y265118D02*
X-193857Y261698D01*
X-189773Y265118D02*
X-188000Y263000D01*
X-188709Y260331D02*
X-193857Y261698D01*
X-188709Y260331D02*
X-188000Y263000D01*
X-312757Y234243D02*
X-314367Y229165D01*
X-317000Y230000D01*
X-317835Y232633D02*
X-312757Y234243D01*
X-317835Y232633D02*
X-317000Y230000D01*
X-339530Y219050D02*
X-337698Y214049D01*
X-339530Y219050D02*
X-336936Y220000D01*
X-334665Y218427D02*
X-337698Y214049D01*
X-334665Y218427D02*
X-336936Y220000D01*
X-338757Y191179D02*
X-340367Y186101D01*
X-343000Y186936D01*
X-343835Y189569D02*
X-338757Y191179D01*
X-343835Y189569D02*
X-343000Y186936D01*
X-440600Y151056D02*
X-445300Y153563D01*
X-444000Y156000D01*
X-441259Y156342D02*
X-440600Y151056D01*
X-441259Y156342D02*
X-444000Y156000D01*
D12*
X-170500Y331500D03*
D13*
X-298000Y294000D02*
X-301000Y297000D01*
D12*
X-301000Y297000D03*
D13*
X-174743Y327257D02*
X-170500Y331500D01*
X-174743Y327257D02*
X-208000Y294000D01*
X-295804Y294000D01*
X-298000Y294000D01*
D12*
X-305000Y274000D03*
D13*
X-430600Y179400D02*
X-430600Y114300D01*
X-430600Y179400D02*
X-344000Y266000D01*
X-313000Y266000D02*
X-309243Y269757D01*
X-305000Y274000D01*
X-313000Y266000D02*
X-344000Y266000D01*
X-174743Y327257D02*
X-173133Y332335D01*
X-170500Y331500D01*
X-169665Y328867D02*
X-174743Y327257D01*
X-169665Y328867D02*
X-170500Y331500D01*
X-295804Y294000D02*
X-301125Y294241D01*
X-301000Y297000D01*
X-298673Y298488D02*
X-295804Y294000D01*
X-298673Y298488D02*
X-301000Y297000D01*
X-307633Y274835D02*
X-309243Y269757D01*
X-307633Y274835D02*
X-305000Y274000D01*
X-304165Y271367D02*
X-309243Y269757D01*
X-304165Y271367D02*
X-305000Y274000D01*
D12*
X-182000Y332000D03*
D13*
X-214000Y308000D02*
X-214000Y303000D01*
X-214000Y308000D02*
X-213072Y308928D01*
X-190000Y332000D01*
X-188000Y332000D02*
X-182000Y332000D01*
D12*
X-214000Y303000D03*
D13*
X-190000Y332000D02*
X-188000Y332000D01*
D12*
X-300000Y80000D03*
D13*
X-300600Y80600D01*
X-300600Y85970D01*
X-300600Y114300D01*
X-188000Y332000D02*
X-183271Y334452D01*
X-182000Y332000D01*
X-183271Y329548D02*
X-188000Y332000D01*
X-183271Y329548D02*
X-182000Y332000D01*
X-213072Y308928D02*
X-211381Y303877D01*
X-214000Y303000D01*
X-216226Y304635D02*
X-213072Y308928D01*
X-216226Y304635D02*
X-214000Y303000D01*
X-300600Y85970D02*
X-297687Y81510D01*
X-300000Y80000D01*
X-302567Y81020D02*
X-300600Y85970D01*
X-302567Y81020D02*
X-300000Y80000D01*
D12*
X-219000Y331000D03*
D13*
X-219000Y325000D01*
X-219000Y322000D01*
X-225757Y315243D01*
D12*
X-230000Y311000D03*
D13*
X-225757Y315243D01*
D12*
X-208000Y153000D03*
D13*
X-203757Y148757D01*
X-193000Y138000D01*
X-193000Y98000D01*
X-290600Y86600D02*
X-290600Y114300D01*
X-230949Y60051D02*
X-193000Y98000D01*
X-230949Y60051D02*
X-264051Y60051D01*
X-290600Y86600D01*
X-219000Y325000D02*
X-221452Y329729D01*
X-219000Y331000D01*
X-216548Y329729D02*
X-219000Y325000D01*
X-216548Y329729D02*
X-219000Y331000D01*
X-225757Y315243D02*
X-227367Y310165D01*
X-230000Y311000D01*
X-230835Y313633D02*
X-225757Y315243D01*
X-230835Y313633D02*
X-230000Y311000D01*
X-208835Y150367D02*
X-203757Y148757D01*
X-208835Y150367D02*
X-208000Y153000D01*
X-205367Y153835D02*
X-203757Y148757D01*
X-205367Y153835D02*
X-208000Y153000D01*
X-415600Y157659D02*
X-415600Y114300D01*
X-415600Y157659D02*
X-413698Y159561D01*
X-413698Y166561D01*
D12*
X-386000Y202000D03*
X-379000Y219000D03*
D13*
X-379000Y224000D01*
D12*
X-336000Y257000D03*
D13*
X-378072Y224928D02*
X-379000Y224000D01*
X-378072Y224928D02*
X-346000Y257000D01*
X-342000Y257000D01*
X-336000Y257000D01*
X-409698Y170561D02*
X-413698Y166561D01*
X-409698Y186005D02*
X-393703Y202000D01*
X-392000Y202000D02*
X-386000Y202000D01*
X-392000Y202000D02*
X-393703Y202000D01*
X-409698Y186005D02*
X-409698Y170561D01*
X-392000Y202000D02*
X-387271Y204452D01*
X-386000Y202000D01*
X-387271Y199548D02*
X-392000Y202000D01*
X-387271Y199548D02*
X-386000Y202000D01*
X-376381Y219877D02*
X-378072Y224928D01*
X-376381Y219877D02*
X-379000Y219000D01*
X-381226Y220635D02*
X-378072Y224928D01*
X-381226Y220635D02*
X-379000Y219000D01*
X-342000Y257000D02*
X-337271Y259452D01*
X-336000Y257000D01*
X-337271Y254548D02*
X-342000Y257000D01*
X-337271Y254548D02*
X-336000Y257000D01*
X-405600Y136012D02*
X-405600Y114300D01*
X-405600Y136012D02*
X-396375Y145238D01*
X-396375Y164115D02*
X-404958Y172699D01*
X-396375Y164115D02*
X-396375Y145238D01*
X-404958Y172699D02*
X-404958Y184042D01*
X-395302Y193698D01*
X-382561Y193698D02*
X-380630Y195630D01*
X-377983Y195630D01*
X-377353Y195000D01*
D12*
X-377353Y195000D03*
D13*
X-383210Y193698D02*
X-395302Y193698D01*
X-383210Y193698D02*
X-382891Y193698D01*
X-382561Y193698D01*
D12*
X-368000Y215000D03*
D13*
X-368000Y221000D01*
X-368000Y228000D01*
X-348000Y248000D01*
X-325000Y248000D02*
X-324243Y248757D01*
D12*
X-320000Y253000D03*
D13*
X-324243Y248757D01*
X-325000Y248000D02*
X-348000Y248000D01*
X-378995Y196960D02*
X-382891Y193698D01*
X-378995Y196960D02*
X-377353Y195000D01*
X-378062Y192331D02*
X-383210Y193698D01*
X-378062Y192331D02*
X-377353Y195000D01*
X-365548Y216271D02*
X-368000Y221000D01*
X-365548Y216271D02*
X-368000Y215000D01*
X-370452Y216271D02*
X-368000Y221000D01*
X-370452Y216271D02*
X-368000Y215000D01*
X-324243Y248757D02*
X-322633Y253835D01*
X-320000Y253000D01*
X-319165Y250367D02*
X-324243Y248757D01*
X-319165Y250367D02*
X-320000Y253000D01*
D12*
X-277323Y191677D03*
D13*
X-274677Y191677D01*
X-275600Y148400D02*
X-275600Y114300D01*
X-271969Y188969D02*
X-274677Y191677D01*
X-271969Y188969D02*
X-266698Y183698D01*
X-266698Y157302D01*
X-275600Y148400D01*
X-277295Y188915D02*
X-271969Y188969D01*
X-277295Y188915D02*
X-277323Y191677D01*
X-275082Y193291D02*
X-271969Y188969D01*
X-275082Y193291D02*
X-277323Y191677D01*
D12*
X-290000Y234000D03*
D13*
X-284000Y234000D01*
X-235196Y234000D01*
X-233000Y234000D01*
X-230000Y237000D01*
D12*
X-230000Y237000D03*
X-236000Y201000D03*
D13*
X-240243Y196757D01*
X-257218Y179782D01*
X-257218Y152375D01*
X-265600Y143993D01*
X-265600Y114300D01*
X-288729Y231548D02*
X-284000Y234000D01*
X-288729Y231548D02*
X-290000Y234000D01*
X-288729Y236452D02*
X-284000Y234000D01*
X-288729Y236452D02*
X-290000Y234000D01*
X-235196Y234000D02*
X-232327Y238488D01*
X-230000Y237000D01*
X-229875Y234241D02*
X-235196Y234000D01*
X-229875Y234241D02*
X-230000Y237000D01*
X-238633Y201835D02*
X-240243Y196757D01*
X-238633Y201835D02*
X-236000Y201000D01*
X-235165Y198367D02*
X-240243Y196757D01*
X-235165Y198367D02*
X-236000Y201000D01*
X-390600Y136400D02*
X-390600Y114300D01*
D12*
X-383000Y166000D03*
X-395000Y306000D03*
D13*
X-395000Y312000D01*
X-395000Y329084D01*
X-395000Y334000D01*
X-394000Y335000D01*
D12*
X-394000Y335000D03*
D13*
X-383000Y144000D02*
X-390600Y136400D01*
X-383000Y144000D02*
X-383000Y160000D01*
X-383000Y166000D01*
X-385452Y164729D02*
X-383000Y160000D01*
X-385452Y164729D02*
X-383000Y166000D01*
X-380548Y164729D02*
X-383000Y160000D01*
X-380548Y164729D02*
X-383000Y166000D01*
X-392548Y307271D02*
X-395000Y312000D01*
X-392548Y307271D02*
X-395000Y306000D01*
X-397452Y307271D02*
X-395000Y312000D01*
X-397452Y307271D02*
X-395000Y306000D01*
X-395000Y329084D02*
X-396630Y334155D01*
X-394000Y335000D01*
X-391794Y333338D02*
X-395000Y329084D01*
X-391794Y333338D02*
X-394000Y335000D01*
X-380600Y114300D02*
X-380600Y100400D01*
X-395000Y86000D01*
X-396000Y85000D01*
X-400000Y85000D01*
X-401000Y86000D01*
D12*
X-401000Y86000D03*
X-526500Y125500D03*
D13*
X-526500Y131500D01*
X-526500Y190227D01*
X-526166Y190561D01*
X-526166Y209834D01*
X-516000Y220000D02*
X-511000Y220000D01*
D12*
X-505000Y220000D03*
D13*
X-511000Y220000D01*
X-516000Y220000D02*
X-526166Y209834D01*
D12*
X-410000Y317000D03*
D13*
X-414243Y321243D01*
X-418000Y325000D01*
X-418000Y330084D01*
X-418000Y336000D01*
X-417000Y336000D01*
D12*
X-417000Y336000D03*
D13*
X-395000Y86000D02*
X-399729Y83548D01*
X-401000Y86000D01*
X-399729Y88452D02*
X-395000Y86000D01*
X-399729Y88452D02*
X-401000Y86000D01*
X-524048Y126771D02*
X-526500Y131500D01*
X-524048Y126771D02*
X-526500Y125500D01*
X-528952Y126771D02*
X-526500Y131500D01*
X-528952Y126771D02*
X-526500Y125500D01*
X-511000Y220000D02*
X-506271Y222452D01*
X-505000Y220000D01*
X-506271Y217548D02*
X-511000Y220000D01*
X-506271Y217548D02*
X-505000Y220000D01*
X-414243Y321243D02*
X-409165Y319633D01*
X-410000Y317000D01*
X-412633Y316165D02*
X-414243Y321243D01*
X-412633Y316165D02*
X-410000Y317000D01*
X-418000Y330084D02*
X-419630Y335155D01*
X-417000Y336000D01*
X-414794Y334338D02*
X-418000Y330084D01*
X-414794Y334338D02*
X-417000Y336000D01*
X-250600Y131880D02*
X-250600Y114300D01*
X-250600Y87400D02*
X-252000Y86000D01*
D12*
X-252000Y86000D03*
D13*
X-250600Y91834D02*
X-250600Y114300D01*
X-250600Y91834D02*
X-250600Y87400D01*
D12*
X-534468Y194000D03*
D13*
X-534468Y200000D01*
X-534468Y209000D01*
X-511234Y232234D01*
X-502234Y232234D01*
D12*
X-496234Y232234D03*
D13*
X-502234Y232234D01*
X-250600Y91834D02*
X-249319Y86664D01*
X-252000Y86000D01*
X-254088Y87808D02*
X-250600Y91834D01*
X-254088Y87808D02*
X-252000Y86000D01*
X-532016Y195271D02*
X-534468Y200000D01*
X-532016Y195271D02*
X-534468Y194000D01*
X-536920Y195271D02*
X-534468Y200000D01*
X-536920Y195271D02*
X-534468Y194000D01*
X-502234Y232234D02*
X-497505Y234686D01*
X-496234Y232234D01*
X-497505Y229782D02*
X-502234Y232234D01*
X-497505Y229782D02*
X-496234Y232234D01*
X-240600Y131880D02*
X-240600Y114300D01*
X-240600Y83753D02*
X-245757Y78596D01*
D12*
X-250000Y74353D03*
D13*
X-245757Y78596D01*
X-240600Y83753D02*
X-240600Y114300D01*
D12*
X-545532Y205064D03*
D13*
X-541289Y209307D01*
D12*
X-507298Y243298D03*
D13*
X-511541Y239055D02*
X-541289Y209307D01*
X-511541Y239055D02*
X-507298Y243298D01*
X-245757Y78596D02*
X-247367Y73518D01*
X-250000Y74353D01*
X-250835Y76986D02*
X-245757Y78596D01*
X-250835Y76986D02*
X-250000Y74353D01*
X-542899Y204229D02*
X-541289Y209307D01*
X-542899Y204229D02*
X-545532Y205064D01*
X-546367Y207697D02*
X-541289Y209307D01*
X-546367Y207697D02*
X-545532Y205064D01*
X-511541Y239055D02*
X-509931Y244133D01*
X-507298Y243298D01*
X-506463Y240665D02*
X-511541Y239055D01*
X-506463Y240665D02*
X-507298Y243298D01*
D12*
X-511000Y200000D03*
D13*
X-511000Y194000D01*
X-511000Y183000D01*
X-511000Y179000D01*
X-512000Y178000D01*
X-511000Y177000D01*
D12*
X-511000Y177000D03*
X-363000Y155000D03*
D13*
X-365620Y152380D01*
X-365600Y152400D02*
X-363000Y155000D01*
X-365600Y152400D02*
X-365600Y149593D01*
X-365600Y114300D01*
X-511000Y194000D02*
X-513452Y198729D01*
X-511000Y200000D01*
X-508548Y198729D02*
X-511000Y194000D01*
X-508548Y198729D02*
X-511000Y200000D01*
X-511000Y183000D02*
X-508548Y178271D01*
X-511000Y177000D01*
X-513452Y178271D02*
X-511000Y183000D01*
X-513452Y178271D02*
X-511000Y177000D01*
X-365761Y154917D02*
X-365600Y149593D01*
X-365761Y154917D02*
X-363000Y155000D01*
X-361341Y152792D02*
X-365600Y149593D01*
X-361341Y152792D02*
X-363000Y155000D01*
X-546500Y277500D02*
X-551500Y277500D01*
D12*
X-546500Y277500D03*
D13*
X-346698Y89439D02*
X-346698Y69561D01*
X-358561Y57698D01*
X-346698Y89439D02*
X-355620Y98361D01*
X-358561Y57698D02*
X-524698Y57698D01*
X-355620Y98361D02*
X-355620Y114280D01*
X-355600Y114300D01*
X-562260Y95260D02*
X-562260Y261592D01*
X-559218Y264634D01*
X-559218Y269782D01*
X-562260Y95260D02*
X-524698Y57698D01*
X-559218Y269782D02*
X-552428Y276572D01*
X-551500Y277500D01*
X-552428Y276572D02*
X-548135Y279726D01*
X-546500Y277500D01*
X-547377Y274881D02*
X-552428Y276572D01*
X-547377Y274881D02*
X-546500Y277500D01*
X-531285Y43000D02*
X-350716Y43000D01*
X-577000Y266193D02*
X-577000Y272000D01*
X-577000Y266193D02*
X-577000Y266000D01*
X-577000Y88716D01*
X-531285Y43000D01*
D12*
X-577000Y272000D03*
D13*
X-335600Y114300D02*
X-335600Y98451D01*
X-332478Y95329D01*
X-332478Y61238D02*
X-350716Y43000D01*
X-332478Y61238D02*
X-332478Y95329D01*
X-577000Y266000D02*
X-579452Y270729D01*
X-577000Y272000D01*
X-574627Y270769D02*
X-577000Y266193D01*
X-574627Y270769D02*
X-577000Y272000D01*
D12*
X-464000Y182000D03*
D13*
X-460600Y178600D01*
X-460600Y177056D01*
X-460600Y164548D01*
X-461782Y163366D01*
X-461782Y148634D01*
X-460600Y147452D01*
X-460600Y114300D01*
X-460600Y177056D02*
X-465300Y179563D01*
X-464000Y182000D01*
X-461259Y182342D02*
X-460600Y177056D01*
X-461259Y182342D02*
X-464000Y182000D01*
X-529213Y48000D02*
X-352787Y48000D01*
X-568698Y277698D02*
X-613531Y322531D01*
X-616000Y325000D01*
X-619000Y325000D01*
D12*
X-619000Y325000D03*
D13*
X-572260Y264999D02*
X-572260Y91047D01*
X-572260Y264999D02*
X-568698Y268561D01*
X-568698Y277698D01*
X-572260Y91047D02*
X-529213Y48000D01*
X-340600Y96748D02*
X-340600Y114300D01*
X-340600Y96748D02*
X-337218Y93366D01*
X-337218Y63569D02*
X-352787Y48000D01*
X-337218Y63569D02*
X-337218Y93366D01*
X-613531Y322531D02*
X-618850Y322242D01*
X-619000Y325000D01*
X-616832Y326712D02*
X-613531Y322531D01*
X-616832Y326712D02*
X-619000Y325000D01*
X-615000Y334000D02*
X-627000Y334000D01*
D12*
X-633000Y334000D03*
D13*
X-627000Y334000D01*
X-465600Y114300D02*
X-465600Y95600D01*
X-362000Y87000D02*
X-362000Y83000D01*
D12*
X-362000Y87000D03*
X-346500Y162500D03*
D13*
X-343680Y162500D01*
X-350600Y145300D02*
X-350600Y114300D01*
X-350600Y145300D02*
X-343680Y152220D01*
X-343680Y157204D01*
X-343680Y162500D01*
X-350600Y114300D02*
X-350600Y100044D01*
X-341958Y91402D01*
X-341958Y66598D02*
X-355598Y52958D01*
X-527029Y52958D01*
X-567000Y92929D01*
X-440698Y70698D02*
X-374302Y70698D01*
X-440698Y70698D02*
X-465600Y95600D01*
X-374302Y70698D02*
X-363742Y81258D01*
X-362000Y83000D01*
X-567000Y92929D02*
X-567000Y263556D01*
X-563958Y266598D02*
X-563958Y282958D01*
X-563958Y266598D02*
X-567000Y263556D01*
X-563958Y282958D02*
X-615000Y334000D01*
X-341958Y91402D02*
X-341958Y66598D01*
X-627000Y334000D02*
X-631729Y331548D01*
X-633000Y334000D01*
X-631729Y336452D02*
X-627000Y334000D01*
X-631729Y336452D02*
X-633000Y334000D01*
X-364715Y86495D02*
X-363742Y81258D01*
X-364715Y86495D02*
X-362000Y87000D01*
X-360023Y85072D02*
X-363742Y81258D01*
X-360023Y85072D02*
X-362000Y87000D01*
X-343680Y157204D02*
X-348067Y160225D01*
X-346500Y162500D01*
X-343738Y162530D02*
X-343680Y157204D01*
X-343738Y162530D02*
X-346500Y162500D01*
D14*
X-43000Y310000D03*
X-45000Y96000D03*
X-695000Y95000D03*
X-695000Y309000D03*
M02*
