M48
;GenerationSoftware,Autodesk,EAGLE,9.6.2*%
;CreationDate,2020-09-30T16:46:50Z*%
FMAT,2
ICI,OFF
METRIC,TZ,000.000
T2C0.400
T1C4.000
%
G90
M71
T1
X69500Y30900
X4300Y31000
X4500Y9600
X69500Y9500
T2
X38000Y32500
X43100Y33600
X45700Y28100
X43800Y25400
X53500Y31800
X29900Y22100
X30000Y18000
X31600Y29200
X32530Y27500
X26100Y30300
X30400Y16100
X25500Y31600
X29700Y15200
X43400Y20200
X42200Y16300
X41800Y22800
X40468Y16068
X30400Y32600
X27000Y25300
X24700Y25200
X27500Y16100
X32100Y32500
X27000Y20000
X41800Y24000
X39600Y17600
X40200Y25500
X37200Y17600
X39800Y26600
X24500Y15500
X40700Y27700
X34600Y19800
X23700Y14600
X34900Y22100
X42700Y22000
X41800Y17400
X48000Y31500
X35100Y23200
X34080Y14320
X47000Y8800
X48500Y19500
X44500Y19100
X24200Y27000
X32250Y18150
X32700Y16000
X16300Y32300
X18400Y29700
X23850Y21540
X14900Y32800
X16000Y30200
X18800Y26300
X31700Y23000
X33694Y22000
X34300Y18694
X44400Y15600
X17050Y33150
X30100Y29700
X30500Y27400
X18200Y33200
X21400Y30300
X30000Y8000
X21900Y33100
X23000Y31100
X20800Y15300
X38600Y20200
X37900Y21900
X33600Y25700
X37735Y19500
X36800Y21500
X32000Y25300
X27732Y19168
X29000Y23400
X23000Y23700
X23600Y20100
X38300Y16600
X37900Y8900
X39400Y33500
X40100Y8600
X52650Y12550
X50500Y22000
X41000Y31700
X41700Y33600
X25200Y8600
X53447Y19400
X49623Y23223
X25000Y7435
X54553Y20506
X50730Y24330
X39500Y30600
X51100Y17700
X36300Y15500
X54650Y27750
X57700Y27200
X46400Y18200
X61900Y32500
X63300Y33400
X36200Y8700
X34650Y16250
X23400Y18200
X26600Y8900
X49300Y13500
X51100Y20000
M30